<svg width="265" height="139" fill="none" xmlns="http://www.w3.org/2000/svg"><path d="M7.201 138.63c.012.009 248.215-.029 248.215-.029 7.648-15.296 11.682-32.242 7.371-48.813-5.171-19.874-22.538-33.226-34.076-38.334-9.457-4.2-18.223-4.748-25.978-4.052-5.995.54-11.386 1.822-16.024 2.736-3.272.648-6.341 1.141-8.903.979-4.255-.272-7.59-3.245-10.589-6.34-10.63-10.964-22.801-29.916-66.265-32.184-12.916-.67-27.85.442-39.792 5.293-5.078 2.062-24.21 11.286-29.825 26.89-1.773 4.925-2.198 10.485-.41 16.656 6.326 21.837-3.307 24.555-15.36 34.962-16.087 13.889-21.267 32.629-8.364 42.236Z" fill="#F9CD3D"/><path d="M71.042 55.875v30.483H17.87l1.907-30.483h51.266Z" fill="#E58638"/><path d="M231.748 49.831h-60.951v89.17h60.951v-89.17Zm-87.792-5.757H71.037v94.703h72.919V44.074Z" fill="#F2D3B6"/><path d="M172.369 12.318H68.131v46.19h104.238v-46.19Z" fill="#E58638"/><path d="m123.602 52.538 54.801-50.575 54.801 50.575H123.602Z" fill="#F2D3B6"/><path d="M237.643 57.509c-.49 0-.98-.173-1.368-.523L178.402 7.839c-18.433 16.382-39.845 32.16-40.488 32.579-.923.6-2.173.359-2.791-.547a1.933 1.933 0 0 1 .464-2.658c1.327-1.07 25.477-22.496 41.461-36.702a2.053 2.053 0 0 1 2.723.011l59.24 53.58c.816.738.864 1.981.109 2.777-.397.419-.936.63-1.477.63Z" fill="#E58638"/><path d="M180.415 44.074h-72.919v94.703h72.919V44.074Z" fill="#FFE3CA"/><path d="m107.496 44.074 36.459-33.647 36.46 33.647-62.881.233-10.038-.233Z" fill="#FFE3CA"/><path d="M154.505 55.233V73.56h-21.419V55.587c0-3.105 1.356-5.895 3.53-7.833.349-.315.724-.602 1.113-.865a8.359 8.359 0 0 1 1.195-.72 10.997 10.997 0 0 1 5.046-1.205c1.825 0 3.53.446 5.019 1.258.416.197.819.446 1.195.733.349.237.684.511 1.007.8 2.039 1.871 3.314 4.531 3.314 7.478Z" fill="#EFCDAF"/><path d="M154.86 52.482h-22.046l.341-.885a11.222 11.222 0 0 1 4.194-5.247c.35-.258.772-.514 1.266-.764a11.755 11.755 0 0 1 5.354-1.277c1.916 0 3.715.451 5.347 1.34.419.199.861.47 1.28.79a9.63 9.63 0 0 1 1.046.833c1.32 1.216 2.323 2.715 2.904 4.34l.314.87Zm-20.057-1.309h18.113a9.805 9.805 0 0 0-2.189-2.944 8.828 8.828 0 0 0-.928-.737 6.116 6.116 0 0 0-1.105-.682 9.736 9.736 0 0 0-4.726-1.192c-1.659 0-3.295.39-4.733 1.13a7.463 7.463 0 0 0-1.102.665 10.003 10.003 0 0 0-3.33 3.76Z" fill="#F9DDBF"/><path d="M164.726 51.831h-41.861v21.724h41.861V51.83Z" fill="#EFCDAF"/><path d="M144.465 51.831h-1.342v21.724h1.342V51.83Z" fill="#F9DDBF"/><path d="M163.809 58.503h-40.45v.656h40.45v-.656Zm0 7.138h-40.45v.655h40.45v-.655Z" fill="#F9DDBF"/><path d="M135.157 51.831h-1.343v21.724h1.343V51.83Zm18.621 0h-1.342v21.724h1.342V51.83Zm10.949 0h-1.342v21.724h1.342V51.83Zm-40.519 0h-1.343v21.724h1.343V51.83Z" fill="#F9DDBF"/><path d="M164.73 72.247h-41.861v1.31h41.861v-1.31Zm0-20.416h-41.861v1.31h41.861v-1.31Z" fill="#F9DDBF"/><path d="m150.181 46.955-6.321 6.537-6.133-6.602a8.265 8.265 0 0 1 1.194-.72l4.952 5.331 5.114-5.28c.416.197.819.446 1.194.734Z" fill="#F9DDBF"/><path d="M164.726 95.415h-41.861v21.723h41.861V95.415Z" fill="#EFCDAF"/><path d="M144.465 95.413h-1.342v21.724h1.342V95.413Z" fill="#F9DDBF"/><path d="M163.809 102.085h-40.45v.656h40.45v-.656Zm0 7.138h-40.45v.655h40.45v-.655Z" fill="#F9DDBF"/><path d="M135.157 95.413h-1.343v21.724h1.343V95.413Zm18.621 0h-1.342v21.724h1.342V95.413Zm10.949 0h-1.342v21.724h1.342V95.413Zm-40.519 0h-1.343v21.724h1.343V95.413Z" fill="#F9DDBF"/><path d="M164.73 115.829h-41.861v1.31h41.861v-1.31Zm0-20.416h-41.861v1.31h41.861v-1.31Z" fill="#F9DDBF"/><path d="M99.554 95.415H81.002v21.723h18.552V95.415Z" fill="#EFCDAF"/><path d="M99.557 95.413h-1.153v21.724h1.153V95.413Z" fill="#F9DDBF"/><path d="M99.147 102.085H81.221v.656h17.926v-.656Zm0 7.138H81.221v.655h17.926v-.655Z" fill="#F9DDBF"/><path d="M90.762 95.413H89.61v21.724h1.153V95.413Zm-8.607 0h-1.153v21.724h1.153V95.413Z" fill="#F9DDBF"/><path d="M99.556 115.829H81.004v1.31h18.552v-1.31Zm0-20.416H81.004v1.31h18.552v-1.31Z" fill="#F9DDBF"/><path d="M99.554 64.304H81.002v21.724h18.552V64.304Z" fill="#EFCDAF"/><path d="M99.557 64.304h-1.153v21.724h1.153V64.304Z" fill="#F9DDBF"/><path d="M99.147 70.976H81.221v.655h17.926v-.655Zm0 7.138H81.221v.655h17.926v-.655Z" fill="#F9DDBF"/><path d="M90.762 64.304H89.61v21.724h1.153V64.304Zm-8.607 0h-1.153v21.724h1.153V64.304Z" fill="#F9DDBF"/><path d="M99.556 84.718H81.004v1.31h18.552v-1.31Zm0-20.414H81.004v1.31h18.552v-1.31Z" fill="#F9DDBF"/><path d="M215.044 47.64h-18.552v21.725h18.552V47.64Z" fill="#EFCDAF"/><path d="M215.045 47.64h-1.152v21.725h1.152V47.64Z" fill="#F9DDBF"/><path d="M214.637 54.313h-17.926v.655h17.926v-.655Zm0 7.137h-17.926v.656h17.926v-.655Z" fill="#F9DDBF"/><path d="M206.25 47.64h-1.152v21.725h1.152V47.64Zm-8.605 0h-1.153v21.725h1.153V47.64Z" fill="#F9DDBF"/><path d="M215.046 68.055h-18.552v1.31h18.552v-1.31Zm0-20.415h-18.552v1.311h18.552v-1.31Z" fill="#F9DDBF"/><path d="M102.354 49.21a2.02 2.02 0 0 1-1.676-.876 1.933 1.933 0 0 1 .464-2.658c1.328-1.07 25.477-22.496 41.46-36.702a2.053 2.053 0 0 1 2.723.011l40.708 36.82c.815.738.864 1.981.109 2.777a2.046 2.046 0 0 1-2.845.106l-39.788-31.516c-17.268 14.483-39.398 31.29-40.041 31.71a2.039 2.039 0 0 1-1.114.329Z" fill="#ED9F4A"/><path d="M71.036 86.363H20.844v52.059h50.192v-52.06Z" fill="#FFE3CA"/><path d="M234.29 73.063h-53.87v20.906h53.87V73.063Z" fill="#E58638"/><path d="M212.333 133.211H192.9v-23.039c0-5.03 4.177-9.107 9.331-9.107h.879c5.093 0 9.222 4.031 9.222 9.002v23.144h.001Z" fill="#E0B794"/><path d="M210.486 110.739v.419h-15.742v-.341c0-4.074 3.382-7.375 7.556-7.375h.711c4.134 0 7.475 3.262 7.475 7.297Zm-.002 2.798h-15.742v6.176h15.742v-6.176Zm0 8.215h-15.742v10.094h15.742v-10.094Z" fill="#CEA484"/><path d="M217.168 132.859h-29.106v2.047h29.106v-2.047Zm2.463 2.048H185.6v2.046h34.031v-2.046Zm2.024 2.046h-38.077v2.046h38.077v-2.046Z" fill="#E0B794"/><path d="M59.94 95.926H34.576v29.699H59.94v-29.7Z" fill="#EFCDAF"/><path d="M59.941 95.924h-1.576v29.7h1.576v-29.7Z" fill="#F9DDBF"/><path d="M59.383 105.046H34.875v.896h24.508v-.896Zm0 9.759H34.875v.895h24.508v-.895Z" fill="#F9DDBF"/><path d="M47.92 95.924h-1.576v29.7h1.576v-29.7Zm-11.768 0h-1.576v29.7h1.576v-29.7Z" fill="#F9DDBF"/><path d="M59.941 123.834H34.578v1.791h25.363v-1.791Zm0-27.91H34.578v1.79h25.363v-1.79Z" fill="#F9DDBF"/><path d="M53.93 86.358H12.149l7.628-30.483h20.278L53.93 86.358Zm42.586-27.851H68.13v-46.19H78.8c3.047 8.228 12.388 32.422 17.716 46.19Zm137.776 14.556v20.906h-35.646l14.146-20.906h21.5Z" fill="#ED9F4A"/><path d="M104.017 22.256H98.32V10.72c0-.57.473-1.033 1.058-1.033h3.602c.573 0 1.037.454 1.037 1.013v11.555Z" fill="#F2D3B6"/><path d="M96.984 8.504h8.304l-4.12-3.833-4.184 3.833Z" fill="#E58638"/><path d="M99.415 9.69h-.369l-.056-1.295h.507l-.082 1.295Zm3.806 0h-.37l-.056-1.295h.507l-.081 1.295Z" fill="#E58638"/><path d="M246.248 138.287h-6.946c-.372-.308.258-1.008.916-1.055.286-.022.647.037 1.06.122.095-1.239.641-6.809 2.698-6.586 2.313.251 0 2.453-.654 3.757-.484.966-.995 2.351-1.229 3.005.188.04.382.079.581.115.306-.919 1.447-4.009 2.897-3.83 1.703.211 1.018 1.45-.189 2.185-.885.541-1.973 1.31-2.49 1.681.438.07.895.117 1.359.106 1.19-.026 1.772.317 1.997.5ZM71.045 120.372v18.076l-43.752.012s1.4-4.845 6.91-7.493a12.842 12.842 0 0 1 1.704-.701c.73-.249 1.509-.451 2.349-.618.012 0 .024 0 .036-.012a8.404 8.404 0 0 0 1.094-.285c7.787-2.553 8.14-14.37 30.491-9.263.402.094.79.189 1.168.284Z" fill="#82B378"/><path d="M37.474 132.127s-6.557-8.503-9.494-6.21c-2.936 2.293 9.494 6.21 9.494 6.21Zm1.958-.86c0-.383.098-8.217-2.643-7.644-2.74.574 2.643 7.644 2.643 7.644Z" fill="#82B378"/><path d="M46.283 46.559c-.041-.223-.58-2.618-4.374-2.21 0 0 1.889-.046 2.328.705 0 0-1.41-.805-2.393-.342-.982.462-1.325 2.308-1.245 2.888.08.58.93 2.366 1.607 2.432.256.025.538-.032.791-.11a8.57 8.57 0 0 0-.376.955c-1.057 3.232.935 5.963 2.162 5.455.786-.324 1.221 1.005 1.221 1.005l7.014-7.406c0-.001-3.796-5.483-6.735-3.372Z" fill="#2C3A64"/><path d="m55.42 135.755-1.705.619s-7.41-10.029-8.32-18.854c-.164-1.576-.11-3.102.243-4.512l-.199-1.118a3411.804 3411.804 0 0 0-1.164-6.482c-.871-4.83-2.001-11.004-2.878-15.541l.459-.145 4.973-1.566 1.028-3.186 3.703-.951s.828 1.579 1.567 9.04c.136.979.26 2.057.353 3.228.288 3.572.31 8.004-.352 13.07a66.855 66.855 0 0 1-.65 4.011c-.195 1.009-.225 2.382-.143 3.961.373 7.215 3.086 18.426 3.086 18.426Z" fill="#2B478B"/><path d="m53.478 96.288-8.04 15.603-.214-1.193c-.24-1.347-.572-3.19-.951-5.289-.872-4.83-2.001-11.004-2.879-15.541l.46-.145 4.973-1.566 1.028-3.186 3.703-.952s.828 1.58 1.567 9.04c.136.98.26 2.058.353 3.23Z" fill="#233862"/><path d="m49.943 86.022-.009.037-.216.87c-.535 2.147-1.84 7.36-1.92 7.356-.717 4.888-1.795 11.222-3.134 16.09-.708 2.575-1.489 4.74-2.33 6.064-.288.456-.603 1.217-.931 2.185-1.935 5.709-4.316 18.633-4.316 18.633l-1.086.427s-4.183-11.613-.558-21.043c.37-.96.82-1.897 1.363-2.799a.531.531 0 0 0 .09-.337l-.001-.005a108.81 108.81 0 0 1-.298-2.758c-.37-3.814-.723-16.701-.916-19.733a15.844 15.844 0 0 1 .09-3.08c.231-1.77.755-3.094 1.265-4.02.645-1.17 1.269-1.706 1.269-1.706s8.332 3.067 11.45 2.259l.188 1.56Z" fill="#2B478B"/><path d="M49.934 86.792a2.335 2.335 0 0 1-.217.137c-2.873 1.638-12.954 1.062-13.945 1.001.231-1.77.755-3.094 1.265-4.021 4.311.374 11.458 1.13 12.898 2.15.327.231.36.476-.001.733Z" fill="#223E77"/><path d="m66.014 83.467-.506 1.46s-.102-.018-.277-.061c-.553-.136-1.898-.45-3.405-.88-2.271-.63-4.942-1.51-5.913-2.36-1.481-1.284-3.652-4.803-4.87-8.154a1.863 1.863 0 0 1-.085-.246c-.63-1.775-.983-3.489-.797-4.775a6.385 6.385 0 0 1 .59-1.995 5.278 5.278 0 0 1 1.28-1.67c.064-.065.128-.131.216-.18.74-.599 1.26-1.005 1.26-1.005.328-.071.762.35 1.038.77 0 0 .45.835.641 1.431.01.015.021.03.02.042.042.123.083.258.133.408.022.029.027.069.035.096.087.31.171.632.254.967.95 3.598 1.684 8.925 2.792 10.669.478.75 2.976 2.495 4.974 3.819 1.442.945 2.62 1.664 2.62 1.664Z" fill="#FFB27D"/><path d="M52.648 67.11c-.904.577-2.029 1.041-3.433 1.317-5.264 1.035-7.143-3.334-7.81-6.317.724-.378 1.397-.447 1.786-.483.38-.033.778-.05 1.107-.057.6-.423 1.526-2.196 1.801-4.98l.244.07 4.09 1.215s-.226 1.274-.352 2.48c-.1.944-.137 1.848.04 2.074.32.077.512.126.512.126l.002.004c.053.09 1.193 2.043 2.013 4.552Z" fill="#FFB27D"/><path d="M54.48 70.32a4.712 4.712 0 0 1-.086.327c-.924 3.015-1.672 15.07-1.672 15.07.668 2.053-16.26 1.881-16.588-.028-.884-1.95 1.282-5.588 2.534-7.437.156-.233.291-.477.403-.73a4.558 4.558 0 0 0 .39-2.029c-.11-2.757-.6-5.286-.805-6.837.26-.252.514-.488.75-.711.36-.343.677-.662.898-.97.244-.337.38-.666.349-1.01a4.833 4.833 0 0 0-.139-.786 7.333 7.333 0 0 0-.104-.368c-.402-1.286-1.14-2.398-1.14-2.398 1.339-.764 3.92-.787 3.92-.787l.05.363c.126.904.479 3.22.84 3.617.452.494 7.59 1.927 7.839 1.134.244-.78-1.23-4.058-1.285-4.181l-.002-.004c2.401.548 3.321 1.164 3.321 1.164-1.24 1.06 1.179 3.71.527 6.601Z" fill="#2B478B"/><path d="M50.434 57.876s-.227 1.272-.353 2.48c-2.328-.292-3.35-2.492-3.737-3.693l4.09 1.213Z" fill="#ED985F"/><path d="M51.097 59.096s-5.534-.452-5.193-3.81c.34-3.36-.144-5.681 3.403-5.535 3.548.146 4.103 1.494 4.269 2.642.166 1.149-1.032 6.733-2.479 6.703Z" fill="#FFB27D"/><path d="M53.602 50.51c-.75-1.093-1.418-.935-1.811-.666-2.854-1.915-6.272-.099-6.272-.099-.617 2.374-1.312 3.97-1.312 3.97s.945.705 3.326.35c.727-.11 1.41-.54 2.01-1.084a12.837 12.837 0 0 1-2.489 2.428c2.901-.98 4.401-4.635 4.553-5.023.307.329.905 1.036 1.044 1.686.188.882.13 2.655.662 2.647 0-.001 1.415-2.569.29-4.209Z" fill="#2C3A64"/><path d="M47.682 82.417c-3.27.429-6.526-2.489-8.61-4.895a4.557 4.557 0 0 0 .392-2.027c-.11-2.758-.6-5.286-.806-6.838.26-.252.514-.487.75-.71.36-.344.676-.662.898-.971 3.328 4.033 11.81 14.86 7.377 15.44Z" fill="#233862"/><path d="m59.089 83.509.579 1.916s-1.46-.324-2.375-.412c-.275-.026-.432-.05-.432-.05-.733-.078-1.611-.193-2.568-.314h-.013c-1.641-.24-3.482-.54-5.044-.912-1.1-.273-2.06-.584-2.725-.92a1.642 1.642 0 0 1-.19-.11c-1.6-.94-3.666-3.926-5.355-7.173-.234-.448-.456-.897-.676-1.334-.793-1.627-1.455-3.241-1.89-4.645-.27-.837-.468-1.605-.55-2.242a5.058 5.058 0 0 1-.07-.64 8.802 8.802 0 0 1-.022-.34c.646-.552 2.137-1.583 4.171-1.476l.127.215c.877 1.557 1.834 3.587 2.74 5.61.5 1.109.988 2.218 1.467 3.24.277.622.549 1.205.803 1.74.493 1.02.929 1.844 1.298 2.357.237.334.871.774 1.706 1.26 1.448.852 3.545 1.85 5.366 2.656.757.34 1.47.648 2.064.9.958.411 1.589.674 1.589.674Z" fill="#FFB27D"/><path d="M42.053 65.077c-2.535-.456-4.277 1.592-4.277 1.592-.292-3.637 1.517-4.291 1.517-4.291.719-.365 1.695.822 2.76 2.699Z" fill="#2B478B"/><path d="M42.312 138.549h-8.591s-.206-1.278.243-2.248c.43-.93 1.103-1.353.942-2.479.545.549 1.436 1.164 2.677 1.001.153.241.982 1.53 1.49 1.886.563.393 3.066.252 3.24 1.84Zm18.447.001h-8.592s-.321-1.338.243-2.248c.5-.805.308-1.264-.062-1.93.39.155.893.297 1.448.266.428-.024.88-.214 1.277-.438.37.411 1.953 2.163 2.448 2.51.561.392 3.064.252 3.238 1.84Z" fill="#233862"/><path d="M49.777 57.152s.078.445 1.199.446c0 0 .94 0 .944-.482 0 0-.887-.4-2.143.036Z" fill="#fff"/><path d="M78.706 71.263c-.363-.137-.81 1.363-1.09 1.418-.28.055-.168-.409-.417-.482-.25-.073-.365 1.218-.17 1.715.195.497.168 1.088.168 1.088s-1.662 6.266-2.02 6.968c-.357.7-6.216 5.802-6.216 5.802l1.288 4.063s6.901-6.224 7.49-7.688c.587-1.464.853-8.978.853-8.978s.516-1.083.629-2.173c.112-1.093-.152-1.597-.515-1.733ZM60.792 87.32s-4.062-5.134-6.038-6.726c0 0-2.704-6.507-2.923-6.936a.2.2 0 0 0-.04-.052c-.029-.15-.12-.694-.02-1.196.12-.587-.263-1.996-.526-1.869-.262.128-.047.62-.368.612-.32-.008-1.111-1.585-1.487-1.367-.376.22-.57.829-.23 2.016.282.99.873 1.92 1.064 2.203l-.017.01s.992 6.325 2.04 8.2c1.047 1.875 4.295 8.168 6.587 8.402 2.293.233 1.958-3.297 1.958-3.297Z" fill="#ED985F"/><path d="M73.057 135.614s.459.874 1.475 1.09c.64.135 1.189.461 1.53.917a.582.582 0 0 1-.48.928h-5.16a.73.73 0 0 1-.738-.797c.038-.373.079-.807.096-1.141.038-.727.785-1.313.785-1.313l2.492.316Z" fill="#D3671E"/><path d="M73.181 135.834s-1.237.714-3.332.283c0 0-3.56-8.888-3.772-13.07a6.563 6.563 0 0 1-.01-.48c.072-3.934-3.649-14.177-2.645-16.276s9.114.943 9.114.943l.161 7.138.484 21.462Z" fill="#35488B"/><path d="m72.697 114.371-6.62 8.675a6.585 6.585 0 0 1-.01-.48c.072-3.934-3.649-14.178-2.645-16.276 1.004-2.1 9.114.942 9.114.942l.161 7.139Z" fill="#2C3A64"/><path d="M59.734 135.614s.46.874 1.475 1.09c.641.135 1.19.461 1.53.917a.582.582 0 0 1-.48.928H57.1a.73.73 0 0 1-.738-.797c.038-.373.08-.807.097-1.141.038-.727.784-1.313.784-1.313l2.492.316Z" fill="#D3671E"/><path d="M67.792 107.404s-7.167 26.108-7.387 28.662c0 0-1.398.7-3.667-.536 0 0-1.318-11.702 0-14.899 1.318-3.198-.261-12.864 3.09-15.044 3.351-2.18 7.964 1.817 7.964 1.817Z" fill="#35488B"/><path d="m68.646 86.714-4.4 2.195-.883-2.98s.56-1.03.814-2.72c.106-.71.159-1.537.092-2.453l3.586 1.791s-.086.324-.143.802c-.061.516-.089 1.211.062 1.872.13.568.39 1.11.872 1.493Z" fill="#ED985F"/><path d="M72.305 90.498c.025-.357 2.229-1.81 2.229-1.81.463-2.716-1.308-4.671-1.308-4.671l-2.653 1.843c-.513.03-.732.212-.732.212-.44-.115-1.75-.014-1.75-.014.02.617-.148 1.195-1.26 1.336-1.476.188-2.797-.795-3.466-1.465 0 0-.894-.076-2.017.282 0 0-.544-.271-1.123-.289l-2.172-1.906s-2.544.718-2.946 4.46c0 0 2.858 2.123 3.064 3.8l.078.635.276 2.251.488 3.949-1.451 7.865c-.013.069-.02.138-.02.206 0 .525.368.998.91 1.125 0 0 .125.02.355.051 1.538.21 7.782.938 12.677-.359a2.325 2.325 0 0 0 1.734-2.428l-1.035-12.687s.098-2.029.122-2.386Z" fill="#BC3F3F"/><path d="M60.788 102.42c-.097 2.743-.372 5.068-1.98 5.937a10.89 10.89 0 0 1-.355-.051c-.542-.127-.91-.6-.91-1.125 0-.068.007-.137.019-.206l1.451-7.864-.487-3.95.036-.104s2.35 3.85 2.227 7.363Z" fill="#A02E2E"/><path d="M67.775 85.221c-2.038-.053-3.595-2.013-3.595-2.013l3.533.14c-.06.517-.088 1.212.062 1.873Z" fill="#D68C5B"/><path d="M68.762 84.112s-4.067 1.048-5.47-2.108c-1.514-3.407.147-5.89 1.529-6.056 2.753-.334 4.353.692 4.837 1.775.485 1.083 1.349 5.831-.896 6.39Z" fill="#ED985F"/><path d="M67.15 82.335s.17.409 1.244.18c0 0 .9-.194.799-.657 0 .001-.936-.197-2.043.477Z" fill="#fff"/><path d="M64.02 83.108s-.477-1.366-.421-2.096c0 0-1.061-1.32-.443-1.648.619-.326.952.454 1.093.302.142-.154.364-2.75 1.114-2.667.751.082 3.53.922 4.747-.103 1.218-1.025-1.737-5.03-6.745-3.483-5.006 1.547-3.983 6.981.654 9.695Z" fill="#2C3A64"/><path d="M60.897 75.544s-.227-.66.016-1.131c0 0 .013.65.274.939.261.288-.29.192-.29.192Z" fill="#2C3A64"/><path d="M61.001 75.083s-.62-.07-.911.396c0 0 .436-.287.877.018l.034-.414Z" fill="#2C3A64"/><path d="M59.09 83.51s2.522.506 2.744.77c.222.264 1.811 2.094 1.08 2.312-.731.216-1.974-.621-2.37-.807a11.793 11.793 0 0 0-.876-.359l-.578-1.916Z" fill="#FFB27D"/><path d="M256.058 107.169h-25.874v14.869h25.874v-14.869Z" fill="#BC3F3F"/><path d="M260.709 103.003h-40.211v2.673h40.211v-2.673Z" fill="#CEA484"/><path d="M227.446 105.676h-3.518v32.519h3.518v-32.519Z" fill="#CEA484"/><path d="m227.446 107.625-3.518 2.06v-4.009h3.518v1.949Zm4.682-2.543h-.761v3.025h.761v-3.025Zm22.555 0h-.761v3.025h.761v-3.025Z" fill="#BC8D6D"/><path d="M236.837 112.378c.283 0 .532.038.747.112.216.075.395.167.539.278.143.112.253.234.326.368a.924.924 0 0 1 .124.38.137.137 0 0 1-.047.121.192.192 0 0 1-.124.046h-.444c-.071 0-.126-.013-.161-.04a.397.397 0 0 1-.098-.108.818.818 0 0 0-.288-.269c-.129-.076-.319-.114-.573-.114-.11 0-.215.011-.314.034a.92.92 0 0 0-.259.099.558.558 0 0 0-.175.157.373.373 0 0 0-.063.21c0 .095.02.173.06.232.04.06.107.112.203.155.095.043.22.083.376.121.157.037.35.08.583.129.253.054.472.116.656.189.184.073.334.158.45.26a.957.957 0 0 1 .259.349c.056.131.086.282.086.451 0 .185-.042.357-.127.516-.085.16-.205.295-.361.408a1.84 1.84 0 0 1-.576.269 2.753 2.753 0 0 1-.767.099c-.236 0-.462-.028-.677-.084a2.005 2.005 0 0 1-.573-.241 1.34 1.34 0 0 1-.403-.381.984.984 0 0 1-.171-.494.138.138 0 0 1 .048-.12.184.184 0 0 1 .124-.047h.443a.3.3 0 0 1 .165.038c.039.025.07.062.096.111.029.054.066.107.107.161.042.054.1.102.171.143.072.041.161.075.269.102.108.027.242.04.402.04.127 0 .249-.009.367-.028.119-.018.223-.049.31-.093a.668.668 0 0 0 .216-.161.351.351 0 0 0 .082-.238c0-.09-.03-.165-.089-.222a.696.696 0 0 0-.269-.148 3.82 3.82 0 0 0-.446-.118 16.333 16.333 0 0 1-.614-.142 3.293 3.293 0 0 1-.554-.176 1.34 1.34 0 0 1-.393-.25.917.917 0 0 1-.23-.349 1.35 1.35 0 0 1-.077-.48c0-.185.042-.356.127-.512.085-.157.2-.291.348-.402.148-.112.324-.2.529-.263.203-.065.424-.098.66-.098Zm2.433 1.677c.013-.231.058-.449.137-.652.078-.204.193-.382.345-.532.151-.151.342-.27.57-.358.228-.088.498-.133.81-.133.308 0 .576.043.805.13.228.087.418.206.57.358.152.153.268.33.348.532.08.202.127.421.139.655a8.49 8.49 0 0 1 .013.554 13.977 13.977 0 0 1-.013.553 2.128 2.128 0 0 1-.136.653 1.492 1.492 0 0 1-.918.887c-.23.086-.5.13-.808.13a2.27 2.27 0 0 1-.81-.13 1.608 1.608 0 0 1-.57-.356 1.487 1.487 0 0 1-.345-.531 2.158 2.158 0 0 1-.137-.653 8.626 8.626 0 0 1-.012-.553c0-.101.001-.199.003-.294.003-.095.005-.182.009-.26Zm2.87.031c-.017-.297-.115-.527-.295-.69-.179-.163-.416-.244-.712-.244-.295 0-.533.082-.712.244-.179.163-.277.393-.295.69-.008.156-.012.33-.012.522s.004.366.012.522c.018.297.116.526.295.686.179.161.417.241.712.241.296 0 .533-.08.712-.241.18-.161.278-.39.295-.686.009-.156.012-.33.012-.522s-.004-.366-.012-.522Zm4.635 1.91c.047 0 .087.016.12.049a.155.155 0 0 1 .051.117v.439a.158.158 0 0 1-.051.118.165.165 0 0 1-.12.049h-2.774a.167.167 0 0 1-.12-.049.155.155 0 0 1-.051-.118v-3.993c0-.046.017-.085.051-.117a.164.164 0 0 1 .12-.05h.513c.046 0 .086.017.12.05a.16.16 0 0 1 .05.117v3.388h2.091Zm2.514-3.556c.313 0 .583.04.814.12.23.08.423.194.576.343.155.148.273.328.355.538.082.211.131.445.148.705.018.305.018.609 0 .915a2.352 2.352 0 0 1-.148.704c-.082.21-.2.389-.352.538a1.547 1.547 0 0 1-.567.343c-.226.08-.491.121-.796.121h-1.596a.166.166 0 0 1-.12-.049.155.155 0 0 1-.05-.117v-3.994a.17.17 0 0 1 .17-.166h1.566v-.001Zm1.039 1.706a1.218 1.218 0 0 0-.079-.368.846.846 0 0 0-.196-.297.922.922 0 0 0-.326-.198 1.392 1.392 0 0 0-.47-.071h-.848v2.782h.88c.173 0 .323-.023.45-.071a.889.889 0 0 0 .317-.194.857.857 0 0 0 .193-.297c.044-.115.071-.239.079-.371.016-.305.016-.61 0-.915Z" fill="#fff"/><path d="M101.098 138.241s3.132-6.512 10.179-6.6c7.048-.087 10.936-8.113 17.507-7.731 6.572.383 7.355 6.673 12.053 7.731 4.698 1.059 17.618-1.221 18.402 6.989l-58.141-.389Z" fill="#82B378"/><path d="M116.268 131.641c0-.088-5.09-9.286-6.95-7.744-1.859 1.542 6.95 7.744 6.95 7.744Zm-1.859.296s-4.551-2.723-6.704-2.054c-2.154.668 6.704 2.054 6.704 2.054Zm11.11-5.59c.049-.287-.098-7.5-2.545-6.593-2.447.908 2.545 6.593 2.545 6.593Zm1.469-1.338c.099-.144 1.567-4.013.49-4.013s-.392 3.869-.392 3.869l-.098.144Z" fill="#82B378"/><path d="M148.305 84.954a6.897 6.897 0 0 1-.178-.06c-.303-.105-.915-.878-.915-.878l-1.153 1.215.792.817c.452 1.034.46 1.053 1.828 1.254 1.185.174.992.91 1.817 1.113.825.203.712-.937.712-.937-.317-1.803-.667-2.04-1.461-2.2.264-.092.44-.227.385-.397-.049-.15-.456.013-1.264-.085-.122-.014-.354.07-.563.158Z" fill="#ED985F"/><path d="M147.395 85.615c.439-.861.643-1.866.643-1.866s-7.784-4.995-8.466-5.552c-.683-.558-7.759-10.712-7.759-10.712l-8.293.648s11.059 12.46 12.818 13.84c2.905 2.277 10.161 4.746 10.161 4.746s.552-.429.896-1.104Z" fill="#912F2F"/><path d="M141.653 138.542h-8.522c-.41-.489-.258-2.289-.196-2.877.012-.119.022-.188.022-.188s2.909-2.272 3.309-.533c.012.055.027.108.043.161.503 1.627 2.762 2.367 4.066 2.573.849.134 1.163.564 1.278.864Zm-11.279 0h-8.522c-.41-.489-.259-2.289-.197-2.877l.022-.188s2.91-2.272 3.31-.533c.012.055.026.108.043.161.503 1.627 2.762 2.367 4.066 2.573.849.134 1.162.564 1.278.864Z" fill="#233862"/><path d="M138.103 92.293s0 5.07.016 11.669c.022 8.815-.604 19.58-.688 21.625-.145 3.55-.728 9.23-.728 9.23s-1.381 1.349-4.145.781c0 0-2.464-8.108-3.168-16.686l-.032-.423c-.655-8.732-1.672-27.12-1.672-27.12l10.417.924Z" fill="#2B478B"/><path d="M138.104 92.293s0 4.876.016 11.669l-7.996 20.828c-.01-.141-.756-6.161-.766-6.303-.655-8.732-1.672-27.12-1.672-27.12l10.418.926Z" fill="#233862"/><path d="M133.921 90.564s-1.075 13.971-2.593 25.65c-1.932 10.192-5.353 19.572-5.353 19.572s-4.156.384-4.607-.333c0 0-.831-12.671 1.054-19.316.85-2.997-.543-11.131-.845-15.452-.391-5.589.851-10.641.851-10.641l11.493.52Z" fill="#2B478B"/><path d="M133.653 64.341c-3.112.959-8.497-1.628-8.497-1.628s2.87-2.102 2.719-6.473l2.407 1.893 1.634 1.285s-.007.758-.186 2.087c-.047.349-.106.739-.18 1.164 1.337.717 2.103 1.672 2.103 1.672Z" fill="#ED985F"/><path d="M131.917 59.42s-.006.757-.186 2.086c-1.811-.303-3.866-3.16-3.866-3.16.922-.26 1.73-.307 2.417-.212l1.635 1.285Z" fill="#D68C5B"/><path d="M132.868 59.346s-5.141.834-5.624-2.3c-.482-3.132-1.471-5.134 1.791-5.799 3.262-.664 4.085.438 4.507 1.444.422 1.008.651 6.358-.674 6.655Z" fill="#ED985F"/><path d="M138.283 92.554a.507.507 0 0 1-.327.122c-1.169-.016-4.862.626-7.745.336-2.431-.228-4.583-.93-6.893-1.942-.307-.134-1.014-.503-.997-.837.01-.366.047-.898.094-1.568.163-2.327.449-6.332.171-10.952-.05-.86-.077-1.713-.079-2.553-.024-6.262 1.248-11.768 3.804-13.632.218-.153 1.559.486 2.789 1.08 1.138.547 2.276.608 3.351.395l1.075.928c1.309 1.186 2.743 2.799 3.367 5.248.53 2.083.842 5.841 1.013 9.736.079 1.764.141 3.545.157 5.234v.06c.015.168.015.35.015.518.061 4.335.283 7.766.205 7.827Z" fill="#BC3F3F"/><path d="M127.241 56.746s.527-.085.442-.795c-.084-.71-.084-1.636.508-1.464.591.173.619.634.862.365.244-.27.247-1.406 2.006-1.485 1.758-.079 2.472.519 3.289.168.817-.351.861-1.56.861-1.56s-.233.432-.584.57c0 0 1.364-1.82-.215-3.07-1.579-1.249-3.189-.43-4.103-.377-2.012.12-3.313.237-3.971 1.529-.659 1.29-.387 4.876.905 6.12Zm46.325 38.617 1.25-.174h.003c.087-.02.173-.037.264-.05l2.279-.316-.153-1.046a.861.861 0 0 1 .173-.655.902.902 0 0 1 .597-.344l.595-.083 2.393-.333.431-.06a.904.904 0 0 1 1.025.751l.152 1.046 3.934-.548c1.495-.207 2.893.817 3.106 2.276l.714 4.898c.213 1.459-.836 2.823-2.331 3.031l-11.425 1.589c-.201.028-.4.034-.595.019l-.933.129c-1.489.208-2.882-.812-3.094-2.267l-.707-4.841c-.213-1.456.832-2.815 2.322-3.022Zm8.294-2.232a.334.334 0 0 0-.383-.28l-.508.07-1.883.262-1.027.142a.331.331 0 0 0-.287.373l.152 1.045 4.089-.57-.153-1.042Z" fill="#233862"/><path d="M122.422 88.67c.163-2.327.448-6.331.171-10.951-.05-.86-.077-1.713-.08-2.554a117.457 117.457 0 0 1 1.936-4.349h2.684c-.002 0 1.966 13.118-4.711 17.855Z" fill="#912F2F"/><path d="m116.742 90.4.011-.184c.024-.313.625-1.094.625-1.094l-1.507-.764-.597.963c-.901.7-.917.712-.754 2.052.143 1.161-.635 1.175-.617 2.005.018.83 1.113.423 1.113.423 1.697-.778 1.838-1.17 1.786-1.958.161.223.341.352.494.256.134-.086-.134-.426-.252-1.212-.016-.118-.159-.315-.302-.488Z" fill="#ED985F"/><path d="M115.849 89.721c.966.185 2.013.11 2.013.11s2.869-8.651 3.238-9.441c.369-.79 8.522-10.144 8.522-10.144l-3.396-8.296s-8.818 14.377-9.714 16.397c-1.48 3.338-1.992 10.823-1.992 10.823s.57.407 1.329.551Z" fill="#BC3F3F"/><path d="M178.712 91.036c.008-.06.014-.12.02-.184.03-.312-.43-1.18-.43-1.18l1.616-.508.424 1.046c.77.837.795 1.01.905 2.179.109 1.165-.119.995-.455 1.13-.409.164-.814.26-1.107.315a1.908 1.908 0 0 1-1.024-.082c-.426-.162-.48-.38-.424-.675.033-.165-.111-.3-.284-.298a.13.13 0 0 1-.089-.035c-.118-.106.217-.52.467-1.278.036-.112.21-.283.381-.43Z" fill="#FFB27D"/><path d="M179.707 90.512c-.984.024-2.004-.22-2.004-.22s-1.354-8.996-1.583-9.835c-.229-.839-6.673-11.386-6.673-11.386l5.859-4.514s5.148 12.495 5.685 14.632c.89 3.532.12 10.996.12 10.996s-.631.308-1.404.327Zm2.103 48.031h3.726c.469-.249.887-.818 1.019-1.667.182-1.172 1.527-1.811 1.818-2.769.291-.958-1.2-2.307-1.2-2.307l-.25-.314-.259-.326-2.473.569s-.061.575-.099 1.307a16.407 16.407 0 0 0-.01 1.675c.072 1.277-.366 2.654-1.529 2.902-.86.184-.822.682-.743.93Zm-21.624-.001h8.521c.41-.489.259-2.289.197-2.877a10.07 10.07 0 0 0-.022-.188s-2.91-2.272-3.31-.533a2.11 2.11 0 0 1-.042.161c-.504 1.627-2.763 2.367-4.067 2.573-.848.134-1.161.564-1.277.864Z" fill="#233862"/><path d="M161.809 92.113s.441 5.38.961 11.849c.705 8.788 1.555 19.58 1.639 21.625.145 3.55.727 9.23.727 9.23s1.382 1.349 4.146.781c0 0 2.463-8.108 3.167-16.686l.032-.423c.655-8.732 1.673-27.12 1.673-27.12l-12.345.744Z" fill="#F99746"/><path d="M161.809 92.113s.441 5.38.961 11.849l9.679 14.95.032-.423c.655-8.732 1.673-27.12 1.673-27.12l-12.345.744Z" fill="#ED7D2B"/><path d="M163.828 92.752s7.964 19.488 13.201 28.647c5.238 9.158 6.874 11.714 6.874 11.714s3-1.172 3.273-1.971c0 0-2.002-17.681-5.51-21.99-1.981-2.436-4.31-9.744-4.418-12.3-.109-2.556-.71-7.615-.71-7.615l-12.71 3.515Z" fill="#F99746"/><path d="M165.811 64.341c3.112.959 8.497-1.628 8.497-1.628s-2.87-2.102-2.72-6.473l-2.406 1.893-1.634 1.285s.006.758.186 2.087c.046.349.105.739.18 1.164-1.337.717-2.103 1.672-2.103 1.672Z" fill="#FFB27D"/><path d="M167.547 59.42s.007.757.186 2.086c1.81-.303 3.865-3.16 3.865-3.16-.922-.26-1.73-.307-2.417-.212l-1.634 1.285Z" fill="#ED975D"/><path d="M166.595 59.346s5.141.834 5.624-2.3c.482-3.132 1.471-5.134-1.791-5.799-3.262-.664-4.085.438-4.507 1.444-.422 1.008-.651 6.358.674 6.655Z" fill="#FFB27D"/><path d="M161.465 92.562a.509.509 0 0 0 .327.122c1.169-.016 4.577.618 7.461.33 2.431-.229 4.583-.931 6.893-1.943.307-.134 1.013-.503.997-.837-.01-.366-.047-.898-.094-1.568-.163-2.327-.449-6.332-.171-10.952.05-.86.077-1.713.08-2.553.023-6.262-1.249-11.768-3.805-13.632-.218-.153-1.559.486-2.789 1.08-1.138.547-2.276.608-3.351.395l-1.075.928c-1.309 1.186-2.743 2.799-3.367 5.248-.53 2.083-.842 5.841-1.013 9.736a150.533 150.533 0 0 0-.157 5.234v.06c-.015.168-.015.35-.015.518-.061 4.335.001 7.772.079 7.834Z" fill="#213192"/><path d="M151.16 84.954c.058-.019.118-.038.179-.06.302-.105.914-.878.914-.878l1.154 1.215-.793.817c-.452 1.034-.46 1.053-1.827 1.254-1.186.174-.993.91-1.818 1.113-.824.203-.712-.937-.712-.937.318-1.803.668-2.04 1.461-2.2-.263-.092-.44-.227-.384-.397.048-.15.455.013 1.263-.085.122-.014.355.07.563.158Z" fill="#FFB27D"/><path d="M152.066 85.615c-.437-.861-.642-1.866-.642-1.866s7.784-4.995 8.466-5.552c.683-.558 7.758-10.712 7.758-10.712l8.294.648s-11.059 12.46-12.818 13.84c-2.905 2.277-10.161 4.746-10.161 4.746s-.552-.429-.897-1.104Z" fill="#213192"/><path d="M172.224 56.746s-.528-.085-.443-.795c.085-.71.084-1.636-.507-1.464-.591.173-.62.634-.863.365-.243-.27-.247-1.406-2.005-1.485-1.758-.079-2.472.519-3.289.168-.817-.351-.861-1.56-.861-1.56s.232.432.583.57c0 0-1.363-1.82.216-3.07 1.579-1.249 3.189-.43 4.102-.377 2.013.12 3.314.237 3.972 1.529.658 1.29.387 4.876-.905 6.12Z" fill="#2B478B"/><path d="M161.42 83.082s6.777-2.19 9.168-4.88c2.428-2.73 6.812-7.727 6.812-7.727l-.042-.165a21.318 21.318 0 0 0-1.429-3.962s-.592 3.432-2.412 5.802l-1.82 2.37s-2.996 5.02-10.277 8.562Z" fill="#233862"/></svg>