<svg width="266" height="143" fill="none" xmlns="http://www.w3.org/2000/svg"><path d="M24.829 49.696c13.594-4.994 27.982-74.903 88.369-39.948 24.016 13.9 45.781-7.678 78.896 1.517 30.413 8.444 24.036 39.53 20.896 48.614-2.677 7.74 7.628 18.75 24.788 26.617 26.916 12.341 31.396 37.968 26.478 55.964-25.428.207-242.563-.455-242.563-.455S-29.144 69.52 24.83 49.696Z" fill="#F9CD3D"/><path d="M82.03 79.926s1.193-1.475.074-2.412c0 0-.818-.525-1.485-.482 0 0 .945 1.68.64 1.846-.307.167-.926-1.95-.926-1.95s-1.862-.192-2.46.112c0 0 1.591 1.38 1.256 1.462-.335.083-2.054-1.272-2.054-1.272s-1.732.312-1.64 1.432c.093 1.12.689 1.465.951 1.435.263-.03 1.797-.65 1.83-.423.034.228-.89.972-1.536 1.007 0 0 1.22 1.427 2.032 1.015.811-.412.881-1.064 1.386-1.31.507-.245.938-.243.73.006-.21.25-1.125.492-1.415 1.035-.289.542-.548.908.291.774.84-.134 2.204-.785 2.265-1.531l.06-.744Z" fill="#82B378"/><path d="M76.285 78.692s4.704-.193 5.744 1.233c0 0 .23.73.936 1.393l.11.319s-.815-.912-1.106-.966c0 0 .456-1.766-5.684-1.98Z" fill="#82B378"/><path d="M82.965 81.32s1.01.792 1.08 2.205l-.183.018s-.323-1.462-.906-2.034c-.583-.572.009-.19.009-.19Z" fill="#82B378"/><path d="M86.203 78.071s-1.898-1.126-1.012-2.655c0 0 .708-.94 1.468-1.18 0 0-.406 2.28 0 2.333.405.053.278-2.575.278-2.575s2-1.02 2.784-.94c0 0-1.24 2.227-.836 2.173.405-.053 1.797-2.306 1.797-2.306s2.05-.403 2.379.885c.33 1.287-.202 1.93-.506 2.012-.304.08-2.252.054-2.202.322.05.268 1.367.697 2.1.456 0 0-.809 2.118-1.872 2.011-1.063-.107-1.392-.804-2.05-.858-.658-.054-1.139.134-.81.321.329.187 1.442.062 1.974.54.531.48.961.775-.026.989-.987.214-2.758.08-3.112-.724l-.354-.804Z" fill="#A8D29F"/><path d="M92.123 74.209s-5.314 1.823-5.922 3.862c0 0 .026.912-.506 1.957v.402s.557-1.368.861-1.555c0 0-1.19-1.77 5.567-4.666Z" fill="#82B378"/><path d="M85.696 80.028s-.82 1.319-.353 2.924l.211-.06s-.205-1.768.224-2.657c.429-.89-.082-.207-.082-.207Z" fill="#82B378"/><path d="M83.183 76.518s2.502-1.485 1.334-3.5c0 0-.933-1.237-1.934-1.555 0 0 .533 3.005 0 3.075-.533.071-.367-3.394-.367-3.394s-2.636-1.343-3.67-1.237c0 0 1.634 2.934 1.101 2.863-.533-.07-2.369-3.04-2.369-3.04s-2.701-.53-3.136 1.166c-.433 1.697.268 2.546.668 2.652.4.106 2.969.07 2.902.424-.067.353-1.801.92-2.769.601 0 0 1.068 2.793 2.469 2.651 1.4-.14 1.835-1.06 2.701-1.131.868-.071 1.501.177 1.068.424-.433.247-1.901.081-2.602.713-.7.63-1.267 1.02.033 1.302 1.301.283 3.637.106 4.103-.954l.468-1.06Z" fill="#A8D29F"/><path d="M75.377 71.427s7.005 2.404 7.806 5.09c0 0-.033 1.202.667 2.581v.53s-.733-1.802-1.133-2.05c-.001 0 1.567-2.332-7.34-6.151Z" fill="#82B378"/><path d="M83.85 79.099s1.08 1.739.465 3.855l-.278-.08s.27-2.33-.296-3.503c-.565-1.172.11-.272.11-.272Z" fill="#82B378"/><path d="M83.267 87.543c-2.706 0-4.9-2.324-4.9-5.193h9.802c-.001 2.868-2.195 5.194-4.901 5.194Z" fill="#F1A34F"/><path d="M82.06 87.503c.2.027.403.04.61.04 2.706 0 4.9-2.326 4.9-5.194h-1.217c0 2.65-1.872 4.837-4.292 5.154Z" fill="#FFB973"/><path d="M78.3 87.808h9.937c0-.354-.27-.64-.604-.64h-8.727c-.335-.002-.605.286-.605.64Z" fill="#F1A34F"/><path d="M78.257 82.508H88.33v-.16H78.257v.16Z" fill="#D86713"/><path d="M65.401 86.482s1.145-.403 1.698-.282c.552.121 2.268.97 2.306 1.151.038.182 0 .313 0 .313H65.4s-.894-.184-1.047-.743c-.151-.56 1.048-.439 1.048-.439Z" fill="#FFB27D"/><path d="M50.46 139.956c.03.348.213.571.502.705l.004.001c.533.248 1.427.192 2.393.054a7.54 7.54 0 0 1 .413-.048l.06-.005c.963-.067.887.247 2.727.238 2.096-.011 2.804-.76 2.9-1.079.081-.271-.837-.481-1.863-.722l-.15-.035-.41-.099c-1.224-.304-2.435-.687-2.835-1.933-.425-1.321-.325-5.241-.325-5.241h-3.712s.974 4.331.872 5.578c-.055.667-.356.856-.472 1.434a1.77 1.77 0 0 0-.022.121c-.056.337-.112.683-.082 1.031Z" fill="#AD7041"/><path d="M46.14 97.587c.313 1.864.76 3.79 1.148 5.794.623 3.222 1.094 6.643.612 10.328a13.58 13.58 0 0 0-.102 1.561c-.093 6.513 2.652 18.316 2.652 18.316s.746.341 1.996.275c.643-.034 1.63-.474 1.63-.474s.26-7.317.276-17.16c.011-7.134 1.333-16.526 1.6-22.046.161-3.34-.19-7.79-.19-7.79s-5.473-4.664-7.44-2.277c-1.94 2.359-3.355 6.5-2.183 13.473Z" fill="#415DA5"/><path d="M47.9 113.71a13.58 13.58 0 0 0-.102 1.561c4.099-6.294 5.006-20.02 5.006-20.02l-4.502 2.316s-.493 2.574-1.013 5.815c.622 3.22 1.093 6.643.611 10.328Z" fill="#355493"/><path d="M38.618 139.956c.03.348.213.571.502.705l.004.001c.533.248 1.427.192 2.393.054a7.525 7.525 0 0 1 .413-.048l.06-.005c.963-.067.887.247 2.727.238 2.096-.011 2.804-.76 2.9-1.079.081-.271-.837-.481-1.863-.722l-.15-.035-.41-.099c-1.224-.305-2.435-.688-2.835-1.933-.425-1.321.182-5.181.182-5.181l-3.439-.305s.214 4.397.112 5.645c-.056.666-.375 1.033-.49 1.611a1.77 1.77 0 0 0-.023.121c-.058.338-.114.684-.083 1.032Z" fill="#AD7041"/><path d="M39.1 133.919s.885.444 1.521.579c.637.134 1.959-.129 1.959-.129.238-2.835.793-7.266 1.869-12.267 1.226-5.694 3.05-12.421 5.595-18.792.543-1.361 2.784-7.802 3.164-9.427 1.15-4.91-.005-4.382-.005-4.382l-10.05-1.25s-1.238.675-1.809 7.61c-.17 2.076-.191 11.043-.449 12.743-.244 1.61-.528 2.948-.863 3.818-1.865 4.857-.931 21.497-.931 21.497Z" fill="#415DA5"/><path d="M38.618 139.956c.03.348.213.571.502.705l.004.001c.563.213 1.444.167 2.391.048a6.755 6.755 0 0 1 .415-.042l.06-.005c.963-.067.887.247 2.727.238 2.096-.011 2.804-.76 2.9-1.079.081-.271-.837-.481-1.863-.722-.27.142-1.561.761-3.167.595-1.412-.143-2.852-.742-3.865-.891a1.77 1.77 0 0 0-.022.121c-.057.337-.113.683-.082 1.031Zm11.84 0c.03.348.212.571.501.705l.004.001c.563.213 1.444.167 2.392.048a6.755 6.755 0 0 1 .415-.042l.06-.005c.963-.067.887.247 2.726.238 2.096-.011 2.805-.76 2.9-1.079.081-.271-.837-.481-1.863-.722-.27.142-1.562.761-3.167.595-1.411-.143-2.852-.742-3.864-.891-.01.04-.017.081-.023.121-.056.337-.111.683-.081 1.031Z" fill="#B84C42"/><path d="M54.48 56.36c.339-2.94-.527-7.64-6.06-6.889-5.533.752-7.276 6.515-6.16 9.077 1.116 2.563-1.608 3.18-2.462 5.936-.734 2.367-.99 5.307-2.178 6.626-3.83 4.253 3.678 10.793 8.204 9.413 8.244-2.512 9.306-2.887 9.013-9.752-.15-3.517-2.732-4.88-1.093-5.898 3.96-2.457-.033-1.865.736-8.514Z" fill="#2B478B"/><path d="m46.35 64.053 1.521 4.174 3.293.17 1.64-2.603c-1.86-1.495-1.781-4.356-1.69-5.355.02-.226.042-.355.042-.355l-4.118-1.329a57.224 57.224 0 0 1-.175 2.762c-.23 2.477-.513 2.536-.513 2.536Z" fill="#FFB27D"/><path d="M52.817 63.902c-.212 0-3.806-.775-9.874.87 0 0 3.324 16.137 2.195 19.179a33.641 33.641 0 0 0-1.558 5.741l12.248.16s-.171-10.44.393-14.134c.565-3.694-3.404-11.816-3.404-11.816Z" fill="#FFB27D"/><path d="M43.787 81.903c-.18 2.136-2.063 7.018-1.655 8.057.427 1.092 1.02 1.645 2.318 1.96.895.218 2.124.325 3.863.416 3.69.195 7.644-.297 8.182-2.156.258-.893.158-4.345.022-5.939-.283-3.297.31-8.03.397-11.093.07-2.554-1.383-8.367-1.383-8.367s-.656-.439-2.714-.879c0 0-.217 3.02-1.703 3.28-2.57.45-4.642-2.046-5.247-3.051 0 0-2.953.79-3.82 1.837-.82.991.303 8.334.552 9.039.216.604.42 1.194.597 1.787.468 1.564.755 3.153.59 5.109Z" fill="#7A97F3"/><path d="M33.274 86.492s-1.144-.4-1.697-.279c-.553.12-2.268.962-2.306 1.142-.038.18 0 .31 0 .31h4.004s.895-.182 1.049-.737c.15-.555-1.05-.436-1.05-.436Z" fill="#FFB27D"/><path d="M46.865 61.792c1.502-1.067 3.39-1.12 4.252-1.077.02-.226.041-.356.041-.356l-4.117-1.328a57.174 57.174 0 0 1-.176 2.76Z" fill="#E8945B"/><path d="M52.23 60.38s-4.929 1.048-5.498-2.215c-.57-3.262-1.589-5.325 1.534-6.132 3.122-.807 3.953.317 4.393 1.357.44 1.04.837 6.632-.43 6.99Z" fill="#FFB27D"/><path d="M45.778 52.249c.834-.995 2.037-1.188 2.914-1.172-.528-.68 1.599-2.168 4.03.371 1.047 1.093.888 3.244.328 4.492 0 0-.862-2.674-2.43-3.256a3.4 3.4 0 0 1-.985-.604c-.192.509-.575 1.227-1.348 2.123-1.621 1.878-1.304 5.675-1.304 5.675s-2.662-5.892-1.205-7.629Z" fill="#2B478B"/><path d="M50.693 58.774s.133.387 1.06.211c0 0 .78-.147.708-.582 0 0-.795-.218-1.768.371Z" fill="#fff"/><path d="M37.171 78.68c1.865-7.626 2.888-11.98 4.415-13.297 1.351-1.166 4.264-1.272 4.264-1.272.044.918.005 1.837-.102 2.748l3.584 7.238s1.836 3.85 2.489 8.061c.492-4.182.982-8.061.982-8.061s.462-2.475.608-4.739c-.432-1.766-.387-3.61-.59-5.456l.226.014c.707.052 2.913.29 4.038 1.27 1.527 1.328 1.87 7.165 4.415 13.413 0 0 3.084 5.494 4.065 7.674 0 0-.184.297-.552.522-.357.218-.806.303-.806.303s-5.562-5.805-5.928-6.722c-.12-.302-.793-1.36-1.628-2.918 0 0-.222 8.294.264 11.873.103.757-.24 1.505-.868 1.882-3.435 2.056-13.726 7.658-15.64 2.218-.215-.61 3.545-10.972 3.03-13.215-.165-.717-.381-2.353-.6-4.246-1.18 2.395-2.287 4.078-2.444 4.47-.365.91-5.927 6.664-5.927 6.664s-.45-.086-.807-.302c-.368-.223-.552-.518-.552-.518.98-2.158 4.064-7.605 4.064-7.605Z" fill="#E9F2FF"/><path d="m46.044 64.089 3.289 10.008-3.288-3.295.249-1.025s-.756.072-1.062-.139c-.307-.21-1.021-5.327-1.021-5.327s.67-.118.89-.146c.237-.027.943-.076.943-.076Zm6.777-.187s.693 7.912-.018 10.195c0 0 2.034-3.415 1.653-4.122l-.737-.515s1.424-.195 1.157-1.062c-.267-.867-1.41-4.382-1.41-4.382l-.645-.114Z" fill="#B2CBFD"/><path d="M90.31 142.498H11.948v-27.65l78.364-.276v27.926Zm-.025-49.69H11.879v7.136h78.406v-7.136Z" fill="#699FF0"/><path d="M10.087 92.808h81.847c1.197 0 2.168-1.029 2.168-2.297v-.549c0-1.268-.97-2.297-2.168-2.297H10.087c-1.197 0-2.167 1.029-2.167 2.297v.549c0 1.268.97 2.297 2.167 2.297Z" fill="#466AA5"/><path d="m44.19 73.907 2.26-.147a.286.286 0 0 0 .258-.31l-.062-1.072c-.01-.162-.14-.284-.292-.274l-2.261.147a.287.287 0 0 0-.258.31l.062 1.072c.009.16.14.283.292.274Z" fill="#2B478B"/><path d="m45.628 73.491.737-.048-.06-1.046-.737.048.06 1.046Zm-1.348-.698.917-.06c.068-.004.12-.067.115-.139-.003-.072-.063-.128-.13-.122l-.918.06c-.068.003-.12.066-.115.138.005.072.063.127.13.123Zm-.056.367 1.07-.07a.049.049 0 0 0 .043-.053c-.002-.028-.024-.048-.05-.046l-1.07.07a.048.048 0 0 0-.043.052c0 .027.023.048.05.047Zm.011.161 1.07-.07a.049.049 0 0 0 .044-.052c-.002-.028-.025-.049-.05-.046l-1.07.07a.049.049 0 0 0-.043.052c0 .027.023.048.05.046Z" fill="#E9F2FF"/><path d="M51.373 82.525a.366.366 0 0 0-.354-.376c-.196 0-.355.17-.355.376 0 .208.16.376.355.376a.366.366 0 0 0 .354-.376Zm0 2.363a.366.366 0 0 0-.354-.376c-.196 0-.355.169-.355.376s.16.376.355.376c.195 0 .354-.17.354-.376Z" fill="#2B478B"/><path opacity=".9" d="m89.248 114.634-76.324.272V99.944h76.324v14.69Z" fill="#AFCDFB"/><path d="m19.608 75.291 2.512 12.373h-9.793l-2.19-12.373h9.471Z" fill="#699FF0"/><path d="m19.271 75.686 2.27 11.176h-8.846l-1.978-11.175h8.554Z" fill="#fff"/><path d="M11.878 76.582h6.732c.125 0 .226.107.226.239s-.102.239-.226.239h-6.732c-.125 0-.226-.107-.226-.24a.233.233 0 0 1 .226-.238Zm.344 1.128h6.732c.124 0 .226.107.226.238 0 .132-.102.24-.226.24h-6.732c-.125 0-.226-.108-.226-.24 0-.131.102-.238.226-.238Zm.212 1.08h6.733c.124 0 .225.108.225.24 0 .131-.1.238-.225.238h-6.733c-.124 0-.225-.107-.225-.239 0-.131.102-.239.225-.239Zm.315 2.23h6.732c.125 0 .226.107.226.238 0 .132-.101.24-.226.24H12.75c-.125 0-.226-.108-.226-.24 0-.131.101-.239.226-.239Zm.341 1.126h6.733c.125 0 .226.107.226.239s-.101.239-.226.239h-6.732c-.125 0-.226-.107-.226-.24 0-.13.102-.238.226-.238Zm.216 1.081h6.732c.124 0 .225.107.225.239s-.1.239-.225.239h-6.732c-.125 0-.226-.107-.226-.24a.233.233 0 0 1 .226-.238Z" fill="#699FF0"/><path d="m23.773 82.19-.267.084 1.457 5.121.267-.085-1.457-5.12Z" fill="#A53D38"/><path d="M25.047 86.814c.5 0 .913.37.976.85H24.07a.984.984 0 0 1 .977-.85Z" fill="#B64C41"/><path d="M23.766 87.527c.374 0 .746-.066.775-.07l-.011-.068c-.373.068-1.367.17-1.479-.161-.05-.148-.003-.395.062-.738.116-.623.292-1.566.085-2.88-.162-1.029-.042-1.34.087-1.42.136-.085.318.069.32.07l.04-.053c-.008-.007-.219-.184-.392-.077-.213.133-.253.634-.118 1.49.205 1.303.03 2.238-.086 2.857-.066.353-.113.608-.058.773.074.22.426.277.775.277Z" fill="#B64C41"/><path d="M166.767 20.356h-66.023v121.862h66.023V20.356Z" fill="#B58768"/><path d="M162.051 25.556h-56.59v116.662h56.59V25.556Z" fill="#B2CBFD"/><path d="M105.457 53.794c.368 0 .665-.315.665-.704v-8.03c0-.389-.297-.704-.665-.704-.367 0-.664.316-.664.705v8.029c.001.388.298.704.664.704Zm0 69.125c.368 0 .665-.315.665-.704v-8.029c0-.389-.297-.705-.665-.705-.367 0-.664.316-.664.705v8.029c.001.389.298.704.664.704Z" fill="#466AA5"/><path d="M158.607 77.495c1.122 0 2.032-.964 2.032-2.154s-.91-2.153-2.032-2.153c-1.123 0-2.033.964-2.033 2.153 0 1.19.91 2.154 2.033 2.154Zm-2.043 17.84c0 1.189.911 2.154 2.033 2.154 1.122 0 2.032-.965 2.032-2.154 0-1.19-.91-2.154-2.032-2.154-1.122 0-2.033.964-2.033 2.154Z" fill="#699FF0"/><path d="M158.599 95.254c.439 0 .793-.376.793-.84V75.757c0-.464-.354-.84-.793-.84-.438 0-.792.376-.792.84v18.657c0 .463.354.84.792.84Z" fill="#466AA5"/><path d="m162.061 86.728 3.171-3.575s4.515-8.695 4.854-9.572c.338-.877 1.742-14.198 1.742-14.198l8.563-3.567s-4.714 17.592-5.613 19.798c-1.486 3.643-7.574 9.198-7.577 9.2-.211.474-.351.933-.289 1.238.182.893-1.187 2.576-1.48 2.63-.293.055.012-1.143.004-1.392-.008-.248-.816.153-.972.432-.155.278-1.392 3.255-2.043 2.682-.65-.572-.36-3.676-.36-3.676Z" fill="#FFB27D"/><path d="M197.14 134.297s1.603 1.574 1.29 2.693c-.312 1.118-1.758 1.864-1.954 3.231-.196 1.367-.977 2.114-1.681 2.114h-3.354s-.518-.962.733-1.253c1.251-.29 1.723-1.896 1.645-3.388-.078-1.492.118-3.48.118-3.48l2.657-.663.546.746Z" fill="#233862"/><path d="M172.043 88.725s6.419 17.056 11.795 28.569a116.186 116.186 0 0 0 2.394 4.864c5.629 10.689 7.387 13.671 7.387 13.671s3.226-1.368 3.52-2.299c0 0-2.154-20.635-5.923-25.665-.992-1.325-2.066-3.883-2.939-6.541-1.004-3.045-1.747-6.222-1.81-7.815-.117-2.982-.762-8.886-.762-8.886l-13.662 4.102Z" fill="#B74B42"/><path d="M172.045 88.725s6.419 17.056 11.796 28.569a5842.86 5842.86 0 0 1 4.438-15.969c-1.004-3.045-1.747-6.222-1.809-7.815-.117-2.982-.763-8.886-.763-8.886l-13.662 4.101Z" fill="#9E3A38"/><path d="M168.083 142.328h8.922a.76.76 0 0 0 .158-.052c.594-.314.408-2.722.336-3.468-.014-.138-.024-.218-.024-.218s-3.127-2.651-3.556-.622a2.3 2.3 0 0 1-.047.186c-.54 1.901-2.969 2.764-4.37 3.004-1.063.183-1.345.836-1.419 1.17Z" fill="#233862"/><path d="M169.877 87.98s.475 6.28 1.033 13.829c.759 10.255 1.671 22.852 1.762 25.238.156 4.144.782 10.772.782 10.772s1.485 1.575 4.457.911c0 0 2.648-9.462 3.405-19.472l.034-.495c.703-10.192 1.798-31.652 1.798-31.652l-13.271.87Z" fill="#B74B42"/><path d="M174.175 55.569c3.345 1.118 9.134-1.9 9.134-1.9s-3.085-2.453-2.923-7.555l-2.552 2.178-1.793 1.532s.009 1.046.254 2.855c.04.293.086.605.139.938-1.436.837-2.259 1.952-2.259 1.952Z" fill="#FFB27D"/><path d="M169.504 88.503a.53.53 0 0 0 .352.142c1.256-.019 4.919.72 8.019.384 1.913-.195 3.666-.687 5.443-1.4.65-.26 1.303-.55 1.966-.866.331-.157 1.09-.587 1.073-.977a53.982 53.982 0 0 0-.102-1.83c-.176-2.717-.481-7.39-.182-12.782l.023-.476a60.5 60.5 0 0 0 .061-2.504c.027-7.306-1.34-13.734-4.089-15.909-.234-.177-1.675.568-2.999 1.26-1.222.64-2.446.71-3.601.463l-1.156 1.083c-1.408 1.384-2.948 3.267-3.619 6.124-.57 2.432-.905 6.818-1.088 11.364-.084 2.06-.151 4.137-.168 6.108v.07c-.017.196-.017.408-.017.605-.067 5.056 0 9.068.084 9.14Z" fill="#213192"/><path d="M176.043 49.824s.008 1.046.253 2.855c2.606-.648 4.095-4.103 4.095-4.103l-2.557-.285-1.791 1.533Z" fill="#E8945B"/><path d="M175.019 49.74s5.526.973 6.045-2.684c.519-3.656 1.581-5.993-1.925-6.769-3.506-.776-4.391.51-4.845 1.686-.453 1.176-.699 7.42.725 7.767Z" fill="#FFB27D"/><path d="M174.295 41.973s2.334.669 3.582.702c1.248.032.92 2.033 1.23 2.131.31.098.963-.982 1.537-.276.265.327-.156 1.528-.682 1.889-.527.36.741 2.757.741 2.757s2.699-2.527 2.109-7.027c-.589-4.5-4.71-4.336-6.384-3.843-1.674.493-3.903.083-3.719 1.544.125.985.501 1.893 1.586 2.123Z" fill="#2B478B"/><path d="M183.318 87.63c.65-.26 1.303-.55 1.966-.866.331-.157 1.09-.587 1.073-.977a53.982 53.982 0 0 0-.102-1.83c-.176-2.717-.481-7.39-.182-12.782l.023-.476c-3.711-4.793-5.127-8.113-6.87-8.235 0 0-4.926 19.462 4.092 25.166Z" fill="#213192"/><path d="M181.647 56.374s7.862 9.912 8.236 18.964c0 0-1.733.75-3.53-.022-1.797-.773-9.623-12.329-9.814-13.413-.192-1.084.973-7.598 5.108-5.53Z" fill="#FFB27D"/><path d="M182.352 54.908s2.327 1.719 4.603 6.737c0 0-1.355 5.413-8.195 5.29-6.84-.124-3.292-13.226 3.592-12.027Z" fill="#213192"/><path d="M189.112 70.678s-1.47 3.486-4.611 2.864c0 0 2.179 3.064 3.931 3.019 1.752-.046 2.365-2.35.68-5.883Z" fill="#FFB27D"/><path d="M181.501 89.783s-1.136 1.345-1.428 1.096c-.292-.248.132-1.717.471-1.89.339-.172 1.205.193.957.794Z" fill="#2B478B"/><path d="M180.48 86.687s-1.767.747-1.926 1.227c-.159.48 1.754-.328 2.009-.737.255-.41-.083-.49-.083-.49Z" fill="#FFB27D"/><path d="M180.568 86.687s.99.369 1.445.94c.453.571-1.154 3.559-1.908 3.907-.754.349-1.71.162-1.889-.083-.177-.245.581-2.992 2.352-4.764Z" fill="#FFB27D"/><path d="M181.006 87.924c.856.565 2.381-1.191 5.095-4.843 2.118-2.85 3.544-5.814 3.864-8.012.246-1.69-.163-2.928-1.416-3.313-2.333-.72-5.096 5.956-6.748 10.734a92.865 92.865 0 0 0-1.277 3.975c-.162.547.025 1.156.482 1.459Z" fill="#FFB27D"/><path d="M240.481 142.398h19.302l-2.884-12.956c-.59-2.654-2.026-5.047-4.044-6.739-2.017-1.693-4.545-2.625-7.118-2.625h-25.083v5.467h14.197l5.63 16.853Z" fill="#CDF4C3"/><path d="M213.503 120.124v-.046h-9.607c-.332 0-.663.017-.992.046h-13.265c-2.573 0-5.1.932-7.118 2.625-2.018 1.693-3.454 4.086-4.045 6.74l-2.872 12.909h19.546l2.604-11.7c.618-2.775 2.799-4.83 5.414-5.153h11.552v-5.42h-1.217v-.001Z" fill="#82B378"/><path d="m178.704 142.117 2.541-11.419c.676-3.035 3.202-5.153 6.142-5.153h41.843c2.941 0 5.467 2.119 6.142 5.153l2.542 11.419h5.299l-2.82-12.675c-.591-2.654-2.027-5.047-4.044-6.739-2.018-1.693-4.546-2.625-7.119-2.625h-41.843c-2.572 0-5.1.932-7.118 2.625-2.017 1.692-3.454 4.086-4.044 6.739l-2.821 12.675h5.3Z" fill="#A8D29F"/><path d="M174.637 47.818h1.408s-.923.889-1.408 0Z" fill="#fff"/><path d="M107.446 134.547s-1.495 1.468-1.203 2.511c.291 1.043 1.64 1.738 1.822 3.012.183 1.275.912 1.97 1.567 1.97h3.129s.483-.897-.683-1.167c-1.167-.271-1.606-1.769-1.533-3.159.072-1.391-.11-3.246-.11-3.246l-2.478-.617-.511.696Zm18.624 7.44a.729.729 0 0 0 .098.036h8.367c-.073-.314-.341-.91-1.32-1.079-1.307-.225-3.571-1.03-4.076-2.8a2.804 2.804 0 0 1-.042-.175c-.402-1.892-3.317.58-3.317.58l-.022.204c-.069.694-.241 2.94.312 3.234Z" fill="#2C3A64"/><path d="M132.869 91.358s-.443 5.856-.963 12.895c-.708 9.562-1.559 21.307-1.643 23.532-.146 3.864-.73 10.044-.73 10.044s-1.384 1.468-4.155.849c0 0-2.47-8.823-3.174-18.157l-.033-.461c-.656-9.503-1.677-29.513-1.677-29.513l12.375.811Z" fill="#35488B"/><path d="M132.869 91.358s-.443 5.856-.963 12.895l-9.702 16.268-.033-.461c-.656-9.503-1.677-29.513-1.677-29.513l12.375.811Z" fill="#2C3A64"/><path d="M130.846 92.054s-7.983 21.208-13.231 31.174c-5.249 9.967-6.889 12.748-6.889 12.748s-3.007-1.275-3.281-2.144c0 0 2.007-19.24 5.522-23.93 1.986-2.65 4.32-10.604 4.429-13.385.109-2.781.711-8.286.711-8.286l12.739 3.823Z" fill="#35488B"/><path d="M152.149 71.814c-.355-.409-.973-.62-.973-.62s-12.534-.566-12.931-1.133c-.309-.44-2.195-5.027-3.02-7.051a36.23 36.23 0 0 0-.843-1.907l-2.215-4.636-3.673-.136c-.893 1.358-1.757 2.934-1.822 4.033-.153 2.548 8.344 17.536 11.476 17.326 2.919-.195 14.789-4.646 14.789-4.646s-.417-.802-.788-1.23Z" fill="#E9F2FF"/><path d="M127.769 54.555c-2.973.994-8.121-1.69-8.121-1.69s2.321-1.845 2.581-5.674c.004-.053.008-.105.009-.159a9.94 9.94 0 0 0 .01-.884l.814.695 3.047 2.604s-.156 1.283-.219 3.422c.483.281.87.591 1.163.867.484.454.716.819.716.819Z" fill="#F4AC75"/><path d="M116.348 52.456s7.861-1.315 13.04 2.32c0 0 3.519 24.378.455 26.684-3.064 2.306-13.495 0-13.495 0V52.456Z" fill="#F4AC75"/><path d="M126.839 107.685h-14.206s1.65-25.69 2.122-31.943c.382-5.073 1.193-17.234 1.485-21.65l.108-1.637 3.391-.613 5.826 8.001s.921 21.337.888 24.7c-.033 3.363.367 16.467.386 18.671.019 2.203 0 4.471 0 4.471Z" fill="#E9F2FF"/><path d="m125.566 59.844 1.274 47.841h6.693s-.31-31.465-.332-34.356c-.023-2.891.727-15.344-1.362-17.277-1.745-1.615-5.947-3.184-5.947-3.184l-.326 6.976Z" fill="#E9F2FF"/><path d="M125.935 51.765s1.908 1.393 1.836 1.893c-.072.5-.333 1.291-.333 1.291l-1.167-.251.985.734s-1.117 3.451-1.69 4.413l.369-8.08Z" fill="#E9F2FF"/><path opacity=".2" d="M115.44 66.015c.836-5.441 10.489 2.6 9.686 9.737-1.484 13.204-7.806 27.926-12.493 31.935l2.807-41.672Z" fill="#B2CBFD"/><path d="M122.228 47.19c-.012-.098-.042-.146-.042-.146l.052-.013.824-.19 3.047 2.605s-.133 1.213-.227 3.428c-.008-.011-3.14-1.848-3.654-5.684Z" fill="#C97C47"/><path d="M127.35 50.237s-5.305-.157-5.162-3.657c.144-3.5-.445-5.877 2.949-5.924 3.393-.048 3.996 1.317 4.216 2.498.22 1.18-.62 7.034-2.003 7.083Z" fill="#F4AC75"/><path d="M122.189 47.044s.691.194 1.237-.58c.547-.773 1.46-3.75 2.663-3.942 1.204-.193 2.791.754 3.303.214.746-.79 1.707-2.08 1.707-2.08s-5.969-4.511-8.353-2.424c-2.383 2.086-3.217 5.14-.557 8.812Zm7.162 12.498c-.112-2.167-1.228-5.699-1.238-5.732l.319.15c.04.141.928 3.365 1.041 5.578l-.122.004Zm-7.726 6.474c-.112-.124-2.842-2.907-2.261-4.857.228-.76.646-1.059 1.089-1.28.413-.16 1.378-.326 1.877.006.91.607 1.368 2.284 1.502 5.072l-.11.006c-.161-3.307-.965-4.504-1.566-4.775-.756-.34-2.081-.199-2.499 1.082-.288.882.277 2.117.799 2.963a24.539 24.539 0 0 0 1.221 1.782h-.052Z" fill="#2C3A64"/><path d="M121.908 66.316a.26.26 0 0 1-.381 0l-.187-.198a.298.298 0 0 1 0-.404.26.26 0 0 1 .381 0l.187.199a.297.297 0 0 1 0 .403Zm1.881-.828c-.148 0-.269-.129-.269-.285v-.28c0-.157.121-.286.269-.286.147 0 .269.129.269.285v.28c0 .158-.122.286-.269.286Z" fill="#B64C41"/><path d="M128.658 59.543c0-.428.327-.773.73-.773.403 0 .729.345.729.773 0 .427-.326.773-.729.773-.403 0-.73-.347-.73-.773Z" fill="#2C3A64"/><path d="M129.047 59.543c0-.218.166-.394.371-.394s.371.176.371.394a.382.382 0 0 1-.371.393.384.384 0 0 1-.371-.393Z" fill="#D6716B"/><path d="M126.083 107.686c-.005-.049-.464-4.867-.332-9.056.056-1.77.009-3.85-.037-5.862-.065-2.87-.211-5.634.008-7.436.374-3.084.299-17.102.145-18.622-.149-1.48-.006-3.106.133-3.595.14-.5-.465-3.233-.471-3.261l.071-.02c.028.115.681 2.807.534 3.327-.137.485-.342 2.07-.194 3.541.154 1.52.448 15.536.073 18.624-.218 1.796-.291 4.573-.226 7.44.045 2.013.093 4.095.037 5.867-.132 4.184.538 9.005.542 9.054h-.283v-.001Z" fill="#B2CBFD"/><path d="M122.785 71.223s.286.618.253 1.173c-.034.58-.29 1.456-.29 1.456s-11.097 2.503-13.253.41c-2.315-2.246 1.981-19.127 3.819-20.778.791-.713 2.462-1.147 4.004-1.407a30.538 30.538 0 0 1 3.288-.365l-.251.98-.973 3.812-1.135 4.446s-3.393 7.4-3.501 8.094c-.107.696 8.039 2.18 8.039 2.18Z" fill="#E9F2FF"/><path opacity=".2" d="M124.333 58.661s-2.83-1.305-4.864-2.495c-1.328-.777-2.007-2.232-2.147-4.09.85-.144 1.661-.234 2.264-.29.098.034.156.056.156.056l.618.849 3.973 5.97Z" fill="#B2CBFD"/><path d="m125.565 59.845-4.407-8.908s-1.644.353-2.197.902c0 0 .281 2.678.499 3.272 0 0 .851-.103.973-.026 0 0-.413.67-.536.747.001 0 3.833 1.893 5.668 4.013Z" fill="#E9F2FF"/><path d="M120.466 60.187c-.301-.706-2.955-6.713-2.28-8.242l.259-.034c-.512 1.158 1.328 6.38 2.127 8.251l-.106.025Z" fill="#2C3A64"/><path opacity=".5" d="M126.314 65.388c0-.207.159-.375.354-.375.195 0 .354.168.354.375a.365.365 0 0 1-.354.375.365.365 0 0 1-.354-.375Zm0 21.007c0-.207.159-.374.354-.374.195 0 .354.167.354.374s-.159.375-.354.375c-.195 0-.354-.168-.354-.375Zm.18-9.601c0-.207.158-.375.354-.375.195 0 .353.168.353.375s-.158.375-.353.375a.364.364 0 0 1-.354-.375Zm0 18.729c0-.207.158-.375.354-.375.195 0 .353.168.353.375s-.158.374-.353.374a.365.365 0 0 1-.354-.374Z" fill="#B2CBFD"/><path d="M122.578 53.81s1.226.64 3.209.244l-.222 5.792-2.987-6.036Z" fill="#7A97F3"/><path d="M122.199 71.59s1.99-.928 2.903-.657c.912.271 2.142.465 2.238.812.096.348-.656 1.636-1.775 1.7-1.119.065-3.089.62-3.564 0-.474-.618.198-1.855.198-1.855Z" fill="#F4AC75"/><path opacity=".2" d="M132.98 59.543c.418 3.07.218 13.37.218 13.37l1.333 1.954c.701-3.109-1.551-15.324-1.551-15.324Z" fill="#B2CBFD"/><path d="M150.512 71.418s1.822-1.26 2.763-1.15c.941.11 1.595.393 1.744.72.149.326.193 1.421-.901 1.679-1.095.257-2.952 1.144-3.516.616-.563-.53-.09-1.865-.09-1.865Z" fill="#F4AC75"/><path d="M126.604 48.269s1.173.043 1.675.283c0 0-.818.661-1.675-.283Z" fill="#fff"/></svg>