<svg width="260" height="158" fill="none" xmlns="http://www.w3.org/2000/svg"><g clip-path="url(#a)"><path d="M247.994 157.137H21.188S-9.58 128.143 9.995 94.031C29.57 59.92 55.862 77.075 54.589 37.371 53.317-2.332 115.055-5.744 134.707 5.768c19.652 11.513 19.533 25.377 60.101 20.79 40.569-4.588 48.319 33.654 37.764 53.144-.762 1.406-1.43 2.899-1.897 4.44-6.919 22.885 47.014 25.934 17.319 72.995Z" fill="#F9CD3D"/><path d="M226.272 65.627h-17.256c-.792 0-1.44-.623-1.44-1.385V48.225c0-.763.649-1.385 1.44-1.385h17.256c.792 0 1.44.623 1.44 1.385v16.017c0 .763-.649 1.385-1.44 1.385Z" fill="#9FC1F4"/><path d="M225.523 64.814h-15.76c-.724 0-1.316-.569-1.316-1.265V48.92c0-.697.593-1.266 1.316-1.266h15.76c.724 0 1.316.57 1.316 1.266v14.63c0 .696-.593 1.265-1.316 1.265Z" fill="#F0F6FF"/><path d="M217.227 49.368c0-.221.186-.4.416-.4.231 0 .417.178.417.4a.409.409 0 0 1-.417.401.408.408 0 0 1-.416-.4Zm3.365.567a.426.426 0 0 1 .567-.156.393.393 0 0 1 .161.546.426.426 0 0 1-.567.155.393.393 0 0 1-.161-.545Zm2.884 2.203a.427.427 0 0 1 .577.12.392.392 0 0 1-.124.555.427.427 0 0 1-.577-.12.392.392 0 0 1 .124-.555Zm1.429 3.411c.231 0 .417.18.417.4a.409.409 0 0 1-.417.402.41.41 0 0 1-.417-.401.409.409 0 0 1 .417-.401Zm-.73 3.957a.392.392 0 0 1 0 .567.43.43 0 0 1-.59 0 .39.39 0 0 1 0-.567.43.43 0 0 1 .59 0Zm-2.62 2.526a.39.39 0 0 1 0 .567.428.428 0 0 1-.589 0 .39.39 0 0 1 0-.567.428.428 0 0 1 .589 0Zm-4.328 1.302c0-.222.186-.4.416-.4.231 0 .417.178.417.4a.408.408 0 0 1-.417.401.408.408 0 0 1-.416-.4Zm-2.545-13.399a.426.426 0 0 0-.567-.156.393.393 0 0 0-.162.546.426.426 0 0 0 .567.155.393.393 0 0 0 .162-.545Zm-2.884 2.203a.427.427 0 0 0-.577.12.391.391 0 0 0 .125.555c.193.12.452.067.576-.12a.391.391 0 0 0-.124-.555Zm-1.428 3.411a.41.41 0 0 0-.417.4.41.41 0 0 0 .417.402.41.41 0 0 0 .417-.401.408.408 0 0 0-.417-.401Zm.731 3.957a.39.39 0 0 0 0 .567.428.428 0 0 0 .589 0 .39.39 0 0 0 0-.567.428.428 0 0 0-.589 0Zm2.617 2.526a.39.39 0 0 0 0 .567.428.428 0 0 0 .589 0 .39.39 0 0 0 0-.567.428.428 0 0 0-.589 0Zm3.813-6.082a.41.41 0 0 1 .417-.402.41.41 0 0 1 .417.401.409.409 0 0 1-.417.401.41.41 0 0 1-.417-.4Z" fill="#9FC1F4"/><path d="M218.004 50.938h-.113v5.011h.113v-5.011Z" fill="#9FC1F4"/><path d="m220.545 53.717-2.762 2.086.211.258 2.762-2.086-.211-.258Z" fill="#9FC1F4"/><path d="M226.167 139.567s-2.87-3.22-.176-5.267c0 0 1.967-1.145 3.571-1.053 0 0-2.273 3.666-1.538 4.031.736.364 2.227-4.261 2.227-4.261s4.476-.417 5.917.248c0 0-3.827 3.013-3.021 3.192.805.179 4.94-2.777 4.94-2.777s4.166.683 3.944 3.127c-.222 2.444-1.658 3.199-2.288 3.134-.631-.065-4.322-1.42-4.403-.923-.08.498 2.142 2.122 3.697 2.199 0 0-2.938 3.115-4.89 2.216-1.952-.899-2.118-2.325-3.336-2.859-1.217-.535-2.256-.533-1.753.012.504.546 2.705 1.076 3.401 2.259.697 1.184 1.321 1.982-.699 1.691-2.02-.293-5.303-1.714-5.447-3.342l-.146-1.627Z" fill="#77A4E5"/><path d="M239.982 136.874s-11.316-.42-13.816 2.693c0 0-.552 1.592-2.253 3.042l-.265.695s1.961-1.988 2.663-2.108c0-.002-1.098-3.858 13.671-4.322Z" fill="#77A4E5"/><path d="M223.914 142.608s-2.429 1.727-2.598 4.814l.441.038s.776-3.192 2.178-4.44c1.401-1.248-.021-.412-.021-.412Zm-7.781-7.092s4.565-2.458 2.435-5.796c0 0-1.705-2.049-3.531-2.577 0 0 .974 4.977 0 5.094-.974.117-.67-5.621-.67-5.621s-4.808-2.225-6.696-2.049c0 0 2.983 4.86 2.009 4.743-.974-.117-4.322-5.036-4.322-5.036s-4.931-.878-5.721 1.933c-.792 2.81.486 4.215 1.217 4.39.731.176 5.418.117 5.296.703-.122.586-3.287 1.522-5.053.996 0 0 1.948 4.624 4.505 4.39 2.556-.234 3.348-1.756 4.931-1.873 1.583-.117 2.739.292 1.948.702-.792.41-3.47.134-4.748 1.18-1.278 1.045-2.313 1.689.061 2.157 2.374.468 6.635.176 7.487-1.581l.852-1.755Z" fill="#77A4E5"/><path d="M201.889 127.086s12.783 3.981 14.244 8.43c0 0-.061 1.991 1.217 4.274v.878s-1.339-2.985-2.07-3.395c0 0 2.862-3.864-13.391-10.187Z" fill="#77A4E5"/><path d="M217.349 139.791s1.972 2.88.848 6.385l-.507-.132s.492-3.86-.54-5.802c-1.031-1.941.199-.451.199-.451Z" fill="#77A4E5"/><path d="M223.396 132.125s-6.018-3.241-3.21-7.639c0 0 2.247-2.701 4.655-3.396 0 0-1.284 6.56 0 6.715 1.284.154.883-7.409.883-7.409s6.338-2.932 8.826-2.701c0 0-3.932 6.406-2.649 6.251 1.285-.155 5.698-6.637 5.698-6.637s6.499-1.158 7.542 2.547c1.043 3.704-.641 5.557-1.605 5.788-.963.231-7.141.155-6.981.927.161.771 4.333 2.006 6.661 1.312 0 0-2.569 6.096-5.938 5.788-3.371-.309-4.413-2.315-6.5-2.47-2.086-.155-3.611.386-2.568.926 1.043.541 4.574.178 6.26 1.555 1.685 1.378 3.048 2.227-.081 2.845-3.129.617-8.746.231-9.87-2.084l-1.123-2.318Z" fill="#9FC1F4"/><path d="M242.173 121.012s-16.852 5.247-18.777 11.112c0 0 .08 2.624-1.605 5.635v1.157s1.766-3.936 2.728-4.476c.001 0-3.771-5.093 17.654-13.428Z" fill="#9FC1F4"/><path d="M221.79 137.759s-2.598 3.796-1.117 8.416l.669-.173s-.649-5.089.71-7.648c1.361-2.56-.262-.595-.262-.595Z" fill="#9FC1F4"/><path d="M223.193 156.193c6.511 0 11.789-5.076 11.789-11.338h-23.578c0 6.262 5.279 11.338 11.789 11.338Z" fill="#9FC1F4"/><path d="M226.094 156.106c-.479.058-.968.087-1.464.087-6.511 0-11.788-5.076-11.788-11.338h2.929c-.001 5.785 4.503 10.558 10.323 11.251Z" fill="#AFCDFB"/><path d="M235.251 144.855h-24.233v.349h24.233v-.349Zm-8.587 10.625h-7.488v1.294h7.488v-1.294Z" fill="#9FC1F4"/><path d="M197.939 22.165H98.951v17.13h98.988v-17.13Z" fill="#213192"/><path d="M126.443 27.84h1.024l3.369 4.182v-4.181h1.087v6.047h-.925l-3.468-4.302v4.302h-1.087v-6.047Zm9.325-.043h1.024l2.767 6.091h-1.168l-.637-1.46h-2.974l-.646 1.46h-1.132l2.766-6.09Zm1.581 3.69-1.086-2.42-1.078 2.42h2.164Zm4.024-2.661h-1.994v-.985h5.102v.985h-1.994v5.062h-1.114v-5.062Zm4.176 2.496v-3.481h1.104v3.439c0 1.122.603 1.727 1.59 1.727.979 0 1.582-.57 1.582-1.685v-3.481h1.104v3.43c0 1.805-1.06 2.712-2.703 2.712-1.634 0-2.677-.907-2.677-2.66Zm6.898-3.482h2.803c1.473 0 2.335.761 2.335 1.927 0 .994-.62 1.59-1.499 1.832l1.698 2.29h-1.303l-1.563-2.108h-1.365v2.107h-1.105v-6.047h-.001Zm2.722 2.998c.791 0 1.294-.397 1.294-1.028 0-.648-.484-1.002-1.302-1.002h-1.608v2.03h1.616Zm6-3.041h1.024l2.767 6.091h-1.168l-.638-1.46h-2.973l-.647 1.46h-1.132l2.767-6.09Zm1.581 3.69-1.087-2.42-1.078 2.42h2.165Zm3.287-3.647h1.105v5.081h3.305v.968h-4.41v-6.048Zm-44.871 4.62s-5.549 2.101-6.37-.072c-.821-2.173 6.37.071 6.37.071s-.119-.33 0 0Z" fill="#F9DDBF"/><path d="M116.637 29.364c.793-1.868 4.532 3.093 4.532 3.093s-5.324-1.226-4.532-3.093Zm57.896 3.422s3.675-4.517 5.529-3.045c1.854 1.473-5.529 3.045-5.529 3.045s.278.227 0 0Z" fill="#F9DDBF"/><path d="M180.069 33.245c.301 1.997-5.538-.456-5.538-.456s5.236-1.54 5.538.456Z" fill="#F9DDBF"/><path d="M196.409 42.836H99.553v105.655h96.856V42.836Z" fill="#C2DBFF"/><path d="M192.675 68.684h-89.388V47.572h89.388v21.112Zm0 25.363h-89.388V72.935h89.388v21.112Zm0 25.363h-89.388V98.297h89.388v21.113Zm0 25.363h-89.388V123.66h89.388v21.113Z" fill="#DDE7FE"/><path d="M127.139 65.897h-2.709v2.828h2.709v-2.828Z" fill="#CC6A27"/><path d="m124.431 65.898-.98-10.478h4.612l-.924 10.478h-2.708Z" fill="#F99746"/><path d="m123.393 54.737.062.688 4.607-.004.01-.74-4.679.056Z" fill="#CC6A27"/><path d="M121.964 52.815h-10.032v15.872h10.032V52.815Z" fill="#AEC3FF"/><path d="M119.105 54.876h-7.16v2.801h7.16v-2.801Z" fill="#F99746"/><path d="M186.356 65.919h-2.71v2.827h2.71V65.92Z" fill="#163560"/><path d="m183.648 65.92-.98-10.479h4.61l-.922 10.478h-2.708Z" fill="#8C9DF4"/><path d="m182.609 54.757.063.689 4.607-.005.009-.74-4.679.056Z" fill="#667CD8"/><path d="M185.52 58.469h-1.192v4.061h1.192v-4.06Z" fill="#F9DDBF"/><path d="M181.18 52.835h-10.032v15.872h10.032V52.835Z" fill="#AEC3FF"/><path d="M178.322 54.897h-7.16v2.8h7.16v-2.8Z" fill="#F99746"/><path d="m138.128 94.037-4.719.01c-.918.002-1.665-.712-1.667-1.596l-.029-12.469c-.002-.883.741-1.6 1.66-1.603l4.719-.01c.918-.002 1.665.712 1.667 1.596l.029 12.468c.002.884-.742 1.602-1.66 1.604Z" fill="#FFA561"/><path d="m137.53 78.37-3.596.008-.002-.799a.538.538 0 0 1 .548-.529l2.497-.006a.54.54 0 0 1 .551.528l.002.799Z" fill="#163560"/><path d="m137.914 81.918-4.26.009.018 7.422 4.26-.01-.018-7.421Z" fill="#F9DDBF"/><path d="M135.542 88.744h-.004c-.012-.001-.019-.011-.018-.023.364-2.873.794-4.93 1.212-5.791l.019-.04a.022.022 0 0 1 .026-.013.021.021 0 0 1 .014.025c-.003.01-.01.023-.021.044-.417.859-.846 2.912-1.209 5.78-.001.01-.009.017-.019.018Z" fill="#FFA561"/><path d="M137.095 82.724c-.05.097-.354.311-.382.297-.028-.014-.034-.375.017-.472a.208.208 0 0 1 .274-.09c.1.05.141.168.091.265Zm-.593.369c.052.1.046.47.016.484-.029.014-.339-.205-.39-.304a.198.198 0 0 1 .094-.27.214.214 0 0 1 .28.09Z" fill="#FFA561"/><path d="M137.01 83.655c-.113.026-.486-.063-.494-.094-.008-.03.283-.272.396-.298a.21.21 0 0 1 .253.15.2.2 0 0 1-.155.242Zm-1.158 1.411c.104.157.165.775.118.804-.047.03-.606-.282-.711-.438a.33.33 0 0 1 .106-.467.36.36 0 0 1 .487.1Z" fill="#FFA561"/><path d="M136.805 85.914c-.182.063-.823-.02-.842-.07-.018-.05.422-.505.606-.567a.354.354 0 0 1 .449.205.335.335 0 0 1-.213.432Zm-1.329-.084c.17.161.415.884.368.93-.048.046-.803-.18-.971-.34a.4.4 0 0 1-.004-.584.44.44 0 0 1 .607-.005Z" fill="#FFA561"/><path d="M136.818 86.925c-.23.055-.999-.123-1.015-.186-.016-.064.58-.564.81-.618a.432.432 0 0 1 .521.304.414.414 0 0 1-.316.5Zm-1.491-.153c.17.16.415.883.368.93-.048.046-.802-.18-.971-.34a.403.403 0 0 1-.004-.585.44.44 0 0 1 .607-.005Z" fill="#FFA561"/><path d="M136.67 87.867c-.231.054-1-.124-1.015-.187-.017-.063.579-.563.81-.617a.432.432 0 0 1 .521.304.414.414 0 0 1-.316.5Zm-1.816.137c.22.087.734.664.708.724-.025.06-.813.129-1.033.042a.41.41 0 0 1-.235-.54.436.436 0 0 1 .56-.226Z" fill="#FFA561"/><path d="M136.558 88.793c-.222.083-1.007-.001-1.032-.063-.024-.061.502-.628.724-.71a.435.435 0 0 1 .556.239.41.41 0 0 1-.248.534Zm-.256-5.086c.052.101.047.477.016.492-.03.014-.344-.208-.397-.309a.201.201 0 0 1 .095-.274.217.217 0 0 1 .286.091Z" fill="#FFA561"/><path d="M136.803 84.286c-.115.027-.494-.063-.502-.094-.008-.031.288-.278.402-.304a.213.213 0 0 1 .257.151.203.203 0 0 1-.157.247Zm-.751.001c.086.138.125.671.083.695-.041.023-.514-.256-.601-.393a.284.284 0 0 1 .102-.399.309.309 0 0 1 .416.097Z" fill="#FFA561"/><path d="M136.84 85.099c-.163.037-.701-.09-.713-.135-.011-.045.409-.394.572-.431a.303.303 0 0 1 .365.215.292.292 0 0 1-.224.35Zm19.009 34.3-4.719.011c-.919.002-1.665-.712-1.667-1.596l-.029-12.469c-.002-.883.74-1.601 1.659-1.603l4.72-.01c.918-.002 1.664.712 1.666 1.595l.03 12.469c.001.884-.742 1.602-1.66 1.603Z" fill="#FFA561"/><path d="m155.25 103.734-3.596.007-.002-.799a.54.54 0 0 1 .548-.529l2.497-.006a.539.539 0 0 1 .55.527l.003.8Z" fill="#163560"/><path d="m155.635 107.28-4.26.01.018 7.422 4.26-.01-.018-7.422Z" fill="#F9DDBF"/><path d="M153.263 114.107h-.004a.02.02 0 0 1-.019-.022c.364-2.873.795-4.93 1.213-5.792l.018-.04a.023.023 0 0 1 .027-.013c.011.004.017.015.014.025-.003.01-.01.023-.021.045-.417.858-.847 2.911-1.209 5.78-.001.01-.01.016-.019.017Z" fill="#FFA561"/><path d="M154.814 108.088c-.05.097-.354.311-.382.297-.029-.014-.035-.375.016-.473a.21.21 0 0 1 .275-.088c.1.048.142.166.091.264Zm-.593.369c.051.1.046.47.016.484-.029.014-.34-.205-.391-.304a.2.2 0 0 1 .094-.271.213.213 0 0 1 .281.091Z" fill="#FFA561"/><path d="M154.729 109.018c-.113.026-.487-.062-.494-.094-.008-.031.283-.272.396-.299a.21.21 0 0 1 .253.149.202.202 0 0 1-.155.244Zm-1.159 1.41c.105.158.166.776.119.805-.047.029-.606-.282-.711-.439a.33.33 0 0 1 .106-.467.36.36 0 0 1 .486.101Z" fill="#FFA561"/><path d="M154.526 111.276c-.183.064-.823-.019-.842-.069-.018-.05.422-.505.605-.567a.354.354 0 0 1 .45.204.335.335 0 0 1-.213.432Zm-1.33-.083c.169.161.415.883.367.93-.049.046-.803-.18-.972-.34a.404.404 0 0 1-.004-.586.444.444 0 0 1 .609-.004Z" fill="#FFA561"/><path d="M154.539 112.288c-.23.055-1-.124-1.015-.187-.017-.063.58-.563.81-.617a.432.432 0 0 1 .521.304.413.413 0 0 1-.316.5Zm-1.491-.152c.17.16.415.883.368.929-.048.046-.802-.179-.971-.34a.4.4 0 0 1-.004-.584.437.437 0 0 1 .607-.005Z" fill="#FFA561"/><path d="M154.391 113.229c-.231.055-1-.123-1.016-.186-.016-.064.58-.564.811-.617a.43.43 0 0 1 .52.303.413.413 0 0 1-.315.5Zm-1.817.137c.22.087.734.665.707.725-.025.06-.813.128-1.033.041a.407.407 0 0 1-.235-.539.438.438 0 0 1 .561-.227Z" fill="#FFA561"/><path d="M154.277 114.156c-.222.082-1.008-.002-1.032-.063-.025-.062.502-.629.724-.71a.436.436 0 0 1 .556.239.41.41 0 0 1-.248.534Zm-.255-5.086c.053.101.047.478.017.492-.03.014-.345-.208-.398-.309a.202.202 0 0 1 .095-.274.217.217 0 0 1 .286.091Z" fill="#FFA561"/><path d="M154.524 109.649c-.115.026-.495-.063-.502-.094-.008-.032.288-.278.402-.304a.213.213 0 0 1 .257.151.205.205 0 0 1-.157.247Zm-.751.001c.086.138.124.671.083.695-.041.023-.514-.256-.601-.393a.284.284 0 0 1 .102-.399.31.31 0 0 1 .416.097Z" fill="#FFA561"/><path d="M154.561 110.461c-.163.038-.701-.089-.713-.134-.011-.045.409-.394.572-.432a.304.304 0 0 1 .365.216.29.29 0 0 1-.224.35Z" fill="#FFA561"/><path d="m174.532 94.037-4.719.01c-.918.002-1.664-.712-1.666-1.596l-.03-12.469c-.002-.883.741-1.6 1.66-1.603l4.719-.01c.918-.002 1.665.712 1.667 1.596l.029 12.468c.001.884-.741 1.602-1.66 1.604Z" fill="#8C9DF4"/><path d="m173.934 78.37-3.596.008-.002-.799a.538.538 0 0 1 .547-.529l2.498-.006a.54.54 0 0 1 .55.528l.003.799Z" fill="#163560"/><path d="m174.317 81.918-4.26.009.017 7.422 4.261-.01-.018-7.421Z" fill="#AEC3FF"/><path d="M171.945 88.744h-.004a.02.02 0 0 1-.019-.022c.364-2.873.795-4.93 1.212-5.792l.019-.04a.023.023 0 0 1 .027-.013c.01.004.016.015.013.026-.003.01-.01.022-.02.044-.417.858-.847 2.911-1.21 5.78 0 .009-.009.016-.018.017Z" fill="#8C9DF4"/><path d="M173.499 82.724c-.05.097-.353.311-.382.297-.028-.014-.034-.375.017-.472a.208.208 0 0 1 .274-.09c.101.05.142.168.091.265Zm-.595.369c.052.1.046.47.017.484-.03.014-.34-.205-.391-.304a.198.198 0 0 1 .094-.27.214.214 0 0 1 .28.09Z" fill="#8C9DF4"/><path d="M173.413 83.654c-.112.026-.486-.062-.493-.093-.008-.031.284-.273.396-.298a.208.208 0 0 1 .252.149.2.2 0 0 1-.155.242Zm-1.157 1.412c.105.157.166.775.118.804-.047.03-.606-.282-.711-.438a.33.33 0 0 1 .106-.467.36.36 0 0 1 .487.1Z" fill="#8C9DF4"/><path d="M173.209 85.914c-.182.063-.823-.02-.841-.07-.019-.05.422-.505.605-.567a.354.354 0 0 1 .449.205.334.334 0 0 1-.213.432Zm-1.329-.084c.17.161.415.884.368.93-.047.046-.802-.18-.971-.34a.4.4 0 0 1-.004-.584.44.44 0 0 1 .607-.005Z" fill="#8C9DF4"/><path d="M173.223 86.925c-.231.055-1-.123-1.016-.186-.016-.064.58-.564.811-.618a.43.43 0 0 1 .52.304.412.412 0 0 1-.315.5Zm-1.491-.153c.169.16.415.883.368.93-.048.046-.803-.18-.971-.34a.4.4 0 0 1-.004-.585.441.441 0 0 1 .607-.005Z" fill="#8C9DF4"/><path d="M173.074 87.867c-.23.054-.999-.124-1.015-.187-.016-.063.58-.563.81-.617a.432.432 0 0 1 .521.304.412.412 0 0 1-.316.5Zm-1.816.137c.22.087.734.664.707.724-.025.06-.813.129-1.033.042a.409.409 0 0 1-.236-.54.439.439 0 0 1 .562-.226Z" fill="#8C9DF4"/><path d="M172.961 88.793c-.222.082-1.008-.002-1.032-.063-.025-.062.502-.629.723-.71a.437.437 0 0 1 .557.238.41.41 0 0 1-.248.535Zm-.257-5.086c.052.101.047.477.017.492-.03.014-.345-.208-.398-.309a.202.202 0 0 1 .095-.274.216.216 0 0 1 .286.091Z" fill="#8C9DF4"/><path d="M173.209 84.286c-.114.027-.494-.063-.502-.094-.008-.031.289-.278.402-.304a.213.213 0 0 1 .257.151.204.204 0 0 1-.157.247Zm-.753.001c.087.138.125.671.084.695-.042.023-.514-.256-.602-.393a.284.284 0 0 1 .102-.399.309.309 0 0 1 .416.097Z" fill="#8C9DF4"/><path d="M173.245 85.099c-.163.037-.702-.09-.714-.135-.01-.045.41-.394.572-.431a.303.303 0 0 1 .365.215.29.29 0 0 1-.223.35Zm-6.086 34.351-4.719.01c-.918.002-1.664-.712-1.666-1.596l-.03-12.469c-.002-.883.741-1.601 1.66-1.602l4.719-.011c.918-.002 1.665.713 1.667 1.596l.029 12.468c.002.885-.741 1.602-1.66 1.604Z" fill="#8C9DF4"/><path d="m166.561 103.784-3.596.008-.002-.8a.539.539 0 0 1 .548-.529l2.498-.005a.538.538 0 0 1 .55.526l.002.8Z" fill="#163560"/><path d="m166.946 107.331-4.26.009.017 7.422 4.26-.009-.017-7.422Z" fill="#AEC3FF"/><path d="M164.573 114.157h-.003a.02.02 0 0 1-.019-.023c.364-2.872.794-4.929 1.212-5.791l.019-.04a.022.022 0 0 1 .026-.013c.011.004.017.015.014.025-.003.01-.01.023-.02.045-.417.858-.847 2.911-1.21 5.78a.02.02 0 0 1-.019.017Z" fill="#8C9DF4"/><path d="M166.126 108.138c-.05.097-.353.311-.382.297-.028-.014-.034-.375.017-.472a.208.208 0 0 1 .274-.089c.1.049.141.167.091.264Zm-.593.369c.052.1.046.47.017.484-.03.014-.34-.205-.391-.304a.197.197 0 0 1 .094-.27.212.212 0 0 1 .28.09Z" fill="#8C9DF4"/><path d="M166.041 109.068c-.112.027-.486-.062-.494-.093-.008-.031.284-.273.396-.299a.209.209 0 0 1 .253.149.201.201 0 0 1-.155.243Zm-1.158 1.412c.105.158.166.776.118.805-.047.028-.606-.282-.711-.439a.33.33 0 0 1 .106-.467.358.358 0 0 1 .487.101Z" fill="#8C9DF4"/><path d="M165.838 111.327c-.182.063-.823-.02-.841-.07-.019-.05.421-.505.605-.567a.355.355 0 0 1 .449.205.335.335 0 0 1-.213.432Zm-1.331-.082c.17.16.415.883.368.929-.048.046-.802-.179-.971-.339a.4.4 0 0 1-.004-.585.44.44 0 0 1 .607-.005Z" fill="#8C9DF4"/><path d="M165.852 112.339c-.231.055-1-.123-1.016-.186-.015-.064.58-.564.81-.617a.432.432 0 0 1 .521.303.413.413 0 0 1-.315.5Zm-1.492-.153c.169.161.415.883.367.93-.048.046-.803-.18-.972-.34a.402.402 0 0 1-.003-.585.442.442 0 0 1 .608-.005Z" fill="#8C9DF4"/><path d="M165.703 113.281c-.23.054-.999-.124-1.015-.187-.017-.063.58-.563.81-.617a.431.431 0 0 1 .521.304.414.414 0 0 1-.316.5Zm-1.817.137c.22.087.734.664.708.724-.026.061-.814.129-1.033.042a.41.41 0 0 1-.236-.54.436.436 0 0 1 .561-.226Z" fill="#8C9DF4"/><path d="M165.589 114.207c-.221.082-1.007-.002-1.032-.063-.024-.061.503-.628.724-.71a.437.437 0 0 1 .557.239.409.409 0 0 1-.249.534Zm-.256-5.086c.053.101.047.478.016.492-.03.014-.344-.208-.397-.309a.2.2 0 0 1 .095-.274.216.216 0 0 1 .286.091Z" fill="#8C9DF4"/><path d="M165.836 109.701c-.114.026-.494-.064-.502-.095-.008-.031.289-.277.402-.303a.213.213 0 0 1 .257.151.203.203 0 0 1-.157.247Zm-.751 0c.086.138.125.67.084.695-.042.023-.514-.255-.602-.393a.284.284 0 0 1 .102-.399.31.31 0 0 1 .416.097Z" fill="#8C9DF4"/><path d="M165.874 110.513c-.163.037-.702-.09-.714-.135-.01-.045.409-.394.572-.431a.302.302 0 0 1 .365.215.293.293 0 0 1-.223.351Z" fill="#8C9DF4"/><path d="M125.593 94.047h-12.852c-.917 0-1.661-.715-1.661-1.597v-3.317c0-.882.744-1.597 1.661-1.597h12.852c.917 0 1.661.715 1.661 1.597v3.317c0 .882-.744 1.597-1.661 1.597Z" fill="#FFA561"/><path d="m123.394 87.524-8.453.019-.002-.783c-.001-.507.425-.917.951-.92l6.548-.013c.525-.001.953.408.955.914l.001.783Z" fill="#163560"/><path d="M124.248 89.547h-10.164v1.784h10.164v-1.784Z" fill="#F9DDBF"/><path d="M162.646 94.047h-12.852c-.918 0-1.661-.715-1.661-1.597v-3.317c0-.882.743-1.597 1.661-1.597h12.852c.917 0 1.66.715 1.66 1.597v3.317c0 .882-.743 1.597-1.66 1.597Z" fill="#8C9DF4"/><path d="m160.447 87.524-8.453.019-.002-.783c-.001-.507.425-.917.951-.92l6.547-.013c.526-.001.954.408.956.914l.001.783Z" fill="#163560"/><path d="M161.301 89.547h-10.164v1.784h10.164v-1.784Z" fill="#F9DDBF"/><path d="m150.402 144.763-4.72.011c-.918.002-1.664-.713-1.666-1.597l-.03-12.468c-.002-.883.741-1.601 1.66-1.603l4.719-.01c.918-.002 1.665.712 1.667 1.596l.029 12.468c.001.883-.741 1.601-1.659 1.603Z" fill="#8C9DF4"/><path d="m149.803 129.097-3.596.008-.002-.799a.538.538 0 0 1 .547-.529l2.498-.006a.539.539 0 0 1 .55.526l.003.8Z" fill="#163560"/><path d="m150.188 132.644-4.26.009.017 7.422 4.261-.009-.018-7.422Z" fill="#AEC3FF"/><path d="M147.816 139.471h-.004a.02.02 0 0 1-.019-.023c.364-2.872.795-4.929 1.212-5.791l.019-.04a.023.023 0 0 1 .027-.013c.01.004.016.015.013.025a.317.317 0 0 1-.02.045c-.417.858-.847 2.911-1.21 5.78a.021.021 0 0 1-.018.017Z" fill="#8C9DF4"/><path d="M149.368 133.452c-.05.097-.353.311-.382.297-.028-.014-.034-.376.017-.473a.209.209 0 0 1 .274-.089.194.194 0 0 1 .091.265Zm-.593.368c.052.099.046.47.017.484-.03.014-.34-.205-.391-.304a.196.196 0 0 1 .094-.269.21.21 0 0 1 .28.089Z" fill="#8C9DF4"/><path d="M149.284 134.382c-.113.026-.487-.063-.495-.094-.008-.031.284-.272.397-.299a.211.211 0 0 1 .253.149.203.203 0 0 1-.155.244Zm-1.159 1.41c.105.158.166.776.119.805-.047.029-.607-.282-.712-.439a.33.33 0 0 1 .106-.467.36.36 0 0 1 .487.101Z" fill="#8C9DF4"/><path d="M149.08 136.64c-.182.064-.823-.019-.841-.069-.019-.05.422-.505.605-.567a.353.353 0 0 1 .449.204.335.335 0 0 1-.213.432Zm-1.329-.083c.17.161.415.884.368.93-.048.046-.802-.179-.971-.34a.4.4 0 0 1-.004-.585.44.44 0 0 1 .607-.005Z" fill="#8C9DF4"/><path d="M149.094 137.652c-.231.055-1-.124-1.016-.187-.016-.063.58-.563.811-.617a.432.432 0 0 1 .521.304.414.414 0 0 1-.316.5Zm-1.491-.152c.17.16.415.883.368.929-.048.047-.803-.179-.971-.339a.4.4 0 0 1-.004-.585.439.439 0 0 1 .607-.005Z" fill="#8C9DF4"/><path d="M148.945 138.594c-.23.055-.999-.123-1.015-.187-.016-.063.58-.563.81-.617a.433.433 0 0 1 .521.304.414.414 0 0 1-.316.5Zm-1.816.137c.22.086.734.664.707.725-.025.06-.813.128-1.033.041a.41.41 0 0 1-.236-.539.436.436 0 0 1 .562-.227Z" fill="#8C9DF4"/><path d="M148.832 139.52c-.222.082-1.008-.002-1.032-.064-.025-.061.502-.628.724-.709a.435.435 0 0 1 .556.239.41.41 0 0 1-.248.534Zm-.257-5.086c.053.101.047.477.017.491-.03.014-.345-.207-.397-.308a.202.202 0 0 1 .094-.275.217.217 0 0 1 .286.092Z" fill="#8C9DF4"/><path d="M149.079 135.013c-.115.026-.495-.063-.503-.095-.008-.031.289-.277.403-.303a.213.213 0 0 1 .257.151.205.205 0 0 1-.157.247Zm-.752.001c.087.137.125.67.084.694-.041.024-.514-.256-.602-.392a.284.284 0 0 1 .102-.399.31.31 0 0 1 .416.097Z" fill="#8C9DF4"/><path d="M149.116 135.825c-.163.038-.702-.089-.713-.135-.011-.044.409-.393.571-.431a.303.303 0 0 1 .365.215.289.289 0 0 1-.223.351Zm-10.601 8.948h-12.852c-.917 0-1.661-.715-1.661-1.597v-3.317c0-.882.744-1.597 1.661-1.597h12.852c.917 0 1.661.715 1.661 1.597v3.317c0 .882-.744 1.597-1.661 1.597Z" fill="#8C9DF4"/><path d="m136.317 138.25-8.454.018-.002-.783c-.001-.506.425-.917.951-.919l6.548-.014c.525-.001.953.408.955.914l.002.784Z" fill="#163560"/><path d="M137.17 140.272h-10.164v1.784h10.164v-1.784Z" fill="#F9DDBF"/><path d="M124.125 112.007H111.75v7.403h12.375v-7.403Z" fill="#8C9DF4"/><path d="M124.603 111.729h-13.378v1.113h13.378v-1.113Z" fill="#163560"/><path d="M121.948 114.585h-8.358v2.023h8.358v-2.023Z" fill="#F9DDBF"/><path d="M142.903 112.007h-12.376v7.403h12.376v-7.403Z" fill="#FFA561"/><path d="M143.38 111.729h-13.378v1.113h13.378v-1.113Z" fill="#163560"/><path d="M140.726 114.585h-8.359v2.023h8.359v-2.023Z" fill="#F9DDBF"/><path d="M133.465 104.326H121.09v7.403h12.375v-7.403Z" fill="#FFA561"/><path d="M133.942 104.048h-13.378v1.112h13.378v-1.112Z" fill="#163560"/><path d="M131.288 106.905h-8.358v2.022h8.358v-2.022Z" fill="#F9DDBF"/><path d="M170.022 137.37h-12.376v7.402h12.376v-7.402Z" fill="#8C9DF4"/><path d="M170.499 137.093h-13.378v1.112h13.378v-1.112Z" fill="#163560"/><path d="M167.845 139.949h-8.359v2.022h8.359v-2.022Z" fill="#F9DDBF"/><path d="M188.797 137.37h-12.375v7.402h12.375v-7.402Z" fill="#FFA561"/><path d="M189.274 137.093h-13.378v1.112h13.378v-1.112Z" fill="#163560"/><path d="M186.62 139.949h-8.358v2.022h8.358v-2.022Z" fill="#F9DDBF"/><path d="M179.36 129.689h-12.376v7.403h12.376v-7.403Z" fill="#FFA561"/><path d="M179.837 129.411h-13.378v1.112h13.378v-1.112Z" fill="#163560"/><path d="M177.183 132.268h-8.359v2.023h8.359v-2.023Z" fill="#F9DDBF"/><path d="M178.515 117.303h-3.286v-9.056c0-.413.348-.748.777-.748h1.73c.429 0 .778.335.778.748v9.056h.001Z" fill="#FFA561"/><path d="M177.749 119.41h-1.754c-.423 0-.766-.33-.766-.737v-1.37h3.286v1.37c0 .407-.344.737-.766.737Z" fill="#163560"/><path d="M177.46 110.574h-1.179v3.16h1.179v-3.16Z" fill="#fff"/><path d="M185.745 117.303h-3.286v-9.056c0-.413.348-.748.778-.748h1.729c.43 0 .778.335.778.748v9.056h.001Z" fill="#8C9DF4"/><path d="M184.979 119.41h-1.754c-.423 0-.766-.33-.766-.737v-1.37h3.286v1.37c0 .407-.342.737-.766.737Z" fill="#163560"/><path d="M184.692 110.574h-1.18v3.16h1.18v-3.16Z" fill="#fff"/><path d="M111.36 142.682h-3.286v-9.056c0-.414.348-.749.778-.749h1.729c.43 0 .778.335.778.749v9.056h.001Z" fill="#FFA561"/><path d="M110.594 144.788h-1.754c-.422 0-.766-.33-.766-.736v-1.37h3.286v1.37c0 .406-.342.736-.766.736Z" fill="#163560"/><path d="M110.306 135.952h-1.179v3.161h1.179v-3.161Z" fill="#fff"/><path d="M118.591 142.682h-3.286v-9.056c0-.414.348-.749.778-.749h1.729c.43 0 .778.335.778.749v9.056h.001Z" fill="#8C9DF4"/><path d="M117.827 144.788h-1.754c-.423 0-.766-.33-.766-.736v-1.37h3.286v1.37c-.001.406-.344.736-.766.736Z" fill="#163560"/><path d="M117.538 135.952h-1.179v3.161h1.179v-3.161Z" fill="#fff"/><path d="M145.294 64.097c0 1.495-.642 2.844-1.675 3.808-.32.3-.677.561-1.065.778h-5.552a5.489 5.489 0 0 1-1.118-.828 5.188 5.188 0 0 1-1.622-3.758c0-2.93 2.469-5.304 5.516-5.304 3.045 0 5.516 2.374 5.516 5.304Z" fill="#FFA561"/><path d="M143.619 67.855h-7.734v.827h7.734v-.827Z" fill="#E58848"/><path d="M142.123 59.303h-4.721v-.837c0-.46.388-.831.865-.831h3.044c.449 0 .812.349.812.78v.888Z" fill="#163560"/><path d="M142.482 62.53h-5.453v1.208h5.453V62.53Z" fill="#F9DDBF"/><path d="M163.919 64.098c0 1.494-.642 2.843-1.675 3.808-.32.299-.677.56-1.065.777h-5.552a5.485 5.485 0 0 1-1.118-.827 5.189 5.189 0 0 1-1.622-3.758c0-2.93 2.469-5.305 5.515-5.305 3.047 0 5.517 2.375 5.517 5.305Z" fill="#8C9DF4"/><path d="M162.244 67.856h-7.734v.827h7.734v-.828Z" fill="#707FE5"/><path d="M160.748 59.303h-4.721v-.837c0-.459.388-.83.865-.83h3.044c.449 0 .812.348.812.78v.887Z" fill="#163560"/><path d="M161.109 62.53h-5.453v1.208h5.453v-1.207Z" fill="#F9DDBF"/><path d="m107.544 148.491-1.461 7.672c-.061.318.193.611.53.611.437 0 .832-.252 1.001-.64l3.347-7.644h-3.417v.001Zm-80.044 0-1.46 7.672a.525.525 0 0 0 .53.611c.438 0 .832-.252 1.002-.64l3.347-7.644H27.5v.001Zm158.359 0 1.461 7.672a.525.525 0 0 1-.53.611c-.438 0-.832-.252-1.002-.64l-3.347-7.644h3.418v.001Zm-97.569 0 1.461 7.672c.061.318-.193.611-.53.611-.437 0-.831-.252-1.001-.64l-3.347-7.644h3.418v.001Z" fill="#77A4E5"/><path d="M93.878 95.664h-71.73v53.101h71.73V95.664Z" fill="#C2DBFF"/><path d="M90.626 98.297H25.4v21.113h65.226V98.297Zm0 25.097H25.4v21.113h65.226v-21.113Z" fill="#DDE7FE"/><path d="m63.874 106.445-1.952.004 1.487-.003-.002-.661a.446.446 0 0 0-.455-.435l-2.066.004a.446.446 0 0 0-.453.438l.002.66-.465.001c-.76.002-1.374.596-1.372 1.326l.024 10.313c.002.73.62 1.321 1.378 1.319l3.904-.008c.759-.002 1.374-.595 1.372-1.326l-.025-10.312c0-.73-.617-1.322-1.377-1.32Zm9.356.041-.465.001-.002-.66a.446.446 0 0 0-.456-.436l-2.065.005a.444.444 0 0 0-.454.438l.002.66 1.487-.003-1.951.004c-.76.002-1.375.595-1.373 1.325l.025 10.313c.002.73.619 1.322 1.378 1.32l3.903-.009c.76-.001 1.374-.595 1.372-1.325l-.024-10.313c-.001-.73-.618-1.321-1.377-1.32Zm-27.84 1.14h.396v-.92H34.72v.92h.434v5.433h-8.158v.92h.435v5.432h10.236v-5.432h.394v-.92h4.465v.92h.435v5.432h10.236v-5.432h.395v-.92h-8.201v-5.433Zm36.62 1.933h-1.431a.632.632 0 0 0-.643.619v8.624a.62.62 0 0 0 .633.609h1.451c.35 0 .634-.272.634-.609v-8.624a.633.633 0 0 0-.645-.619Zm5.98 0h-1.43a.632.632 0 0 0-.644.619v8.624c0 .337.284.609.634.609H88c.35 0 .634-.272.634-.609v-8.624a.633.633 0 0 0-.644-.619Zm-36.235 21.984 1.952.003-1.487-.002.002-.661a.447.447 0 0 1 .455-.436l2.066.005a.445.445 0 0 1 .453.438l-.002.66.465.001c.76.002 1.375.595 1.373 1.326l-.025 10.312c-.002.73-.619 1.322-1.378 1.32l-3.903-.008c-.76-.002-1.374-.596-1.373-1.326l.025-10.313c.001-.731.618-1.321 1.377-1.319Zm-9.353.041.465.001.002-.66a.446.446 0 0 1 .455-.436l2.066.004a.446.446 0 0 1 .453.438l-.002.661-1.487-.003 1.952.004c.76.001 1.374.595 1.372 1.325l-.024 10.313c-.002.73-.62 1.321-1.379 1.32l-3.903-.009c-.759-.002-1.374-.595-1.372-1.325l.025-10.313c0-.73.617-1.322 1.377-1.32Zm27.838 1.14h-.395v-.921h11.066v.921h-.435v5.432h8.16v.921H88.2v5.432H77.965v-5.432h-.396v-.921h-4.464v.921h-.436v5.432H62.434v-5.432h-.395v-.921h8.202v-5.432Zm-36.617 1.933h1.43c.355 0 .644.277.644.619v8.624a.622.622 0 0 1-.634.609h-1.45a.622.622 0 0 1-.635-.609v-8.624c0-.342.289-.619.645-.619Zm-5.983 0h1.43c.356 0 .644.277.644.619v8.624a.622.622 0 0 1-.633.609H27.63a.622.622 0 0 1-.634-.609v-8.624a.633.633 0 0 1 .645-.619Z" fill="#BED1F4"/><path d="M126.47 58.469h-1.404v4.061h1.404v-4.06Z" fill="#F9DDBF"/><path d="M90.129 60.49s.655-1.658 1.309-2.26c.655-.601 2.971-1.868 4.37-1.459 1.399.408.934 1.725 0 2.741-.933 1.017-3.755 2.766-3.755 2.766L90.13 60.49Z" fill="#FFB27D"/><path d="M57.69 54.065c-.486-.934 10.584-4.298 10.76 4.922 0 0 20.735-.51 10.834-12.048-3.428-3.996-3.075-7.298-2.972-10.373.104-3.075-2.135-12.013-9.811-11.113 0 0-2.01-.816-4.518.483-5.704 2.955-18.484 31.529-4.293 28.13Z" fill="#163560"/><path d="M42.949 146.062s-2.324 2.117-1.87 3.622c.453 1.505 2.55 2.506 2.833 4.345.283 1.839 1.416 2.842 2.437 2.842h4.863s.751-1.293-1.063-1.683c-1.813-.39-2.497-2.55-2.383-4.556.113-2.006-.17-4.681-.17-4.681l-3.854-.891-.793 1.002Zm19.667.897s-.834 9.079.187 9.58H75.97s-.115-1.64-2.211-1.975c-2.097-.334-5.78-1.56-6.404-4.291-.625-2.728-4.74-3.314-4.74-3.314Z" fill="#325284"/><path d="M68.81 40.143s.53.694 1.587.645c.852-.04 1.18-.778 1.18-.778s-1.565-.376-2.766.133Z" fill="#EBF3FA"/><path d="m73.759 71.89-7.6 2.267-2.41-.59-2.296-.562-4.56-1.114s-.886-.296-1.67-2.105c-.15-.341-.417-1.386-.698-2.618a73.612 73.612 0 0 1-.813-4.109c-.265-1.67-.798-3.746-1.262-5.986v-.001c-.341-1.638-.645-3.361-.78-5.075a4.307 4.307 0 0 1 3.825-4.62l2.544-.28c6.77-.642 14.223 1.028 14.223 1.028s2.178 3.258 3.569 8.688c1.391 5.43-2.072 15.078-2.072 15.078Z" fill="#8C9DF4"/><path d="m61.453 73.007-4.56-1.115s-.886-.295-1.67-2.104c-.15-.342-.417-1.386-.698-2.619 0 0 1.42-5.644 2.062-5.529.644.117.725 3.808 2.034 5.966 1.31 2.158 4.11 4.64 2.832 5.4Z" fill="#707FE5"/><path d="M73.277 73.356s3.764 11.696 4.005 15.68c.242 3.982-7.195 56.573-7.494 58.408-.281 1.731-2.433 2.833-2.433 2.833s-.99.583-2.402.185c-1.96-.552-2.578-1.213-2.578-1.213s-2.93-37.508-1.117-50.907c1.813-13.398 1.835-24.985 1.835-24.985h10.184v-.001Z" fill="#EA8B49"/><path d="M57.33 73.006s-5.742 7.692-6.277 12.891c-.535 5.2-.84 23.463-1.98 28.531-1.141 5.068-5.33 14.822-5.33 30.631 0 0 .434.905 1.779 1.388.43.154 1.006.304 1.566.432a2.463 2.463 0 0 0 2.753-1.305c2.832-5.693 11.855-24.058 12.318-27.87.328-2.698 3.176-20.552 9.39-31.03 1.493-2.515-.915-12.517-.915-12.517l-13.305-1.15Z" fill="#FFA561"/><path d="M73.876 71.549s-1.51 1.194-4.513 1.253c-3.585.072-12.47-.912-12.47-.912s-.395 1.1-.379 2.264c0 0 10.851 2.733 17.138.399 0 0 .812-1.523.224-3.004Z" fill="#233862"/><path d="M68.59 74.038c0-1.02.734-1.849 1.635-1.849.903 0 1.637.83 1.637 1.85s-.734 1.849-1.637 1.849c-.902 0-1.635-.83-1.635-1.85Zm.542 0c0 .72.49 1.308 1.093 1.308.604 0 1.094-.587 1.094-1.308 0-.72-.49-1.306-1.094-1.306-.603 0-1.093.586-1.093 1.306Z" fill="#fff"/><path d="M92.077 64.35s-3.996 6.74-8.251 6.718a4.28 4.28 0 0 1-.956-.12c-2.517-.584-5.478-3.202-7.422-5.172-1.264-1.282-2.098-2.292-2.098-2.292l-5.893-16.582s5.376.44 8.174 2.91c2.797 2.47 8.442 14.262 8.958 13.672.135-.154 5.426-4.108 5.865-3.973.001 0 2.13 1.539 1.623 4.839Z" fill="#8C9DF4"/><path d="m64.219 95.102-15.356-2.48a2.776 2.776 0 0 1-2.3-3.183l1.335-8.237a2.78 2.78 0 0 1 3.188-2.296l15.356 2.48a2.776 2.776 0 0 1 2.3 3.183l-1.335 8.237a2.78 2.78 0 0 1-3.188 2.296Z" fill="#163560"/><path d="m57.638 87.086-.018-.008-10.005-4.262.064-.148 9.985 4.253 10.82-.893.013.161-10.859.897Z" fill="#8C9DF4"/><path d="m58.255 86.115-1.03-.166-.413 2.548 1.03.166.413-2.548Z" fill="#FFA561"/><path d="M51.222 80.016a1.089 1.089 0 1 1 .885-1.724c.171.235.239.523.193.81-.09.533-.553.914-1.078.914Zm-.002-1.852a.761.761 0 0 0-.755.641.765.765 0 1 0 .879-.632.902.902 0 0 0-.124-.01Zm14.683 4.224a1.083 1.083 0 0 1-.886-.452 1.082 1.082 0 0 1-.193-.81 1.089 1.089 0 1 1 1.079 1.262Zm-.758-1.21a.754.754 0 0 0 .135.569.76.76 0 0 0 .499.307.757.757 0 0 0 .57-.135.765.765 0 1 0-1.204-.742Z" fill="#163560"/><path d="M62.49 48.632c-.598-.37-1.227-1.15-.848-2.212.457-1.278.822-3.166.813-5.532l.343.068 5.786 1.143s-.131 1.818-.135 3.531v.043c-.007 1.487.273 2.92-.402 3.377-.629.427-2.648 1.377-5.557-.418Z" fill="#FFB27D"/><path d="M68.587 42.102s-.132 1.819-.135 3.532c-3.238-.092-4.95-3.04-5.651-4.675l5.786 1.143Z" fill="#E8945B"/><path d="M69.67 43.722s-7.662.126-7.668-4.638c-.006-4.765-.997-7.956 3.894-8.239 4.892-.282 5.844 1.535 6.233 3.125.388 1.59-.468 9.597-2.46 9.752Z" fill="#FFB27D"/><path d="M69.383 30.73s-2.097 5.589-5.316 6.416c-3.22.826-4.616-.035-4.616-.035s2.47-1.958 2.981-5.376c.002-.002 5.37-3.666 6.951-1.006Z" fill="#163560"/><path d="M68.863 31.182s1.556.581 2.196 1.713c.626 1.108 1.159 2.574 1.035 4.374 0 0 1.58-3.8-.196-5.948-1.882-2.278-3.035-.139-3.035-.139Z" fill="#163560"/><path d="M68.17 40.894s.133.562 1.531.475c0 0 1.175-.072 1.139-.69 0 0-1.139-.439-2.67.215Z" fill="#fff"/><path d="M61.793 82.754s2.067.032 3.663-.416c1.595-.449 3.564.728 3.692 1.808.138 1.159-2.318.336-4.227 1.6-.883.586-2.58-.67-2.58-.67l-.548-2.322Z" fill="#FFB27D"/><path d="M63.836 82.64s1.55-1.204 1.803-1.032c.413.28-.61 1.025-.61 1.025l-1.193.008Z" fill="#FFB27D"/><path d="M65.505 80.472c-.04-.237-3.888-23.587-7.89-33.272a.356.356 0 0 1 .191-.463l.005-.003a.734.734 0 0 1 .97.4c1.647 4.114 3.436 10.799 5.325 19.894 1.486 7.154 2.48 13.207 2.49 13.267l-1.091.177Z" fill="#0C2442"/><path d="M52.31 49.384s-8.742 13.253-6.74 25.562c.797 4.908 16.172 11.36 16.172 11.36s.655-.086.799-1.72c.107-1.225-.494-1.844-.494-1.844s-9.235-8.118-9.194-10.552c.013-.775 5.889-16.285 5.889-16.285l-6.433-6.521Z" fill="#8C9DF4"/><path d="m98.373 65.715-4.058-.502a1.439 1.439 0 0 1-1.253-1.604l1.381-11.13a1.44 1.44 0 0 1 1.607-1.251l4.058.502a1.44 1.44 0 0 1 1.253 1.604l-1.382 11.13a1.44 1.44 0 0 1-1.606 1.25Z" fill="#6385DB"/><path d="m99.626 51.668-3.093-.383.088-.713a.475.475 0 0 1 .53-.413l2.148.265c.261.032.446.27.414.53l-.087.714Z" fill="#163560"/><path d="m99.556 54.878-3.663-.454-.823 6.625 3.664.454.822-6.625Z" fill="#DDE7FE"/><path d="M96.747 60.712h-.003c-.01-.002-.016-.012-.013-.021.637-2.524 1.24-4.314 1.697-5.038a1.11 1.11 0 0 0 .02-.033.019.019 0 0 1 .024-.009.02.02 0 0 1 .01.024.245.245 0 0 1-.023.038c-.455.721-1.056 2.506-1.692 5.027a.024.024 0 0 1-.02.012Z" fill="#163560"/><path d="M98.762 55.508c-.054.081-.338.24-.362.224-.023-.016.012-.338.067-.42a.178.178 0 0 1 .246-.05.178.178 0 0 1 .05.246Zm-.55.265c.033.094-.014.424-.04.433-.028.009-.27-.22-.302-.313a.181.181 0 0 1 .341-.12Z" fill="#163560"/><path d="M98.585 56.33c-.1.01-.41-.11-.413-.138-.004-.029.274-.213.374-.224a.18.18 0 0 1 .2.16c.01.1-.062.191-.161.201Zm-1.156 1.132c.072.153.055.71.011.731-.043.02-.489-.316-.56-.469a.305.305 0 0 1 .549-.261Z" fill="#163560"/><path d="M98.153 58.324c-.163.036-.705-.107-.715-.154-.01-.047.419-.405.584-.44a.304.304 0 1 1 .132.594Zm-1.133-.218c.127.161.256.832.21.869-.045.036-.668-.247-.797-.408a.372.372 0 1 1 .587-.461Z" fill="#163560"/><path d="M98.051 59.228c-.205.024-.845-.219-.852-.277-.007-.058.561-.44.767-.463a.372.372 0 1 1 .085.74Zm-1.264-.298c.127.16.257.832.211.869-.046.036-.669-.247-.797-.409a.372.372 0 1 1 .586-.46Z" fill="#163560"/><path d="M97.817 60.051c-.205.024-.845-.218-.852-.277-.007-.058.561-.439.766-.463a.372.372 0 1 1 .086.74Zm-1.577-.073c.18.1.556.672.528.723-.029.052-.714.027-.892-.074a.372.372 0 1 1 .365-.65Z" fill="#163560"/><path d="M97.616 60.866c-.2.05-.866-.111-.88-.168-.013-.057.503-.507.703-.555a.373.373 0 1 1 .177.723Zm.354-4.566c.032.095-.015.43-.042.44-.028.009-.273-.224-.306-.32a.184.184 0 0 1 .347-.12Z" fill="#163560"/><path d="M98.336 56.871c-.101.011-.418-.11-.42-.138-.003-.029.278-.216.38-.228.1-.011.192.062.203.162a.187.187 0 0 1-.163.204Zm-.646-.081c.058.131.03.612-.007.629-.038.017-.413-.284-.471-.415a.261.261 0 0 1 .478-.214Z" fill="#163560"/><path d="M98.276 57.6c-.145.016-.594-.157-.598-.198-.005-.041.396-.307.54-.323a.26.26 0 0 1 .289.231.26.26 0 0 1-.231.29Z" fill="#163560"/><path d="M82.87 70.95c-2.515-.585-5.477-3.202-7.42-5.173 0 0 .86-5.255.71-6.466-.145-1.185 2.847 9.656 6.71 11.639Z" fill="#707FE5"/><path d="M91.438 58.23s2.373-1.817 2.71-2.276c.338-.46.307.5 0 1.137-.306.64-.89 1.4-.951 2.582-.062 1.183-1.382.816-1.382.816l-.377-2.259Z" fill="#FFB27D"/></g><defs><clipPath id="a"><path fill="#fff" d="M0 0h260v157.5H0z"/></clipPath></defs></svg>