<svg width="24" height="28" fill="none" xmlns="http://www.w3.org/2000/svg"><path d="M22.001 19.16v3.375c.002.313-.056.623-.167.91a2.265 2.265 0 0 1-.48.757 1.967 1.967 0 0 1-.712.474c-.264.1-.543.137-.82.11-3.078-.377-6.034-1.56-8.63-3.455-2.417-1.727-4.465-4.031-6-6.75-1.69-2.934-2.742-6.276-3.07-9.753a2.515 2.515 0 0 1 .096-.921c.089-.296.231-.568.418-.799.187-.23.415-.415.67-.541.253-.126.528-.192.805-.192h3c.486-.005.956.188 1.324.544.368.356.608.85.676 1.391.127 1.08.362 2.14.7 3.161.135.403.164.84.084 1.261-.08.421-.265.807-.534 1.113l-1.27 1.429c1.424 2.816 3.497 5.148 6 6.75l1.27-1.429c.272-.302.616-.51.99-.6a1.79 1.79 0 0 1 1.12.094c.908.38 1.85.645 2.81.787.486.077.93.353 1.247.774.317.42.486.958.473 1.51Z" stroke="#213192" stroke-width="2" stroke-linecap="round" stroke-linejoin="round"/></svg>