<svg width="80" height="80" fill="none" xmlns="http://www.w3.org/2000/svg"><circle cx="40" cy="40" r="40" fill="url(#a)"/><path d="M16.266 53.15s11.197 14.386 14.193 17.173c3.477 3.235 9.317-1.31 7.973-4.501-1.343-3.191-13.266-14.415-13.266-14.415l-8.9 1.743Z" fill="#213192"/><path d="M20.946 38.714 55.22 13.57l10.703 36.143-41.71 3.323-3.267-14.322Z" fill="#F9CD3D"/><path d="M66.549 50.183c2.082-.642 1.215-9.45-1.937-19.673-3.152-10.223-7.396-17.99-9.478-17.348-2.083.642-1.215 9.45 1.937 19.673 3.152 10.223 7.395 17.99 9.478 17.348Z" fill="#213192"/><path d="M66.446 48.828c-.447-.241-1.602-1.35-3.305-4.612-1.646-3.153-3.32-7.383-4.717-11.912-1.397-4.53-2.395-8.969-2.81-12.5-.43-3.655-.1-5.222.134-5.673.447.241 1.602 1.35 3.305 4.612 1.646 3.152 3.321 7.383 4.718 11.912 1.396 4.53 2.394 8.969 2.81 12.5.43 3.655.1 5.222-.135 5.673Z" fill="#FFC815"/><path d="M14.518 39.847c1.741-.766 4.307-1.64 7.304-1.862.563 5.103 2.251 10.083 4.921 14.955l-7.895 2.434a2.677 2.677 0 0 1-3.194-1.379c-1.162-2.371-2.935-6.413-3.46-9.936a3.963 3.963 0 0 1 2.324-4.212Z" fill="#152274"/><path d="m20.394 42.077-6.151 1.897a.58.58 0 0 1-.583-.141.58.58 0 0 1-.155-.58.166.166 0 0 1 .318.09.253.253 0 0 0 .068.253c.068.066.163.09.254.061l6.152-1.896a.256.256 0 0 0 .169-.32l-.135-.439a.257.257 0 0 0-.32-.17l-6.197 1.911a.166.166 0 0 1-.098-.316l6.197-1.911a.588.588 0 0 1 .734.388l.136.438a.588.588 0 0 1-.389.735Zm.294 2.896-6.152 1.897a.58.58 0 0 1-.583-.141.58.58 0 0 1-.155-.58.166.166 0 0 1 .318.09.252.252 0 0 0 .068.253c.068.066.163.09.254.062l6.152-1.897a.256.256 0 0 0 .17-.32l-.136-.439a.257.257 0 0 0-.32-.17l-6.197 1.912a.166.166 0 0 1-.098-.317l6.197-1.91a.588.588 0 0 1 .734.388l.136.438a.588.588 0 0 1-.388.734Z" fill="#91B3FA"/><path d="M26.224 36.02a.165.165 0 0 1-.143-.293l26.214-18.215a.165.165 0 1 1 .189.272L26.269 35.998a.158.158 0 0 1-.045.023Zm-3.438 2.817a.165.165 0 0 1-.154-.286l1.308-1.073a.165.165 0 1 1 .21.256l-1.307 1.073a.164.164 0 0 1-.057.03Z" fill="#213192"/><path d="m22.218 47.993-6.15 1.897a.579.579 0 0 1-.584-.142.58.58 0 0 1-.155-.58.166.166 0 0 1 .318.09.253.253 0 0 0 .068.253c.068.067.163.09.254.062l6.152-1.897a.257.257 0 0 0 .17-.32l-.136-.439a.257.257 0 0 0-.32-.169l-6.198 1.911a.166.166 0 0 1-.097-.317l6.197-1.91a.588.588 0 0 1 .734.388l.136.438a.589.589 0 0 1-.389.735Zm1.668 3.367-6.151 1.897a.578.578 0 0 1-.583-.142.58.58 0 0 1-.155-.58.166.166 0 0 1 .318.09.253.253 0 0 0 .068.253c.068.067.163.09.254.062l6.152-1.897a.256.256 0 0 0 .17-.32l-.136-.438a.257.257 0 0 0-.32-.17l-6.198 1.911a.166.166 0 0 1-.097-.317l6.197-1.91a.588.588 0 0 1 .734.388l.135.438a.588.588 0 0 1-.388.735Zm11.432 17.564a4.165 4.165 0 0 1-.884.17 4.142 4.142 0 0 1-3.491-1.401l-8.282-9.406a.166.166 0 1 1 .248-.218l8.282 9.405a3.815 3.815 0 0 0 3.215 1.29 3.736 3.736 0 0 0 2.895-1.772 7.48 7.48 0 0 0 .1-.168.166.166 0 0 1 .286.167l-.105.175a4.048 4.048 0 0 1-2.264 1.758ZM21.61 56.947a.165.165 0 0 1-.173-.049l-.924-1.05a.166.166 0 0 1 .248-.218l.924 1.05a.166.166 0 0 1-.075.267Z" fill="#91B3FA"/><defs><linearGradient id="a" x1="6.846" y1="77.879" x2="78.798" y2="-1.095" gradientUnits="userSpaceOnUse"><stop stop-color="#6076FF"/><stop offset="1" stop-color="#B7BFF2"/></linearGradient></defs></svg>