<svg width="80" height="80" fill="none" xmlns="http://www.w3.org/2000/svg"><circle cx="40" cy="40" r="40" fill="url(#a)"/><path d="M14.922 53.38c0 .491.403.893.894.893h48.348a.896.896 0 0 0 .894-.893l.402-27.78c0-.491-.578-1.45-1.639-1.378L16.571 23a2.254 2.254 0 0 0-2.313 2.304l.664 28.075Z" fill="url(#b)"/><path d="M15.803 52.523c0 .465.38.846.846.846h46.347c.465 0 .846-.38.846-.846l.38-25.217c-.045-1.518-1.376-2.063-2.182-2.031L16.753 24.06a1.583 1.583 0 0 0-1.625 1.62l.674 26.843Z" fill="url(#c)"/><path d="M63.343 40.54h-.002a.124.124 0 0 1-.122-.125l.03-2.046a.124.124 0 0 1 .124-.122h.001a.124.124 0 0 1 .122.126l-.03 2.046a.124.124 0 0 1-.123.122Zm.072-5.01h-.002a.124.124 0 0 1-.122-.126l.115-7.832c-.002-.466-.143-.837-.42-1.102-.516-.494-1.335-.47-1.37-.467l-14.474-.388a.124.124 0 0 1-.12-.128c.001-.068.054-.126.127-.12l14.465.388c.09-.005.963-.02 1.544.536.327.313.494.744.496 1.282l-.115 7.835a.124.124 0 0 1-.124.122Z" fill="#BDD0FB"/><path d="M11.116 56.578h56.768a.116.116 0 0 0 .116-.116v-2.21a.116.116 0 0 0-.116-.115H11.116a.116.116 0 0 0-.116.115v2.21c0 .064.052.116.116.116Z" fill="url(#d)"/><path d="M60.749 32.753a3.183 3.183 0 0 0-4.5-4.5 3.183 3.183 0 0 0 4.5 4.5Z" fill="#7D97F4"/><path d="M60.673 32.679a3.077 3.077 0 0 0-4.35-4.351 3.077 3.077 0 0 0 4.35 4.35Z" fill="#91B3FA"/><path opacity=".78" d="M60.407 32.41a2.604 2.604 0 0 0-3.681-3.682 2.604 2.604 0 0 0 3.681 3.683Z" fill="#fff"/><path d="M59.402 29.406c0 .445-.36.926-.806.926-.444 0-.805-.48-.805-.926 0-.445.36-.761.806-.761.444 0 .805.316.805.761Zm-1.806 2.641h1.967c.207 0 .39-.134.453-.332l.106-.33a.476.476 0 0 0-.287-.593c-.8-.293-1.628-.255-2.476.027a.474.474 0 0 0-.303.575l.081.3a.476.476 0 0 0 .46.353Z" fill="#F9CD3D"/><rect x="19" y="28" width="13" height="2" rx="1" fill="#07002E"/><rect x="19" y="32.001" width="13" height="1" rx=".5" fill="#07002E"/><rect x="19" y="34.001" width="13" height="1" rx=".5" fill="#07002E"/><rect x="20" y="40" width="31" height="11" rx="3" fill="#F9CD3D"/><path d="M22 48.999c.5-2.167 2.172-6 5-6 3.5 0 3 3.5 5 3.5s3-5 5.5-5 2.867 1.736 3.5 3c1 2 2.5 3 4 2 1.2-.8 2.5-2.333 3-3" stroke="#213192" stroke-width=".5" stroke-linecap="round"/><defs><linearGradient id="a" x1="6.846" y1="77.879" x2="78.798" y2="-1.095" gradientUnits="userSpaceOnUse"><stop stop-color="#6076FF"/><stop offset="1" stop-color="#B7BFF2"/></linearGradient><linearGradient id="b" x1="44.406" y1="52.137" x2="32.992" y2="17.887" gradientUnits="userSpaceOnUse"><stop stop-color="#09005D"/><stop offset="1" stop-color="#1A0F91"/></linearGradient><linearGradient id="c" x1="19.33" y1="52.592" x2="41.556" y2="11.731" gradientUnits="userSpaceOnUse"><stop stop-color="#6076FF"/><stop offset="1" stop-color="#B7BFF2"/></linearGradient><linearGradient id="d" x1="39.401" y1="31.682" x2="39.505" y2="56.494" gradientUnits="userSpaceOnUse"><stop stop-color="#09005D"/><stop offset="1" stop-color="#1A0F91"/></linearGradient></defs></svg>