<svg width="80" height="80" fill="none" xmlns="http://www.w3.org/2000/svg"><circle cx="40" cy="40" r="40" fill="#F9CD3D"/><path d="M49.163 13.91a.293.293 0 0 1-.273.04c-.37-.132-.743-.257-1.11-.371a.298.298 0 0 1-.197-.37.293.293 0 0 1 .368-.195c.375.116.756.243 1.133.378a.298.298 0 0 1 .079.518Z" fill="url(#a)"/><path d="M56.685 63.483c-.553.409-1.127.8-1.706 1.165a.295.295 0 0 1-.407-.094.293.293 0 0 1 .091-.408 27.89 27.89 0 0 0 1.955-1.354l.003-.002a.297.297 0 0 1 .355.476l-.29.217Zm3.225-2.787a.297.297 0 0 1-.385-.448 28.008 28.008 0 0 0 1.602-1.76.297.297 0 0 1 .453.382 28.731 28.731 0 0 1-1.636 1.797.428.428 0 0 1-.034.029Zm3.913-4.944a.298.298 0 0 1-.426-.398c.42-.672.815-1.37 1.175-2.072a.293.293 0 0 1 .396-.126.298.298 0 0 1 .129.4 28.64 28.64 0 0 1-1.2 2.116.288.288 0 0 1-.074.08Zm2.721-5.694a.293.293 0 0 1-.273.04.298.298 0 0 1-.182-.377 27.91 27.91 0 0 0 .682-2.286c.04-.158.2-.254.358-.212a.298.298 0 0 1 .213.36 28.384 28.384 0 0 1-.696 2.336.294.294 0 0 1-.102.139Zm1.38-6.168a.294.294 0 0 1-.208.055.298.298 0 0 1-.262-.328c.085-.788.138-1.59.156-2.386a.294.294 0 0 1 .301-.287.299.299 0 0 1 .289.305 29.062 29.062 0 0 1-.16 2.436.296.296 0 0 1-.117.205Zm-.024-6.335a.298.298 0 0 1-.469-.207 28.634 28.634 0 0 0-.374-2.366.293.293 0 0 1 .231-.347.296.296 0 0 1 .347.234c.16.795.289 1.607.382 2.415a.291.291 0 0 1-.117.27Zm-1.416-6.183a.297.297 0 0 1-.455-.142 28.382 28.382 0 0 0-.885-2.227.295.295 0 0 1 .147-.391.297.297 0 0 1 .39.151c.333.742.637 1.507.905 2.274a.297.297 0 0 1-.102.335Zm-2.747-5.724-.019.013a.295.295 0 0 1-.406-.095 28.65 28.65 0 0 0-1.19-1.751l-.167-.226a.296.296 0 0 1 .06-.416.294.294 0 0 1 .41.061l.171.23c.425.578.834 1.18 1.215 1.788a.297.297 0 0 1-.074.396Zm-3.947-4.971a.295.295 0 0 1-.384-.031 28.576 28.576 0 0 0-1.76-1.626.298.298 0 0 1-.036-.418.295.295 0 0 1 .415-.034 29.086 29.086 0 0 1 1.797 1.66.298.298 0 0 1-.032.449Zm-4.941-3.978a.294.294 0 0 1-.333.01 28.437 28.437 0 0 0-2.07-1.2.298.298 0 0 1-.128-.399.293.293 0 0 1 .397-.125 29.15 29.15 0 0 1 2.114 1.225.298.298 0 0 1 .02.49Z" fill="url(#b)"/><path d="M51.545 66.483a.326.326 0 0 1-.055.032c-.365.163-.733.318-1.095.463a.296.296 0 0 1-.22-.552c.354-.14.715-.293 1.073-.453a.297.297 0 0 1 .297.51Z" fill="url(#c)"/><path d="M29.435 66.858a.292.292 0 0 1-.285.035 29.179 29.179 0 0 1-1.098-.473.298.298 0 0 1-.15-.393.293.293 0 0 1 .39-.146c.357.162.718.318 1.075.463a.298.298 0 0 1 .068.514Z" fill="url(#d)"/><path d="M24.953 64.546a.293.293 0 0 1-.332.011 29.182 29.182 0 0 1-1.977-1.37.298.298 0 0 1-.06-.414.295.295 0 0 1 .412-.058c.626.473 1.277.924 1.937 1.342a.298.298 0 0 1 .02.49Zm-4.88-3.89a.295.295 0 0 1-.383-.029 28.59 28.59 0 0 1-1.637-1.766.295.295 0 0 1 .031-.417.293.293 0 0 1 .417.035 28.048 28.048 0 0 0 1.603 1.729.297.297 0 0 1 .004.42c-.012.008-.024.02-.036.028Zm-3.926-4.86-.016.011a.295.295 0 0 1-.407-.091 28.985 28.985 0 0 1-1.212-2.082.296.296 0 0 1 .122-.4.295.295 0 0 1 .398.126c.366.694.765 1.38 1.187 2.038a.294.294 0 0 1-.072.398Zm-2.769-5.6a.296.296 0 0 1-.453-.139 28.988 28.988 0 0 1-.73-2.295.293.293 0 0 1 .206-.362.297.297 0 0 1 .363.21c.206.755.447 1.511.715 2.246a.296.296 0 0 1-.1.34Zm-1.488-6.062a.298.298 0 0 1-.468-.202 29.183 29.183 0 0 1-.217-2.395.292.292 0 0 1 .28-.307.299.299 0 0 1 .31.283c.037.78.109 1.57.212 2.346a.295.295 0 0 1-.117.275Zm-.14-6.232a.291.291 0 0 1-.202.056.299.299 0 0 1-.269-.323c.07-.795.173-1.596.308-2.38a.293.293 0 0 1 .341-.239c.16.03.268.183.24.344a28.288 28.288 0 0 0-.302 2.331.29.29 0 0 1-.117.211Zm1.218-6.1a.293.293 0 0 1-.266.043.299.299 0 0 1-.191-.373c.241-.76.518-1.517.822-2.252a.293.293 0 0 1 .385-.157.3.3 0 0 1 .16.388c-.298.72-.569 1.462-.805 2.205a.293.293 0 0 1-.105.146Zm2.528-5.674a.292.292 0 0 1-.325.015.298.298 0 0 1-.105-.406c.4-.683.836-1.36 1.295-2.01a.293.293 0 0 1 .41-.07c.134.095.166.28.073.413-.45.638-.877 1.301-1.269 1.97a.31.31 0 0 1-.079.088Zm3.703-4.976a.297.297 0 0 1-.392-.442 28.443 28.443 0 0 1 1.702-1.68.297.297 0 0 1 .398.44 27.993 27.993 0 0 0-1.667 1.646.294.294 0 0 1-.04.036Zm6.71-5.288a.455.455 0 0 1-.03.02c-.678.382-1.347.797-1.988 1.234a.295.295 0 0 1-.41-.079.293.293 0 0 1 .077-.412 28.02 28.02 0 0 1 2.03-1.26.297.297 0 0 1 .32.497Z" fill="url(#e)"/><path d="M30.494 13.803a.306.306 0 0 1-.079.042 27.47 27.47 0 0 0-1.092.403.297.297 0 0 1-.383-.168.294.294 0 0 1 .165-.384c.364-.143.739-.282 1.115-.412a.297.297 0 0 1 .274.52Z" fill="url(#f)"/><path d="M35.126 19.052a.336.336 0 0 0-.295.26l-.927 4.026a17.784 17.784 0 0 0-5.114 2.75l-3.872-1.439a.336.336 0 0 0-.38.103l-3.11 3.837a.34.34 0 0 0-.024.394l2.184 3.524a17.964 17.964 0 0 0-1.648 5.59l-3.735 1.725a.337.337 0 0 0-.193.343l.52 4.94a.343.343 0 0 0 .26.298l4.017.96a18.203 18.203 0 0 0 2.777 5.153l-1.405 3.878a.342.342 0 0 0 .105.38l3.844 3.15c.113.093.27.104.393.028l3.494-2.167a18 18 0 0 0 5.58 1.695l1.746 3.761c.061.132.199.21.343.197l4.917-.486a.336.336 0 0 0 .295-.26l.927-4.026a17.784 17.784 0 0 0 5.114-2.75l3.873 1.439c.135.05.287.01.378-.103l3.111-3.837a.34.34 0 0 0 .024-.394l-2.184-3.524a17.961 17.961 0 0 0 1.648-5.59l3.735-1.725a.337.337 0 0 0 .194-.342l-.52-4.94a.344.344 0 0 0-.26-.299l-4.018-.96a18.205 18.205 0 0 0-2.777-5.153l1.406-3.877a.342.342 0 0 0-.105-.381l-3.845-3.15a.338.338 0 0 0-.393-.027l-3.494 2.166a18.016 18.016 0 0 0-5.58-1.694l-1.746-3.762a.34.34 0 0 0-.343-.197l-4.917.486Z" fill="url(#g)"/><path d="M42.75 44.414a4.814 4.814 0 0 1-1.22.652 4.79 4.79 0 0 1-3.697-.176 4.862 4.862 0 0 1-2.508-2.747 4.834 4.834 0 0 1 .148-3.71 4.76 4.76 0 0 1 2.719-2.498 4.787 4.787 0 0 1 3.696.176 4.862 4.862 0 0 1 2.509 2.748 4.835 4.835 0 0 1-.149 3.71 4.763 4.763 0 0 1-1.499 1.845Zm-5.25-7.111c-.523.386-.944.9-1.224 1.509a3.947 3.947 0 0 0-.122 3.03 3.974 3.974 0 0 0 2.05 2.245c.957.45 2.029.502 3.02.143a3.883 3.883 0 0 0 2.22-2.04 3.946 3.946 0 0 0 .122-3.031 3.972 3.972 0 0 0-2.05-2.245 3.913 3.913 0 0 0-3.02-.143c-.36.13-.695.31-.996.532Zm-1.626 1.32.002-.002-.002.001Z" fill="#213192"/><path d="M47.265 50.633C42.84 53.9 36.579 53.878 32.1 50.21a12.542 12.542 0 0 1-2.15-2.263c-3.288-4.466-3.31-10.752.313-15.223.065-.08.13-.16.198-.239a12.347 12.347 0 0 1 1.665-1.617l.555.696a11.457 11.457 0 0 0-1.73 1.724l-.015.017c-3.969 4.916-3.199 12.186 1.72 16.217 4.926 4.036 12.175 3.32 16.16-1.596 3.365-4.149 3.343-9.987.291-14.132a11.594 11.594 0 0 0-1.997-2.101 11.54 11.54 0 0 0-5.61-2.495l.124-.878a12.517 12.517 0 0 1 8.194 4.95c3.287 4.465 3.31 10.752-.313 15.222-.67.824-1.424 1.54-2.24 2.142Z" fill="#213192"/><defs><linearGradient id="a" x1="47.721" y1="13.941" x2="48.428" y2="12.564" gradientUnits="userSpaceOnUse"><stop stop-color="#6076FF"/><stop offset="1" stop-color="#B7BFF2"/></linearGradient><linearGradient id="b" x1="53.975" y1="63.374" x2="81.687" y2="53.558" gradientUnits="userSpaceOnUse"><stop stop-color="#6076FF"/><stop offset="1" stop-color="#B7BFF2"/></linearGradient><linearGradient id="c" x1="50.135" y1="66.971" x2="50.948" y2="65.541" gradientUnits="userSpaceOnUse"><stop stop-color="#6076FF"/><stop offset="1" stop-color="#B7BFF2"/></linearGradient><linearGradient id="d" x1="28.026" y1="66.887" x2="28.851" y2="65.453" gradientUnits="userSpaceOnUse"><stop stop-color="#6076FF"/><stop offset="1" stop-color="#B7BFF2"/></linearGradient><linearGradient id="e" x1="12.645" y1="63.297" x2="39.297" y2="54.196" gradientUnits="userSpaceOnUse"><stop stop-color="#6076FF"/><stop offset="1" stop-color="#B7BFF2"/></linearGradient><linearGradient id="f" x1="29.066" y1="14.242" x2="29.815" y2="12.842" gradientUnits="userSpaceOnUse"><stop stop-color="#6076FF"/><stop offset="1" stop-color="#B7BFF2"/></linearGradient><linearGradient id="g" x1="21.901" y1="61.276" x2="61.096" y2="18.143" gradientUnits="userSpaceOnUse"><stop stop-color="#6076FF"/><stop offset="1" stop-color="#B7BFF2"/></linearGradient></defs></svg>