<svg width="88" height="88" fill="none" xmlns="http://www.w3.org/2000/svg"><ellipse cx="44" cy="43.981" rx="40" ry="39.982" fill="#F9CD3D"/><path d="M66 65.97c12.15-12.145 12.15-31.835 0-43.98-12.15-12.145-31.85-12.145-44 0C9.85 34.135 9.85 53.825 22 65.97c12.15 12.145 31.85 12.145 44 0Z" fill="#fff"/><path d="M44.003 70.52c14.665 0 26.553-11.883 26.553-26.541 0-14.659-11.888-26.541-26.553-26.541-14.665 0-26.554 11.883-26.554 26.54 0 14.66 11.889 26.542 26.554 26.542Z" fill="url(#a)"/><path d="M44.056 71.11c-1.928 0-3.869-.207-5.798-.624-7.083-1.534-13.145-5.733-17.07-11.824-3.923-6.091-5.239-13.345-3.704-20.425 1.534-7.08 5.735-13.14 11.829-17.061 6.093-3.922 13.35-5.238 20.434-3.704 7.083 1.533 13.145 5.732 17.069 11.823 3.924 6.091 5.24 13.345 3.705 20.425-1.534 7.08-5.735 13.14-11.829 17.061-4.434 2.854-9.485 4.328-14.636 4.328Zm-.059-53.096c-11.959 0-22.747 8.322-25.38 20.469-3.03 13.99 5.89 27.838 19.887 30.869 1.845.4 3.689.591 5.504.591 11.959.001 22.747-8.322 25.379-20.469 3.032-13.99-5.89-27.838-19.886-30.868a25.995 25.995 0 0 0-5.504-.592Z" fill="#fff"/><path d="M44 60.162c8.941 0 16.19-7.245 16.19-16.181C60.19 35.044 52.94 27.8 44 27.8c-8.94 0-16.188 7.244-16.188 16.181 0 8.936 7.248 16.18 16.189 16.18Z" fill="url(#b)"/><path d="M44.035 60.747c-1.192 0-2.392-.128-3.584-.386a16.66 16.66 0 0 1-10.549-7.307 16.644 16.644 0 0 1-2.29-12.622 16.652 16.652 0 0 1 7.31-10.544 16.665 16.665 0 0 1 12.629-2.29A16.659 16.659 0 0 1 58.1 34.907a16.644 16.644 0 0 1 2.29 12.622 16.652 16.652 0 0 1-7.31 10.544 16.662 16.662 0 0 1-9.045 2.675Zm-.065-32.373c-2.963 0-5.868.847-8.419 2.49a15.5 15.5 0 0 0-6.804 9.813 15.492 15.492 0 0 0 2.131 11.75 15.507 15.507 0 0 0 9.819 6.8 15.51 15.51 0 0 0 11.754-2.13 15.5 15.5 0 0 0 6.804-9.814 15.492 15.492 0 0 0-2.131-11.75 15.508 15.508 0 0 0-9.819-6.8 15.753 15.753 0 0 0-3.335-.36Z" fill="#fff"/><path d="M44.002 50.247a6.27 6.27 0 0 0 6.272-6.269 6.27 6.27 0 0 0-6.272-6.269 6.27 6.27 0 0 0-6.272 6.269 6.27 6.27 0 0 0 6.272 6.269Z" fill="url(#c)"/><path d="M44.015 50.83a6.92 6.92 0 0 1-1.464-.157c-3.693-.8-6.046-4.453-5.247-8.144.8-3.691 4.456-6.044 8.148-5.244 3.693.8 6.046 4.453 5.246 8.144a6.803 6.803 0 0 1-2.987 4.309 6.812 6.812 0 0 1-3.696 1.092ZM44 38.29a5.7 5.7 0 0 0-5.56 4.485 5.696 5.696 0 0 0 4.357 6.765 5.658 5.658 0 0 0 4.286-.777 5.651 5.651 0 0 0 2.481-3.579A5.695 5.695 0 0 0 44 38.29Z" fill="#FCFAFA"/><path d="m78.607 5.246.844.833-31.554 31.936-.844-.833L78.607 5.246Z" fill="url(#d)"/><path d="M47.634 35.157c.478-.484 2.76 1.769 2.282 2.253l-8.37 6.661c-.31.246-.714-.153-.472-.466l6.56-8.448Z" fill="url(#e)"/><path d="m79.432 6.098 4.274.398-5.827 5.898a9.07 9.07 0 0 1-7.291 2.655l8.844-8.95Zm-.842-.832L78.138 1l-5.827 5.898a9.06 9.06 0 0 0-2.565 7.32l8.844-8.95Z" fill="#91B3FA"/><defs><linearGradient id="a" x1="21.994" y1="69.113" x2="69.734" y2="16.689" gradientUnits="userSpaceOnUse"><stop stop-color="#6076FF"/><stop offset="1" stop-color="#B7BFF2"/></linearGradient><linearGradient id="b" x1="30.583" y1="59.304" x2="59.688" y2="27.344" gradientUnits="userSpaceOnUse"><stop stop-color="#6076FF"/><stop offset="1" stop-color="#B7BFF2"/></linearGradient><linearGradient id="c" x1="59.266" y1="5.109" x2="44.653" y2="42.355" gradientUnits="userSpaceOnUse"><stop stop-color="#E1473D"/><stop offset="1" stop-color="#E9605A"/></linearGradient><linearGradient id="d" x1="69.04" y1="-32.216" x2="66.778" y2="-11.162" gradientUnits="userSpaceOnUse"><stop stop-color="#09005D"/><stop offset="1" stop-color="#1A0F91"/></linearGradient><linearGradient id="e" x1="49.09" y1="30.717" x2="40.219" y2="54.905" gradientUnits="userSpaceOnUse"><stop stop-color="#09005D"/><stop offset="1" stop-color="#1A0F91"/></linearGradient></defs></svg>