<svg width="120" height="68" fill="none" xmlns="http://www.w3.org/2000/svg"><path d="M0 5.083C0 2.276 2.023 0 4.518 0H60v67.5H4.518C2.023 67.5 0 65.224 0 62.417V5.083Z" fill="#213192"/><path d="M60 0h55.482C117.977 0 120 2.276 120 5.083v57.334c0 2.807-2.023 5.083-4.518 5.083H60V0Z" fill="#0B004C"/><path d="M23.794 36.126h-9.108l-1.693 4.708H6.777L16.286 16.6h6l9.54 24.233h-6.34l-1.692-4.709ZM22.01 31.07l-2.77-7.754-2.769 7.754h5.54Zm28.84-15.923v25.687h-5.57v-1.87c-1.087 1.454-2.718 2.181-4.892 2.181-1.518 0-2.903-.392-4.154-1.177-1.252-.808-2.247-1.95-2.985-3.427-.718-1.477-1.077-3.185-1.077-5.124 0-1.938.359-3.635 1.077-5.089.738-1.476 1.733-2.607 2.985-3.392 1.251-.785 2.636-1.177 4.154-1.177 1.99 0 3.528.646 4.616 1.939v-8.551h5.846Zm-9.231 20.77c1.005 0 1.836-.392 2.492-1.176.657-.808.985-1.916.985-3.324 0-1.384-.328-2.469-.985-3.254-.636-.784-1.467-1.177-2.492-1.177-1.026 0-1.867.393-2.524 1.177-.656.785-.984 1.87-.984 3.254 0 1.408.328 2.516.984 3.324.657.784 1.498 1.177 2.524 1.177Zm-31.463 19.78H6.528l-.796 1.98h-.491l2.877-7.036h.456l2.877 7.037h-.491l-.804-1.98Zm-.17-.432-1.644-4.061-1.636 4.061h3.28Zm6.561-5.047v7.46h-.438V56.44a2.172 2.172 0 0 1-.778.945 2.007 2.007 0 0 1-1.134.332c-.435 0-.829-.114-1.18-.342a2.368 2.368 0 0 1-.831-.945 3.097 3.097 0 0 1-.295-1.377c0-.516.098-.975.295-1.377.202-.41.48-.724.831-.945a2.121 2.121 0 0 1 1.18-.342c.417 0 .789.11 1.117.332.333.22.595.53.786.925v-3.429h.447Zm-2.324 7.048c.358 0 .676-.094.957-.282.286-.188.509-.449.67-.784.167-.335.25-.717.25-1.146 0-.429-.084-.811-.25-1.146a1.892 1.892 0 0 0-.67-.784 1.677 1.677 0 0 0-.957-.282c-.357 0-.679.094-.965.282a1.98 1.98 0 0 0-.67.784c-.16.335-.241.717-.241 1.146 0 .429.08.81.241 1.146.167.335.39.596.67.784.286.188.608.282.965.282Zm7.952-4.836-2.11 5.248h-.455l-2.1-5.248h.474l1.858 4.695 1.877-4.695h.456Zm4.787 2.745h-4.013c.012.408.105.774.277 1.095.173.315.405.56.697.734a1.94 1.94 0 0 0 1.001.262c.304 0 .584-.06.84-.181.262-.128.48-.312.653-.553l.259.332a2.017 2.017 0 0 1-.769.633 2.24 2.24 0 0 1-.992.221 2.29 2.29 0 0 1-1.242-.342 2.386 2.386 0 0 1-.858-.945 3.02 3.02 0 0 1-.303-1.377c0-.51.095-.965.285-1.367a2.34 2.34 0 0 1 .805-.955c.34-.228.72-.342 1.143-.342.424 0 .802.114 1.135.342.34.22.605.532.796.935.196.402.295.858.295 1.367l-.01.14Zm-2.216-2.343c-.328 0-.623.084-.885.252-.262.16-.474.392-.635.693-.154.295-.244.63-.268 1.005h3.575a2.299 2.299 0 0 0-.268-1.005 1.864 1.864 0 0 0-.635-.694 1.608 1.608 0 0 0-.884-.25Zm4.036.744c.143-.382.366-.673.67-.874.304-.208.673-.312 1.108-.312v.492l-.107-.01c-.518 0-.924.185-1.215.553-.292.362-.438.868-.438 1.518v2.735h-.447V52.43h.429v1.146Zm5.533 3.77a1.15 1.15 0 0 1-.429.282c-.167.06-.342.09-.527.09-.405 0-.718-.124-.938-.372-.22-.255-.331-.606-.331-1.055v-3.429h-.858v-.432h.858v-1.146h.447v1.146h1.483v.432h-1.483v3.378c0 .342.071.603.214.784.15.175.367.262.653.262a.971.971 0 0 0 .723-.292l.188.352Zm1.246-4.916h.447v5.248h-.447V52.43Zm.224-1.277a.348.348 0 0 1-.26-.11.423.423 0 0 1-.107-.292c0-.114.036-.21.107-.291a.334.334 0 0 1 .26-.121c.1 0 .187.04.259.12a.388.388 0 0 1 .107.282.424.424 0 0 1-.107.292.334.334 0 0 1-.26.12Zm3.285 6.565a3.03 3.03 0 0 1-1.072-.19c-.34-.128-.604-.29-.795-.483l.206-.403c.19.181.435.332.732.453.304.12.62.18.948.18.47 0 .816-.086 1.036-.26.227-.175.34-.416.34-.724 0-.222-.063-.396-.188-.523a1.067 1.067 0 0 0-.447-.282 6.93 6.93 0 0 0-.741-.19 5.642 5.642 0 0 1-.894-.242 1.396 1.396 0 0 1-.58-.422c-.162-.195-.242-.463-.242-.804 0-.416.152-.758.456-1.026.31-.275.747-.412 1.313-.412.298 0 .593.047.885.14.292.094.53.218.715.373l-.206.402a2.044 2.044 0 0 0-.652-.352 2.384 2.384 0 0 0-.75-.12c-.436 0-.763.09-.984.27a.878.878 0 0 0-.33.714c0 .235.062.42.187.553.126.128.277.225.456.292.185.06.441.127.769.201.363.074.655.154.875.241.227.08.417.215.572.402.155.188.233.446.233.775 0 .435-.161.784-.483 1.045-.322.261-.774.392-1.358.392Zm3.089-5.288h.446v5.248h-.446V52.43Zm.223-1.277a.347.347 0 0 1-.26-.11.423.423 0 0 1-.106-.292.42.42 0 0 1 .107-.291.334.334 0 0 1 .259-.121c.101 0 .188.04.26.12a.388.388 0 0 1 .106.282.424.424 0 0 1-.107.292.335.335 0 0 1-.259.12Zm4.385 1.237c.584 0 1.046.19 1.386.573.34.382.509.931.509 1.649v3.066h-.447v-3.026c0-.59-.134-1.039-.402-1.347-.262-.309-.632-.463-1.108-.463-.548 0-.98.185-1.296.553-.316.369-.474.865-.474 1.488v2.795h-.446V52.43h.429v1.136c.16-.369.399-.657.715-.864.321-.208.7-.312 1.134-.312Zm7.943.04v4.685c0 .871-.188 1.515-.563 1.93-.375.416-.941.623-1.698.623-.429 0-.834-.073-1.215-.22a2.327 2.327 0 0 1-.92-.614l.24-.382c.233.241.513.429.84.563a2.74 2.74 0 0 0 1.046.201c.62 0 1.079-.168 1.377-.503.297-.328.446-.84.446-1.538v-.884a2.11 2.11 0 0 1-.795.884c-.34.208-.72.312-1.144.312a2.26 2.26 0 0 1-1.188-.322 2.326 2.326 0 0 1-.831-.915A2.807 2.807 0 0 1 50 54.933c0-.489.101-.928.304-1.317.202-.388.48-.69.83-.904a2.266 2.266 0 0 1 1.19-.322c.428 0 .815.107 1.16.322.346.214.611.516.796.904V52.43h.43Zm-2.35 4.605c.363 0 .691-.088.983-.262.292-.18.518-.429.679-.744.167-.322.25-.687.25-1.096 0-.408-.083-.77-.25-1.085a1.773 1.773 0 0 0-.68-.734 1.827 1.827 0 0 0-.982-.272c-.364 0-.691.09-.983.272a1.855 1.855 0 0 0-.68.734c-.16.315-.24.677-.24 1.085 0 .41.08.774.24 1.096.168.315.394.563.68.744.292.174.62.261.983.261Zm20.27 1.095v.463h-4.316v-7.038h4.182v.463h-3.727v2.775h3.333v.452H68.77v2.885h3.86Zm5.586-6.997v7.46h-.438v-1.237a2.172 2.172 0 0 1-.777.945 2.008 2.008 0 0 1-1.135.332c-.435 0-.828-.114-1.18-.342a2.369 2.369 0 0 1-.83-.945 3.097 3.097 0 0 1-.296-1.377c0-.516.099-.975.295-1.377.203-.41.48-.724.831-.945a2.122 2.122 0 0 1 1.18-.342c.417 0 .79.11 1.117.331.334.222.596.53.786.925v-3.428h.447Zm-2.323 7.048c.357 0 .676-.094.956-.282.286-.188.51-.449.67-.784.167-.335.25-.717.25-1.146 0-.43-.083-.811-.25-1.146a1.893 1.893 0 0 0-.67-.784 1.677 1.677 0 0 0-.956-.282c-.358 0-.68.094-.965.282-.28.187-.504.449-.67.784a2.614 2.614 0 0 0-.242 1.146c0 .429.08.81.241 1.146.167.335.39.596.67.784.287.188.608.282.966.282Zm8.291-4.836v5.248h-.43v-1.126a1.918 1.918 0 0 1-.687.864 1.898 1.898 0 0 1-1.073.302c-.607 0-1.084-.191-1.43-.573-.345-.382-.518-.932-.518-1.649v-3.066h.447v3.026c0 .59.134 1.039.402 1.347.268.308.647.463 1.135.463.524 0 .939-.185 1.242-.553.31-.369.465-.865.465-1.488v-2.795h.447Zm3.744 5.288c-.453 0-.858-.114-1.216-.342a2.344 2.344 0 0 1-.84-.945 3.06 3.06 0 0 1-.304-1.377c0-.516.102-.975.304-1.377a2.26 2.26 0 0 1 .84-.945 2.212 2.212 0 0 1 1.216-.342c.375 0 .715.084 1.018.251.31.161.56.399.751.714l-.33.271a1.602 1.602 0 0 0-.626-.583 1.663 1.663 0 0 0-.813-.2c-.364 0-.691.093-.983.28-.286.182-.513.44-.68.775a2.64 2.64 0 0 0-.24 1.156c0 .435.08.82.24 1.156.167.335.394.596.68.784.292.181.62.272.983.272.297 0 .569-.064.813-.191a1.68 1.68 0 0 0 .625-.594l.331.272a1.95 1.95 0 0 1-.75.724 2.16 2.16 0 0 1-1.02.241Zm4.679-5.328c.578 0 1.022.167 1.332.502.31.329.465.815.465 1.458v3.328h-.43v-.935c-.148.308-.366.55-.652.724-.286.167-.628.251-1.027.251-.519 0-.93-.137-1.234-.412-.298-.275-.446-.637-.446-1.086 0-.436.137-.787.41-1.055.28-.275.724-.413 1.332-.413h1.6v-.422c0-.49-.12-.861-.358-1.116-.232-.255-.575-.382-1.027-.382a2.275 2.275 0 0 0-1.609.664l-.223-.362c.232-.235.512-.416.84-.543a2.69 2.69 0 0 1 1.027-.201Zm-.25 4.916c.387 0 .715-.1.983-.302.274-.2.48-.492.617-.874v-.986h-1.59c-.46 0-.793.094-1.002.282-.202.188-.304.445-.304.774 0 .342.114.613.34.814.226.195.545.292.956.292Zm6.202.04c-.113.12-.256.214-.429.281-.167.06-.343.091-.527.091-.405 0-.718-.124-.938-.372-.221-.255-.331-.607-.331-1.056v-3.428h-.858v-.432h.858v-1.146h.447v1.146h1.483v.432h-1.483v3.378c0 .342.071.603.214.784.149.175.367.262.652.262a.971.971 0 0 0 .724-.292l.188.352Zm1.246-4.916h.447v5.248h-.447v-5.248Zm.223-1.277a.347.347 0 0 1-.259-.11.424.424 0 0 1-.107-.292c0-.114.036-.211.107-.291a.334.334 0 0 1 .259-.121c.102 0 .188.04.26.12a.39.39 0 0 1 .107.282.426.426 0 0 1-.107.292.336.336 0 0 1-.26.12Zm3.93 6.565c-.441 0-.84-.114-1.197-.342a2.37 2.37 0 0 1-.832-.945 3.068 3.068 0 0 1-.303-1.377 3 3 0 0 1 .303-1.367c.203-.41.48-.727.832-.955a2.178 2.178 0 0 1 1.197-.342c.441 0 .837.114 1.189.342.357.227.637.546.84.955.202.402.303.858.303 1.367 0 .51-.101.968-.303 1.377a2.351 2.351 0 0 1-.84.945 2.14 2.14 0 0 1-1.189.342Zm0-.452c.357 0 .676-.094.956-.282.286-.188.51-.449.67-.784.167-.335.251-.717.251-1.146 0-.43-.084-.811-.251-1.146a1.886 1.886 0 0 0-.67-.784 1.678 1.678 0 0 0-.956-.282 1.72 1.72 0 0 0-.965.282 1.98 1.98 0 0 0-.67.784 2.615 2.615 0 0 0-.242 1.146c0 .429.081.81.242 1.146.167.335.39.596.67.784.286.188.608.282.965.282Zm5.997-4.876c.584 0 1.046.19 1.385.573.34.382.51.931.51 1.648v3.067h-.447v-3.026c0-.59-.134-1.04-.402-1.347-.262-.309-.632-.463-1.108-.463-.548 0-.98.184-1.296.553-.316.369-.474.865-.474 1.488v2.795h-.446v-5.248h.428v1.136c.161-.369.4-.657.715-.865.322-.207.7-.311 1.135-.311ZM88.372 35.537v5.297H71.08V16.6h16.893v5.296H77.11v4.085h9.57v5.124h-9.57v4.431h11.262Zm20.769-20.39v25.687h-5.57v-1.87c-1.087 1.454-2.718 2.181-4.892 2.181-1.519 0-2.903-.392-4.155-1.177-1.251-.808-2.246-1.95-2.985-3.427-.718-1.477-1.077-3.185-1.077-5.124 0-1.938.36-3.635 1.077-5.089.739-1.476 1.734-2.607 2.985-3.392 1.252-.785 2.636-1.177 4.154-1.177 1.99 0 3.529.646 4.616 1.939v-8.551h5.847Zm-9.232 20.77c1.006 0 1.836-.392 2.493-1.176.656-.808.985-1.916.985-3.324 0-1.384-.329-2.469-.985-3.254-.636-.784-1.467-1.177-2.493-1.177-1.025 0-1.867.393-2.523 1.177-.656.785-.985 1.87-.985 3.254 0 1.408.329 2.516.985 3.324.657.784 1.498 1.177 2.523 1.177Z" fill="#fff"/></svg>