<svg width="219" height="163" fill="none" xmlns="http://www.w3.org/2000/svg"><path d="M194.307 71.887c-8.993-8.601-19.836-60.472-56.979-33.456-19.19 13.959-51.549-11.983-78.332-3.023-24.597 8.229-26.968 35.34-24.588 44.174 4.808 17.845-10.153 20.5-24.032 28.167-21.77 12.027-5.636 54.741 14.93 54.942 20.566.202 145 0 145 0s29.912-.766 42.337-19.253c13.37-19.894 4.895-49.334-18.336-71.55Z" fill="#F9CD3D"/><path d="M72.016 157.904s.26 4.71 1.073 4.778c.109.009 4.123.009 4.123.009l5.124-.033s-.034-1.384-1.53-1.677c-1.499-.293-4.006-1.474-4.914-3.693-.955-2.336-3.876.616-3.876.616Z" fill="#163560"/><path d="M70.167 102.936s2.233.642 3.651.163c1.42-.479 3.862.308 4.256.889.393.58.249.81-.453 1.01-.703.2-3.19 1.389-4.823.701-1.635-.688-3.767-.713-3.767-.713l1.136-2.05Z" fill="#E49963"/><path d="M50.873 81.193s2.508 19.985 6.661 21.775c2.05.883 11.106 2.885 13.784 3.085 0 0 .656-.596.496-3.026 0 0-9.488-3.905-10.836-6.028-2.006-3.161 1.245-12.913-1.272-15.882-2.516-2.97-6.756-4.246-8.833.076Z" fill="#4A75CB"/><path d="M51.192 158.196v-4.358h-6.118c-.166 0-.301-.151-.301-.337v-.698c0-.186.135-.337.3-.337h6.12v-24.802c0-.696.508-1.266 1.128-1.266h1.21c.62 0 1.129.57 1.129 1.266v24.803h6.119c.165 0 .3.151.3.337v.698c0 .186-.135.337-.3.337h-6.12v4.358c4.428.375 7.974 2.161 8.97 4.47H42.223c.995-2.31 4.542-4.096 8.97-4.471Z" fill="#A6C7F9"/><path d="M51.719 123.296c.731 1.391 1.578 2.695 2.45 3.93 2.696 3.815 5.63 6.961 6.141 9.933.102.593.263 1.232.474 1.903.213.682.477 1.398.782 2.139 1.145 2.786 2.855 5.907 4.562 8.744a220.328 220.328 0 0 0 5.729 8.997l5.091-.243c-.204-.572-2.424-7.344-5.395-15.62l-3.726-10.38-.493-1.373-1.114-3.103-5.01-13.959s-11.148-4.735-12.306-1.668c-.957 2.53-.18 5.008 2.815 10.7Z" fill="#E58638"/><path d="M60.225 144.449s-3.541 2.551-3.198 3.38c.046.11 2.003 4.04 2.003 4.04l2.525 5s1.061-.708.56-2.317c-.504-1.609-.806-4.639.48-6.609 1.353-2.073-2.37-3.494-2.37-3.494Z" fill="#163560"/><path d="M65.018 112.016s13.994 9.772 15.556 16.339c1.562 6.568-18.614 20.578-18.614 20.578s-2.213-2.19-2.604-3.795c0 0 9.12-12.25 11.098-14.996 1.216-1.687-17.964-5.838-20.307-9.925-2.344-4.086-1.505-7.524-1.505-7.524l16.376-.677Z" fill="#EE9849"/><path d="M38.608 124.564h28.639c.572 0 1.04.526 1.04 1.168v6.421c0 .642-.468 1.168-1.04 1.168h-28.64c-.572 0-1.04-.526-1.04-1.168v-6.421c0-.642.468-1.168 1.04-1.168Z" fill="#1C468A"/><path d="M58.547 77.767a8.366 8.366 0 0 1 2.133 2.166c-3.353.973-8.91-2.511-8.91-2.511s2.157-1.626 2.957-5.197a12.534 12.534 0 0 0 .291-2.51l1.54 1.546 2.561 2.572s-.058 1.068-.379 2.903c-.056.321-.12.665-.193 1.031Z" fill="#E49963"/><path d="M48.234 95.498c.48 7.24-.327 18.249.217 20.156.47 1.645 6.003.672 8.141.121.791-.203 1.75-.493 2.74-.836 2.761-.959 5.77-2.328 6.093-3.344a1.054 1.054 0 0 0 .024-.542c-.108-.518-.522-1.079-.571-2.36-.054-1.433-.046-3.118-.095-4.932-.002-.204-.004-.426-.025-.63v-.075l-.003-.116c-.046-2.023-.14-4.148-.25-6.257a186.97 186.97 0 0 0-.243-3.893c-.24-3.244-.565-6.128-.995-7.951-.702-2.973-2.25-4.912-3.659-6.333l-1.019-.98c-1.138.278-2.481.094-3.697-.552-1.316-.7-1.771-1.203-2-1.014-3.04 2.63-5.225 10.686-4.658 19.538Z" fill="#739AF0"/><path d="M59.315 114.953c2.762-.958 5.77-2.327 6.093-3.343a.886.886 0 0 0 .03-.117l-.006-.425c-.107-.518-.522-1.079-.57-2.361-.055-1.432-.046-3.118-.095-4.931-.003-.204-.005-.427-.025-.631v-.074a44.893 44.893 0 0 1-.004-.116l-10.43-5.305s-.6 9.424 5.007 17.303Z" fill="#4A75CB"/><path d="M59.117 73.835s-.058 1.067-.379 2.902c-2.5-.906-3.635-3.438-4.013-4.512a5.872 5.872 0 0 1-.155-.491l.265-.063 1.721-.41 2.56 2.574Z" fill="#D68D5D"/><path d="M60.13 73.805s-5.494.695-5.827-3.148c-.332-3.842-1.266-6.34 2.227-6.946 3.493-.606 4.303.786 4.693 2.038.39 1.253.328 7.777-1.093 8.056Z" fill="#E49963"/><path d="M54.328 70.923s.348-5.1 5.348-5.629c3.426-.361 1.516-3.667 1.151-4.194 0 0-2.624.404-5.314.901-5.646 1.047-1.74 8.128-1.185 8.922Z" fill="#2B478B"/><path d="m80.912 107.942.48.175L85.485 94l-.481-.175-4.091 14.117Z" fill="#4A75CB"/><path d="m67.512 107.778 13.89.333.018-.931-13.89-.333-.018.931Z" fill="#4A75CB"/><path d="M69.02 106.008s2.156.915 3.614.614c1.458-.301 3.808.783 4.142 1.408.334.626.168.837-.55.949-.717.113-3.305.987-4.862.101s-3.673-1.174-3.673-1.174l1.33-1.898Z" fill="#E49963"/><path d="M51.98 82.012s.528 20.173 4.48 22.465c1.95 1.131 10.753 4.24 13.397 4.772 0 0 .71-.512.79-2.947 0 0-9.045-5.054-10.177-7.332-1.682-3.39 2.508-12.68.298-15.942-2.21-3.261-6.299-5.053-8.788-1.016Z" fill="#739AF0"/><path d="M102.333 130.193h71.682c5.002 0 9.058-4.546 9.058-10.155V10.155c0-5.608-4.056-10.155-9.058-10.155h-71.682c-5.002 0-9.058 4.547-9.058 10.155v109.883c.001 5.608 4.056 10.155 9.058 10.155Z" fill="#213192"/><path d="M102.099 117.016h72.297V13.646h-72.297v103.37Z" fill="#F3F9FF"/><path d="M164.143 112.476c-2.106 0-3.815-1.915-3.815-4.277V49.07c0-2.362 1.708-4.277 3.815-4.277 2.106 0 3.815 1.914 3.815 4.277v59.129c0 2.362-1.709 4.277-3.815 4.277Zm-12.498.001c-2.106 0-3.815-1.915-3.815-4.278V30.205c0-2.362 1.708-4.277 3.815-4.277 2.106 0 3.815 1.914 3.815 4.277v77.994c0 2.363-1.708 4.278-3.815 4.278Zm-13.639-.001c-2.106 0-3.815-1.915-3.815-4.278v-42.76c0-2.362 1.708-4.278 3.815-4.278s3.815 1.915 3.815 4.277v42.761c-.001 2.363-1.708 4.278-3.815 4.278Zm-13.269 0c-2.107 0-3.815-1.915-3.815-4.277v-66.44c0-2.361 1.707-4.277 3.815-4.277 2.106 0 3.815 1.915 3.815 4.278v66.44c0 2.361-1.709 4.276-3.815 4.276Zm-9.525-36.994V108.2c0 2.362-1.708 4.277-3.815 4.277-2.106 0-3.815-1.914-3.815-4.277V75.482c0-2.361 1.708-4.277 3.815-4.277s3.815 1.916 3.815 4.277Z" fill="#EE9849"/><path d="M121.283 32.185h6.461c.368 0 .668.337.668.75 0 .412-.3.749-.668.749h-6.461c-.367 0-.668-.337-.668-.75 0-.411.301-.748.668-.748Zm4.991 2.729h1.471c.368 0 .668.337.668.75 0 .411-.3.748-.668.748h-1.471c-.368 0-.669-.337-.669-.749s.301-.749.669-.749Zm21.632-14.228h6.461c.368 0 .668.337.668.749s-.3.749-.668.749h-6.461c-.367 0-.668-.337-.668-.75 0-.412.301-.748.668-.748Zm4.991 2.726h1.471c.368 0 .668.337.668.75 0 .411-.3.748-.668.748h-1.471c-.368 0-.668-.337-.668-.749s.3-.749.668-.749Zm7.931 16.128h6.461c.368 0 .668.336.668.748s-.3.75-.668.75h-6.461c-.367 0-.668-.338-.668-.75s.301-.749.668-.749Zm4.989 2.726h1.471c.368 0 .668.337.668.749s-.3.749-.668.749h-1.471c-.368 0-.669-.337-.669-.75 0-.411.301-.748.669-.748Zm-31.039 13.648h6.46c.368 0 .668.337.668.75 0 .411-.3.748-.668.748h-6.46c-.368 0-.669-.337-.669-.749s.301-.749.669-.749Zm4.988 2.726h1.471c.368 0 .668.338.668.75s-.3.749-.668.749h-1.471c-.368 0-.668-.337-.668-.75 0-.411.3-.748.668-.748Zm-31.6 7.288h6.461c.368 0 .668.337.668.749s-.3.749-.668.749h-6.461c-.367 0-.668-.337-.668-.75 0-.41.301-.748.668-.748Zm4.99 2.726h1.472c.367 0 .668.337.668.75 0 .412-.301.748-.668.748h-1.472c-.367 0-.668-.337-.668-.749s.301-.749.668-.749Z" fill="#A6C7F9"/><path d="M111.397 63.795c-1.308 0-2.374-1.194-2.374-2.66 0-1.468 1.066-2.662 2.374-2.662 1.309 0 2.374 1.194 2.374 2.661.001 1.468-1.064 2.661-2.374 2.661Zm0-4.292c-.802 0-1.455.732-1.455 1.631 0 .9.653 1.631 1.455 1.631.803 0 1.455-.731 1.455-1.63.001-.9-.652-1.632-1.455-1.632Z" fill="#2B478B"/><path d="M110.387 59.502a.438.438 0 0 1-.326-.15l-7.134-8H44.963c-.253 0-.46-.23-.46-.515 0-.284.207-.515.46-.515h58.344l7.404 8.3a.563.563 0 0 1 0 .73.434.434 0 0 1-.324.15Zm14.663 60.42c-1.31 0-2.374-1.194-2.374-2.661s1.065-2.661 2.374-2.661c1.308 0 2.374 1.194 2.374 2.661s-1.065 2.661-2.374 2.661Zm0-4.293c-.803 0-1.455.732-1.455 1.631 0 .9.652 1.631 1.455 1.631.802 0 1.454-.731 1.454-1.631 0-.899-.652-1.631-1.454-1.631Z" fill="#2B478B"/><path d="M190.565 128.072H133.14l-7.404-8.3a.562.562 0 0 1 0-.729.426.426 0 0 1 .65 0l7.134 7.999h57.045c.253 0 .459.231.459.515 0 .285-.206.515-.459.515ZM151.311 18.626c-1.309 0-2.373-1.195-2.373-2.662 0-1.467 1.065-2.661 2.373-2.661 1.309 0 2.374 1.194 2.374 2.661s-1.064 2.662-2.374 2.662Zm0-4.293c-.802 0-1.454.732-1.454 1.631 0 .9.652 1.631 1.454 1.631.803 0 1.455-.731 1.455-1.63 0-.9-.652-1.632-1.455-1.632Z" fill="#2B478B"/><path d="M150.301 14.333a.438.438 0 0 1-.326-.15l-7.134-8H84.877c-.253 0-.459-.231-.459-.515 0-.285.206-.516.46-.516h58.343l7.404 8.301c.179.2.179.527 0 .729a.432.432 0 0 1-.324.15Z" fill="#2B478B"/><path d="M83.7 49.13H45.622c-.643 0-1.164-.584-1.164-1.305s.521-1.306 1.164-1.306h38.08c.643 0 1.164.585 1.164 1.306 0 .721-.521 1.305-1.164 1.305Zm.001-4.12H60.327c-.644 0-1.165-.585-1.165-1.306 0-.721.521-1.306 1.165-1.306H83.7c.644 0 1.165.585 1.165 1.306 0 .721-.522 1.305-1.165 1.305Zm0-4.122H60.327c-.644 0-1.165-.584-1.165-1.305s.521-1.306 1.165-1.306H83.7c.644 0 1.165.585 1.165 1.306 0 .721-.522 1.305-1.165 1.305ZM123.35 3.693H85.27c-.643 0-1.164-.584-1.164-1.305 0-.722.52-1.306 1.164-1.306h38.079c.643 0 1.165.584 1.165 1.306 0 .72-.522 1.305-1.164 1.305Z" fill="#739AF0"/><path d="M157.395 147.538c3.237-3.628 3.237-9.511 0-13.139-3.236-3.628-8.483-3.628-11.719 0-3.236 3.628-3.236 9.511 0 13.139 3.236 3.629 8.483 3.629 11.719 0Z" fill="#82B378"/><path d="M151.537 133.115c3.869 0 7.005 3.517 7.005 7.854 0 2.146-.767 4.091-2.013 5.508l-4.992-5.508-6.545 2.8a8.684 8.684 0 0 1-.459-2.8c-.001-4.337 3.135-7.854 7.004-7.854Z" fill="#fff"/><path d="M152.561 136.982h2.981c.117 0 .213.108.213.239s-.095.24-.213.24h-2.981c-.117 0-.213-.108-.213-.24 0-.13.095-.239.213-.239Zm0 .756h2.981c.117 0 .213.107.213.239s-.095.239-.213.239h-2.981c-.117 0-.213-.107-.213-.239 0-.131.095-.239.213-.239Zm1.75.756h1.231c.117 0 .214.107.214.239 0 .131-.096.239-.214.239h-1.231c-.117 0-.213-.107-.213-.239.001-.132.096-.239.213-.239Zm-10.03-1.885 3.278-3.675h-3.278v3.675Zm43.522 4.812c.228-5.125-3.293-9.487-7.865-9.742-4.571-.256-8.461 3.692-8.689 8.817-.228 5.125 3.293 9.487 7.864 9.742 4.571.256 8.462-3.692 8.69-8.817Z" fill="#82B378"/><path d="M172.52 140.969c0-4.337 3.135-7.854 7.003-7.854 3.87 0 7.005 3.517 7.005 7.854s-3.135 7.853-7.005 7.853c-1.598 0-3.07-.6-4.248-1.609l4.248-6.244-6.545 2.8a8.679 8.679 0 0 1-.458-2.8Z" fill="#fff"/><path d="M180.604 136.982h2.981c.117 0 .213.108.213.239s-.095.24-.213.24h-2.981c-.117 0-.213-.108-.213-.24 0-.13.095-.239.213-.239Zm0 .756h2.981c.117 0 .213.107.213.239s-.095.239-.213.239h-2.981c-.117 0-.213-.107-.213-.239 0-.131.095-.239.213-.239Zm1.75.756h1.231c.117 0 .214.107.214.239 0 .131-.096.239-.214.239h-1.231c-.117 0-.213-.107-.213-.239s.096-.239.213-.239Zm-10.042-1.885 3.278-3.675h-3.278v3.675Z" fill="#82B378"/></svg>