<svg width="219" height="163" fill="none" xmlns="http://www.w3.org/2000/svg"><path d="M16.207 162.69s-29.603-36.462 1.268-68.206c34.31-35.28 1.893-74.753 36.08-88.807 48.206-19.816 56.847 19.379 110.831 9.662 45.08-8.113 44.123 55.28 30.8 77.902-11.047 18.758 31.527 28.054 9.736 69.364l-188.715.085Z" fill="#F9CD3D"/><path opacity=".3" d="M128.195 65.2s4.676-21.713 22.59-24.582c0 0 3.486-.507 4.764 3.138 1.277 3.645-5.68 3.864-9.936 5.462-4.255 1.6-14.091 8.147-17.418 15.982Z" fill="#AEC3FF"/><path opacity=".3" d="M127.664 61.175s-2.412-17.813 10.52-24.515c0 0 2.532-1.266 4.516 1.206s-3.285 4.39-6.104 6.684c-2.818 2.295-8.547 9.786-8.932 16.625Z" fill="#AEC3FF"/><path d="M55.02 54.662c2.194-5.958 12.794-3.303 12.794-3.303s6.477 11.15 8.58 11.552c2.103.402-3.587-10.565-3.587-10.565 4.142-.09 14.253 5.458 14.253 5.458s-1.621 12.363.521 12.258c2.143-.104.85-11.016.85-11.016 3.893 1.42 7.266 6.112 7.266 6.112 4.088 7.544-6.274 12.163-6.274 12.163s-.465 4.297 1.94 9.43c0 0 .559.956 1.079 2.55l-1.085-.076a9.613 9.613 0 0 0-.234-.83l-.004-.01a41.671 41.671 0 0 0-.264-.688v-.002a19.283 19.283 0 0 1-.59-1.456v-.003c-.844-2.014-2.079-4.648-2.993-5.247 0 0 .133-.153.269-.46l-.269.46c-2.15 3.668-11.487 3.649-16.583 2.272-5.096-1.377-2.733-2.611.227-4.676s8.752-1.059 10.546-1.825c1.793-.765-.66-1.829-4.129-1.817-3.47.01-5.448 3.182-11.06 3.297-5.612.115-9.085-10.187-9.085-10.187 3.76 1.41 10.816-.132 11.178-1.379.363-1.248-9.863-1.839-11.426-2.331-1.561-.49-4.113-3.724-1.92-9.681Z" fill="url(#a)"/><path d="M174.07 79.323c5.334 3.556-.249 12.585-.249 12.585s-12.912 3.047-13.896 4.87c-.983 1.824 11.53-.548 11.53-.548-1.057 3.821-9.389 11.651-9.389 11.651s-11.881-4.692-12.37-2.701c-.489 1.991 10.751 3.636 10.751 3.636-2.493 3.201-8.107 5.077-8.107 5.077-8.655 1.79-10.393-8.907-10.393-8.907s-4.156-1.541-9.942-.666c0 0-1.108.263-2.841.326l.376-.974c.302.012.597.013.887.001.002 0 .004.001.005-.001l.013-.001c.182-.013.441-.034.758-.063l.001.001.002-.001a21.383 21.383 0 0 1 1.615-.162h.003c2.242-.252 5.211-.7 6.061-1.383 0 0 .115.161.383.365a92.737 92.737 0 0 0-.383-.365c-3.063-2.923-.459-11.477 2.325-15.793 2.784-4.315 3.361-1.828 4.601 1.421 1.24 3.25-1.367 8.299-1.1 10.142.267 1.842 2.006-.13 2.955-3.314.95-3.184-1.664-5.82-.225-10.994 1.439-5.175 12.674-5.688 12.674-5.688-2.446 3.082-2.863 9.95-1.72 10.606 1.145.656 4.565-8.566 5.489-9.871.92-1.305 4.852-2.805 10.186.75Z" fill="url(#b)"/><path d="M38.772 148.294c-3.843-6.398 6.706-13.314 6.706-13.314s15.27 3.045 17.248 1.578c1.979-1.468-12.522-5.036-12.522-5.036 3.077-3.565 15.932-7.859 15.932-7.859s10.214 10.803 11.753 8.915c1.538-1.887-9.556-9.124-9.556-9.124 4.285-2.2 11.207-1.465 11.207-1.465 10.106 2.31 6.477 14.576 6.477 14.576s3.624 3.671 10.215 5.56c0 0 1.311.259 3.184 1.038l-.898.857c-.314-.16-.628-.305-.941-.433-.002-.002-.003-.002-.006-.002l-.013-.006c-.201-.073-.487-.177-.838-.302h-.003a25.115 25.115 0 0 1-1.798-.615l-.004-.002c-2.51-.826-5.892-1.793-7.144-1.479 0 0-.04-.228-.22-.577l.22.577c1.757 4.613-5.387 12.475-10.551 15.725-5.164 3.249-4.505.313-4.157-3.761.347-4.074 5.699-8.193 6.358-10.289.66-2.097-2.197-.839-4.835 2.096s-1.21 7.025-5.387 11.847c-4.176 4.823-16.368-.109-16.368-.109 4.175-2.096 8.132-9.225 7.253-10.483-.878-1.259-9.23 6.918-10.878 7.861-1.647.938-6.59.622-10.434-5.774Z" fill="url(#c)"/><path d="M139.168 161.667H86.76c-3.293 0-5.963-2.548-5.963-5.691V60.293c0-3.143 2.67-5.691 5.963-5.691h52.408c3.293 0 5.963 2.548 5.963 5.691v95.683c0 3.143-2.669 5.691-5.963 5.691Z" fill="#213192"/><path d="M139.166 162.381H86.759c-3.7 0-6.712-2.873-6.712-6.406V60.293c0-3.532 3.01-6.406 6.712-6.406h52.408c3.701 0 6.711 2.873 6.711 6.406v95.682c0 3.532-3.01 6.406-6.712 6.406ZM86.759 55.316c-2.875 0-5.215 2.232-5.215 4.977v95.682c0 2.745 2.339 4.977 5.215 4.977h52.408c2.875 0 5.215-2.232 5.215-4.977V60.293c0-2.744-2.339-4.977-5.215-4.977H86.759Z" fill="#2B478B"/><path d="M103.069 70.513c-.212.232-.24.49-.134.767l.002.004c.193.511.834 1.081 1.577 1.65.095.074.179.141.253.202l.057.048.044.038c.692.61.432.75 1.677 1.988 1.42 1.41 2.398 1.435 2.676 1.307.235-.11-.243-.858-.773-1.699a6.02 6.02 0 0 0-.077-.123l-.21-.337c-.621-1.012-.461-1.487-.314-2.992.119-1.224 1.994-6.836 1.994-6.836l-2.722-.448s-.819 4.47-1.723 5.158c-.483.367-1.023.371-1.488.644-.032.019-.065.038-.096.058-.263.166-.532.338-.743.571Z" fill="#FFC49C"/><path d="M103.069 70.514c-.212.232-.24.49-.134.767l.002.004c.237.51.861 1.078 1.58 1.646.094.075.177.143.25.207l.057.048.044.038c.692.61.432.75 1.677 1.988 1.42 1.41 2.398 1.435 2.676 1.307.235-.11-.243-.858-.773-1.699-.276-.096-1.561-.594-2.531-1.78-.855-1.042-1.425-2.38-2.008-3.155-.032.02-.065.038-.096.058-.264.166-.533.338-.744.571Z" fill="#233862"/><path d="M125.016 68.89c.168.801 1.365.668 2.703.355 1.339-.312 1.02.06 2.925-.142 1.904-.2 2.481-.878 2.539-1.15.052-.239-.889-.323-1.898-.434l-.382-.044c-1.139-.136-1.974-.838-3.008-1.414-.981-.546-2.444-2.77-2.444-2.77l-2.611.197s1.37 1.987 1.9 2.85c.312.508.295 1.18.256 1.699-.021.282-.04.57.02.853Z" fill="#FFC49C"/><path d="M127.719 69.248c1.338-.312 1.02.06 2.925-.142 1.904-.201 2.481-.879 2.539-1.15.052-.24-.889-.323-1.898-.434l-.009.018s-1.142.772-2.727.81c-1.292.029-2.66-.324-3.553-.31-.02.282-.039.57.021.852.167.802 1.364.668 2.702.356Z" fill="#233862"/><path d="m115.009 52.954-2.442 6.27-3.186 8.187s-.866.079-1.694-.148c-.763-.211-1.638-.761-1.638-.761s.885-8.79 2.536-13.836c.424-1.295.898-2.342 1.421-2.932 2.559-2.887 5.003 3.22 5.003 3.22Z" fill="#ED7D2B"/><path d="M112.526 42.998c-1.524-.469-5.735.082-10.09.876a.978.978 0 0 1-1-.425l-.613-.965-9.898-.738s-2.555 5.54-1.469 10.148c.267 1.13 1.713 2.591 3.925 2.723 6.199.368 10.382-1.687 16.817-3.846 1.119-.375 1.629 1.998 2.793 4.33 1.164 2.332 10.937 10.328 10.937 10.328s1.502.014 2.122-.208c.668-.24.912-.55.912-.55s-10.83-20.563-14.436-21.673Z" fill="#F99746"/><path d="M100.434 14.977c-1.268-.635-3.197-.722-3.51-.762-3.75-.482-6.009 4.72-6.142 6.297-.245 2.905-1.854 3.348-4.121 5.167-4.545 3.648-3.213 7.887-.728 9.462 1.491.945 4.12 0 4.12 0 .037.025 7.186-3.815 10.71-5.667 5.286-.718 2.903-12.878-.329-14.497Z" fill="#233862"/><path d="M97.81 27.897c.016.01-1.734.58-2.904.085-1.101-.464-1.935-2.193-1.918-2.194.501-.022 1.051-.44 1.474-3.18l.213.072 3.585 1.23s-.26 1.098-.427 2.144c-.142.878-.218 1.719-.023 1.843Z" fill="#FFB27D"/><path d="M98.26 23.91s-.179.78-.377 1.845c-2.06-.354-2.917-2.013-3.207-3.075l3.585 1.23Z" fill="#ED975D"/><path d="M98.794 25.001s-4.905-.628-4.447-3.538c.456-2.909.131-4.948 3.282-4.67 3.15.278 3.583 1.475 3.678 2.482.094 1.005-1.226 5.814-2.513 5.726Z" fill="#FFB27D"/><path d="M101.128 17.681s-3.139 2.583-5.274 2.79c-2.135.208-2.944-.445-2.944-.445s1.26-.998 2.016-2.608a1.5 1.5 0 0 1 1.238-.845c1.524-.125 4.415-.182 4.964 1.108Z" fill="#233862"/><path d="M99.166 17.448s1.05.97 1.381 1.689c.319.694.415 2.353.161 3.011 0 0 1.636-3.037.71-4.512-.983-1.564-2.252-.188-2.252-.188Z" fill="#233862"/><path d="M101.941 34.792c.376 8.449-.218 7.983-1.126 8.395-.313.142-.997.345-1.965.407-3.044.192-8.396-.287-8.6-.823-.701-1.858-.206-2.436-.791-5.28a23.02 23.02 0 0 0-.225-.986c-.489-1.954-.965-2.618.768-5.756 1.572-2.843 3.205-5.15 3.351-5.067 4.147 2.35 4.48.375 4.48.375s3.903 4.117 4.108 8.735Z" fill="#AEC3FF"/><path d="m112.567 59.224-3.186 8.187s-.866.079-1.694-.148c-.763-.211-1.638-.761-1.638-.761s.885-8.79 2.536-13.836l3.982 6.558Z" fill="#F99746"/><path d="M97.832 26.055s4.267.69 4.767 2.443l3.449 12.058s-2.168.373-3.17-.584c-1.002-.956-3.487-8.87-3.487-8.87l-1.559-5.047Z" fill="#AEC3FF"/><path d="M98.848 43.593c-3.044.192-8.395-.286-8.599-.823-.702-1.858-.206-2.435-.792-5.28l1.469-3.945s-.243 4.394 1.115 5.55c1.356 1.156 5.56 2.232 6.22 3.196.318.464.527.928.587 1.302Z" fill="#94B0ED"/><path d="M95.36 41.745s3.003-.639 3.487-.384c.484.254 1.669 1.18 1.817 1.503.148.322-1.079-.245-1.478-.347-.258-.066-.939.16-1.275.267-1.417.45-2.286.22-2.286.22l-.266-1.26Z" fill="#FFB27D"/><path d="M93.35 25.678s-4.033.237-5.429 2.095c-1.965 2.616-5.863 13.764-3.63 15.25 2.517 1.675 11.452.439 11.452.439s.297-1.327-.117-1.969c-.413-.642-7.136-1.678-7.446-1.974-.31-.296 3.878-5.774 3.878-6.663 0-.887 1.292-7.178 1.292-7.178Z" fill="#AEC3FF"/><path d="M98.994 42.16s.63.775.836.867c.206.093.339.07.339.07l-.424-.728-.75-.209Zm-.146-.799 1.829.848s-.078.122-.303.112c-.225-.01-.793-.207-.793-.207l-.733-.753Z" fill="#FFB27D"/><path d="M99.828 44.21h14.473l4.352-10.331h-14.449L99.828 44.21Z" fill="#2B478B"/><path d="M114.47 43.809H95.36v.402h18.94l.169-.402Z" fill="#2B478B"/><path d="M110.648 39.044c.109-.363-.111-.657-.491-.657a.984.984 0 0 0-.887.657c-.109.364.111.658.492.658.38 0 .778-.295.886-.658Z" fill="#EBF3FA"/><path d="m87.2 120.988.012-1.92 7.668-6.9c.64-.576 1.068-1.12 1.284-1.632.224-.52.336-1.052.336-1.596 0-.664-.152-1.264-.456-1.8a3.4 3.4 0 0 0-1.248-1.272c-.52-.312-1.112-.468-1.776-.468-.688 0-1.3.164-1.836.492-.536.32-.96.748-1.272 1.284a3.4 3.4 0 0 0-.444 1.752h-2.184c0-1.088.252-2.048.756-2.88a5.33 5.33 0 0 1 2.052-1.968c.872-.48 1.86-.72 2.964-.72 1.072 0 2.032.248 2.88.744a5.354 5.354 0 0 1 2.004 2.004c.496.84.744 1.792.744 2.856 0 .752-.096 1.404-.288 1.956a4.735 4.735 0 0 1-.864 1.536c-.392.464-.884.96-1.476 1.488l-6.372 5.724-.276-.72h9.276v2.04H87.2Zm21.35.012v-3.18h-7.944v-2.028l5.7-12.072h2.424l-5.7 12.072h5.52v-4.86h2.16v4.86h1.8v2.028h-1.8V121h-2.16Zm11.201-17.28h2.172L117.315 121h-2.172l4.608-17.28Zm6.2 17.28 6.216-15.228h-7.848v-2.052h10.14v2.052L128.255 121h-2.304Z" fill="url(#d)"/><defs><linearGradient id="a" x1="57.804" y1="88.28" x2="91.986" y2="46.914" gradientUnits="userSpaceOnUse"><stop stop-color="#6076FF"/><stop offset="1" stop-color="#B7BFF2"/></linearGradient><linearGradient id="b" x1="139.773" y1="73.156" x2="168.045" y2="117.466" gradientUnits="userSpaceOnUse"><stop stop-color="#6076FF"/><stop offset="1" stop-color="#B7BFF2"/></linearGradient><linearGradient id="c" x1="43.191" y1="157.932" x2="71.42" y2="106.504" gradientUnits="userSpaceOnUse"><stop stop-color="#6076FF"/><stop offset="1" stop-color="#B7BFF2"/></linearGradient><linearGradient id="d" x1="90.279" y1="127.125" x2="116.608" y2="83.339" gradientUnits="userSpaceOnUse"><stop stop-color="#6076FF"/><stop offset="1" stop-color="#B7BFF2"/></linearGradient></defs></svg>