<svg width="219" height="163" fill="none" xmlns="http://www.w3.org/2000/svg"><g clip-path="url(#a)"><path d="M18.66 161.771c-6.174-3.036-20.933-7.317-18.362-25.676.824-5.887 8.356-14.847 13.85-17.066 21.2-8.557 16.144-15.749 6.965-31.276-7.137-16.55-3.703-45.733 12.552-54.478 10.499-5.649 29.302 2.618 40.334-1.888 11.903-4.863 13.093-18.579 24.572-24.38 34.436-17.404 84.721-1.502 86.286 37.695 2.854 71.461 58.663 44.185 19.812 118.041l-186.009-.972Z" fill="#F9CD3D"/><path d="m29.17 139.765-.334-.166c-.133-.065-3.236-1.625-4.028-3.981-.384-1.139-.512-2.294-.362-3.252.16-1.037.63-1.736 1.322-1.971 1.367-.463 3.087 1.106 3.916 3.571.787 2.339-.332 5.324-.38 5.449l-.134.35Zm-3.495-8.538c-.274.246-.47.678-.558 1.243-.133.852-.014 1.892.335 2.928.557 1.659 2.537 2.938 3.341 3.401.263-.845.803-2.963.247-4.617l.322-.108-.322.108c-.684-2.032-2.083-3.471-3.055-3.142a.928.928 0 0 0-.31.187Zm5.405 12.53-.333.17c-.13.068-3.23 1.637-5.587.868-2.465-.804-4.046-2.513-3.6-3.89.225-.697.917-1.176 1.947-1.35.953-.161 2.105-.045 3.243.327 2.34.764 4.056 3.446 4.129 3.56l.2.315Zm-8.595-3.054a.945.945 0 0 0-.278.412c-.317.98 1.132 2.368 3.165 3.031 1.657.541 3.862-.29 4.712-.662-.519-.715-1.888-2.415-3.542-2.954-1.037-.338-2.074-.446-2.92-.304-.494.084-.886.251-1.137.477Z" fill="#F7F9FF"/><path d="M34.08 141.991c-1.422 1.281-3.278 1.923-3.377 1.957l-.354.12-.086-.364c-.034-.143-.818-3.538.485-5.654.629-1.022 1.433-1.859 2.263-2.354.898-.536 1.735-.62 2.355-.235.62.384.92 1.172.845 2.219-.07.967-.456 2.063-1.085 3.085a5.698 5.698 0 0 1-1.045 1.226Zm-3.231 1.17c.815-.336 2.785-1.27 3.698-2.755.573-.931.923-1.917.985-2.777.056-.768-.135-1.349-.524-1.589-.388-.242-.99-.153-1.65.24-.738.441-1.46 1.196-2.032 2.127-.918 1.491-.636 3.837-.477 4.754Z" fill="#F7F9FF"/><path d="m35.303 150.329-.801.507-.019-.019a1.875 1.875 0 0 1-.082.039l-.273.129-.16-.257c-.392-.632-.761-1.239-1.097-1.802-4.193-7.044-4.939-10.319-4.968-10.454l-.073-.334 1.316-.286.069.335c.018.077.791 3.33 4.93 10.252.317.531.647 1.071.979 1.606l.18.284Z" fill="#F7F9FF"/><path d="M71.5 144.128c0-6.417-5.183-11.62-11.576-11.62-5.08 0-9.395 3.284-10.953 7.854a4.357 4.357 0 0 0-2.28-.64c-2.423 0-4.389 1.973-4.389 4.406 0 .374.047.737.134 1.084a9.306 9.306 0 0 0-1.385-.104c-5.131 0-9.291 4.177-9.291 9.327 0 5.151 4.028 8.852 9.16 8.852 2.156 0 21.791-.863 21.791-.863s8.788-13.308 8.788-18.296Zm136.347 17.443c0 .421-.038.832-.113 1.232h-60.472l3.816-19.592c-2.829-1.802-4.66-4.681-4.66-7.924 0-5.458 5.19-9.885 11.591-9.885 6.4 0 11.59 4.426 11.59 9.885 0 .746-.097 1.471-.281 2.169.46-.046.928-.069 1.401-.069 5.311 0 9.822 2.918 11.452 6.976a5.164 5.164 0 0 1 2.382-.569c2.535 0 4.589 1.752 4.589 3.913 0 .333-.049.655-.141.963.473-.061.956-.092 1.45-.092 4.61 0 8.47 2.738 9.464 6.412.407-.078.826-.12 1.256-.12 3.686.001 6.676 3.001 6.676 6.701Zm-41.284-59.735c-1.994 2.157-5.886 2.674-5.886 2.674s-.166-4.299 1.828-6.456c1.995-2.157 4.52-3.058 5.64-2.014 1.121 1.044.413 3.639-1.582 5.796Zm-8.259.653c.533 2.894-1.376 6.337-1.376 6.337s-3.535-2.432-4.068-5.326c-.533-2.894.254-5.466 1.757-5.745 1.503-.278 3.154 1.84 3.687 4.734Zm-5.98 13.787c-.194.473-.354.788-.395.869a.076.076 0 0 1-.011.019l-.001.001-.002-.002-.013-.007a9.874 9.874 0 0 1-.321-.23c-.905-.669-3.352-2.668-3.831-5.008-.586-2.883.152-5.47 1.649-5.777 1.497-.307 3.188 1.781 3.776 4.662.262 1.29.038 2.701-.291 3.865a13.935 13.935 0 0 1-.56 1.608Zm10.409-4.605c-2.926-.166-5.805-2.844-5.805-2.844s3.191-2.87 6.117-2.705c2.927.165 5.23 1.542 5.144 3.074-.087 1.533-2.529 2.641-5.456 2.475Z" fill="#3F964F"/><path d="M157.718 119.169c-2.927.141-6.07-2.221-6.07-2.221s2.876-3.189 5.803-3.331c2.928-.141 5.361.987 5.435 2.519.074 1.533-2.24 2.891-5.168 3.033Z" fill="#3F964F"/><path d="M161.744 103.785c-.033.029-3.142 2.782-8.301 11.558a140.23 140.23 0 0 0-1.167 2.027l-.043-.024-.315-.18.001-.001-.003-.001-.012-.007a8.468 8.468 0 0 1-.322-.23c.448-.795.883-1.546 1.303-2.258 5.143-8.711 8.185-11.39 8.323-11.509l.536.625ZM35.856 75.728c2.147 1.908 2.74 5.716 2.74 5.716s-4.184.262-6.331-1.646c-2.147-1.908-3.083-4.366-2.092-5.49.992-1.125 3.536-.489 5.683 1.42Zm.827 8.092c2.807-.59 6.205 1.206 6.205 1.206s-2.288 3.526-5.095 4.115c-2.807.59-5.33-.123-5.637-1.592-.307-1.47 1.72-3.138 4.527-3.729Zm13.568 5.552c.464.18.775.33.855.369l.02.01-.002.002-.006.012c-.026.04-.1.153-.217.321-.631.903-2.522 3.353-4.79 3.877-2.796.643-5.333-.023-5.666-1.486-.335-1.464 1.66-3.172 4.454-3.815 1.251-.287 2.63-.1 3.772.197.615.158 1.16.348 1.58.513Z" fill="#3F964F"/><path d="M45.524 79.26c-.094 2.878-2.636 5.766-2.636 5.766s-2.87-3.066-2.776-5.944c.094-2.877 1.382-5.169 2.876-5.12 1.495.05 2.63 2.421 2.536 5.299Zm7.42 4.751c.205 2.872-2.024 6.01-2.024 6.01s-3.173-2.749-3.379-5.62c-.205-2.871.838-5.285 2.33-5.393 1.491-.108 2.867 2.133 3.073 5.004Z" fill="#3F964F"/><path d="M37.866 80.414c.028.032 2.782 3.021 11.45 7.884.635.356 1.302.723 2.002 1.099l-.022.042-.168.313-.001.002-.007.012c-.025.04-.1.153-.216.321-.785-.422-1.528-.83-2.231-1.227-8.605-4.848-11.285-7.774-11.404-7.906l.597-.54Zm.787 30.845c2.123-1.175 5.313-.566 5.313-.566s-.98 3.418-3.104 4.592c-2.123 1.175-4.34 1.225-4.949.114-.611-1.114.616-2.967 2.74-4.14Zm6.655 1.638c.33-2.411 2.719-4.618 2.719-4.618s2.147 2.83 1.817 5.241c-.33 2.411-1.611 4.226-2.864 4.053-1.253-.171-2-2.266-1.672-4.676Zm8.257-9.268a10.065 10.065 0 0 1 .549-.591v-.001s.002.001.002.003l.008.009c.023.031.093.123.193.264.537.761 1.942 2.968 1.713 4.93-.284 2.417-1.533 4.256-2.788 4.108-1.256-.149-2.044-2.229-1.76-4.644.127-1.082.667-2.132 1.227-2.96.3-.448.607-.83.856-1.118Zm-9.365.905c2.256.893 3.825 3.746 3.825 3.746s-3.247 1.423-5.503.53c-2.256-.892-3.709-2.572-3.244-3.754.463-1.181 2.668-1.414 4.923-.522Z" fill="#3F964F"/><path d="M50.078 99.953c2.335.652 4.193 3.325 4.193 3.325s-3.083 1.756-5.419 1.104c-2.335-.652-3.954-2.171-3.616-3.394.338-1.223 2.507-1.686 4.842-1.035Z" fill="#3F964F"/><path d="M42.94 110.983c.033-.013 3.186-1.365 9.506-6.912.463-.407.943-.836 1.44-1.288l.027.03.2.223v.001l.002.002.008.009c.024.031.093.123.193.264-.558.508-1.094.985-1.607 1.434-6.29 5.5-9.372 6.811-9.51 6.869l-.26-.632Z" fill="#3F964F"/><path d="m204.728 131.136-.065-.343c-.025-.136-.608-3.334.697-5.25 1.024-1.503 2.41-2.473 3.53-2.473.337 0 .636.088.888.261 1.11.763.911 2.931-.455 4.935-1.296 1.901-4.141 2.739-4.261 2.773l-.334.097Zm4.162-7.43c-.889 0-2.125.903-3.006 2.196-.918 1.348-.758 3.547-.65 4.41.775-.278 2.651-1.062 3.567-2.406 1.126-1.652 1.411-3.506.62-4.049a.92.92 0 0 0-.531-.151Zm-6.054 11.099-.313-.153c-.123-.06-3.028-1.5-3.779-3.695-.786-2.296-.404-4.439.869-4.878a1.45 1.45 0 0 1 .474-.079c1.201 0 2.516 1.394 3.199 3.39.745 2.178-.283 4.97-.328 5.088l-.122.327Zm-2.749-8.167a.827.827 0 0 0-.268.044c-.905.312-1.124 2.175-.475 4.069.528 1.545 2.382 2.728 3.135 3.156.241-.789.734-2.768.207-4.308-.578-1.689-1.695-2.961-2.599-2.961Zm.026 14.86-.442-.073-.03-.042a7.202 7.202 0 0 1-.214-.11c-.855-.455-2.912-1.704-3.556-3.475-.383-1.054-.529-2.129-.412-3.026.128-.971.55-1.635 1.19-1.868.158-.058.327-.088.501-.088 1.191 0 2.521 1.369 3.233 3.328.305.839.382 1.869.228 3.06a11.12 11.12 0 0 1-.45 2.006l-.048.288Zm-2.963-8.044c-.1 0-.195.017-.284.049-.4.146-.683.639-.778 1.353-.104.798.03 1.765.378 2.725.567 1.555 2.514 2.726 3.196 3.096a10.334 10.334 0 0 0 .32-1.552c.14-1.091.074-2.019-.195-2.761-.603-1.659-1.737-2.91-2.637-2.91Z" fill="#F7F9FF"/><path d="M206.919 136.172c-2.163 0-4.346-1.48-4.438-1.543l-.288-.198.222-.268c.088-.107 2.169-2.598 4.471-2.811.244-.022.488-.034.729-.034 2.12 0 3.677.838 3.787 2.038.124 1.346-1.667 2.574-4.075 2.797-.132.013-.27.019-.408.019Zm-3.772-1.875c.657.391 2.253 1.238 3.772 1.238.119 0 .237-.005.35-.016 1.985-.183 3.589-1.148 3.502-2.105-.077-.832-1.433-1.459-3.156-1.459-.22 0-.446.011-.67.031-1.623.15-3.206 1.678-3.798 2.311Zm.366 8.082c-1.988 0-3.954-1.053-4.036-1.098l-.307-.166.193-.291c.076-.115 1.887-2.811 4.155-3.264.501-.099 1-.15 1.483-.15 1.752 0 3.014.656 3.215 1.671.262 1.325-1.39 2.735-3.763 3.208-.292.06-.609.09-.94.09Zm-3.408-1.498c.622.288 2.034.861 3.408.861.289 0 .564-.026.818-.076 1.956-.39 3.451-1.517 3.264-2.461-.135-.681-1.202-1.158-2.593-1.158-.442 0-.899.047-1.36.139-1.599.319-3.015 2.004-3.537 2.695Z" fill="#F7F9FF"/><path d="m200.325 141.656-.827-.317.004-.025-.074-.038-.248-.133.101-.264c.248-.648.492-1.264.723-1.833 2.878-7.088 4.893-9.487 4.978-9.585l.207-.242.951.824-.211.241c-.018.022-2.01 2.415-4.848 9.442a92.534 92.534 0 0 0-.642 1.634l-.114.296ZM134.259 20.884c-2.173 0-3.941-1.775-3.941-3.956s1.768-3.955 3.941-3.955 3.941 1.775 3.941 3.955c0 2.181-1.768 3.956-3.941 3.956Zm0-7.093a3.136 3.136 0 0 0-3.126 3.137 3.136 3.136 0 0 0 3.126 3.138 3.136 3.136 0 0 0 3.126-3.137 3.136 3.136 0 0 0-3.126-3.138ZM31.5 123.322c-2.174 0-3.941-1.775-3.941-3.956 0-2.182 1.768-3.956 3.94-3.956 2.174 0 3.94 1.775 3.94 3.956s-1.767 3.956-3.94 3.956Zm0-7.094a3.135 3.135 0 0 0-3.127 3.138 3.135 3.135 0 0 0 3.126 3.138 3.135 3.135 0 0 0 3.126-3.138 3.135 3.135 0 0 0-3.126-3.138Zm11.239 12.167a2.37 2.37 0 0 0-2.304-2.437 2.37 2.37 0 0 0-2.428 2.312 2.371 2.371 0 0 0 2.304 2.437 2.37 2.37 0 0 0 2.428-2.312ZM128.194 9.254a2.371 2.371 0 0 1-2.367 2.376 2.37 2.37 0 0 1-2.366-2.376 2.371 2.371 0 0 1 2.366-2.375 2.371 2.371 0 0 1 2.367 2.375Zm76.972 100.2a2.37 2.37 0 0 1-2.366 2.375 2.37 2.37 0 0 1-2.366-2.375 2.371 2.371 0 0 1 2.366-2.376 2.372 2.372 0 0 1 2.366 2.376Z" fill="#F7F9FF"/><path d="M161.056 162.892h-96.18a2.748 2.748 0 0 1-2.743-2.753V29.78a2.748 2.748 0 0 1 2.742-2.753h96.181a2.747 2.747 0 0 1 2.742 2.753v130.36a2.746 2.746 0 0 1-2.742 2.752Z" fill="#213192"/><path d="M78.766 34.93 52.56 45.147l9.634 24.905 26.208-10.216-9.635-24.906Z" fill="#F5A3B7"/><path d="M69.408 38.553v28.619l1.63-.498V37.912l-1.63.641Z" fill="#F291A9"/><path d="M158.378 157.011h-69.7l-16.252-11.709V30.686h85.952V157.01Z" fill="#5F7FCF"/><path d="M157.075 155.982H87.374L71.123 144.37V30.7h85.952v125.282Z" fill="#fff"/><path d="m87.375 156.029-16.244-11.661 10.783-2.194 5.461 13.855Z" fill="#CDD8FA"/><path d="m71.13 144.369 17.548 12.641s-13.256-3.931-17.547-12.641Z" fill="#5F7FCF"/><path d="M139.381 27.57v6.288c0 .65-.525 1.178-1.174 1.178H90.366a1.176 1.176 0 0 1-1.175-1.178V27.57c0-2.694 2.176-4.879 4.86-4.879h40.47c1.251 0 2.393.475 3.254 1.255a4.876 4.876 0 0 1 1.606 3.624Z" fill="#F37A50"/><path d="M124.608 24.378h-20.639c0-.575.046-1.137.136-1.687.802-4.919 5.056-8.671 10.184-8.671 5.125 0 9.38 3.752 10.182 8.67.09.551.137 1.113.137 1.688Z" fill="#F37A50"/><path d="m137.777 23.948-48.584 8.731v-5.108c0-2.694 2.176-4.878 4.86-4.878h10.053c.802-4.92 5.056-8.672 10.183-8.672 5.126 0 9.381 3.753 10.183 8.672h10.053a4.821 4.821 0 0 1 3.252 1.255Z" fill="#DE623C"/><path d="M117.371 19.602a3.091 3.091 0 0 1-3.086 3.098 3.092 3.092 0 0 1-3.086-3.098 3.092 3.092 0 0 1 3.086-3.098 3.091 3.091 0 0 1 3.086 3.098Z" fill="#E3E9FF"/><path d="M91.533 67.145H76.979a.836.836 0 0 1-.835-.837V51.697c0-.463.374-.838.835-.838h14.555c.46 0 .834.375.834.838v14.61a.837.837 0 0 1-.835.838Zm-13.72-1.675h12.885V52.534H77.813V65.47Z" fill="#8EA5ED"/><path d="m82.785 66.126-7.799-9.074 2.767-2.396 5.057 5.885 10.303-11.764 2.745 2.422-13.073 14.927Z" fill="#E62552"/><path d="M132.73 51.96H99.16v3.004h33.57v-3.003Zm20.376 0h-18.085v3.004h18.085v-3.003Zm-34.682 5.97H99.16v3.003h19.264V57.93Zm22.97 5.972H99.16v3.003h42.234v-3.003Zm11.711-5.972h-32.519v3.003h32.519V57.93Z" fill="#CDD8FA"/><path d="M91.535 100.464H76.98a.836.836 0 0 1-.834-.838v-14.61c0-.463.373-.838.834-.838h14.555c.46 0 .834.375.834.837v14.611a.837.837 0 0 1-.835.838Zm-13.72-1.675H90.7V85.853H77.815v12.936Z" fill="#8EA5ED"/><path d="m82.787 99.447-7.799-9.074 2.767-2.396 5.057 5.885 10.303-11.764 2.745 2.421-13.073 14.928Z" fill="#E62552"/><path d="M146.338 84.856H99.164v3.003h47.174v-3.003Zm-17.378 5.968H99.164v3.004h29.796v-3.004Zm-18.067 5.971H99.164v3.003h11.729v-3.003Zm41.975.002h-40.069V99.8h40.069v-3.003Zm0-5.973h-21.485v3.004h21.485v-3.004Z" fill="#CDD8FA"/><path d="M91.533 133.635H76.979a.835.835 0 0 1-.835-.837v-14.611c0-.462.374-.837.835-.837h14.555c.46 0 .834.375.834.837v14.611a.837.837 0 0 1-.835.837Zm-13.72-1.675h12.885v-12.935H77.813v12.935Z" fill="#8EA5ED"/><path d="m82.785 132.615-7.799-9.074 2.767-2.396 5.057 5.886 10.303-11.765 2.745 2.421-13.073 14.928Z" fill="#E62552"/><path d="M113.635 117.898H99.16v3.004h14.475v-3.004Zm39.09 0h-37.489v3.004h37.489v-3.004Zm-14.426 5.969H99.16v3.004h39.14v-3.004Zm-14.254 5.971H99.16v3.003h24.885v-3.003Zm20.977.002h-19.311v3.003h19.311v-3.003Zm7.842-5.973h-12.323v3.004h12.323v-3.004Z" fill="#CDD8FA"/></g><defs><clipPath id="a"><path fill="#fff" d="M0 0h219v163H0z"/></clipPath></defs></svg>