<svg width="360" height="240" fill="none" xmlns="http://www.w3.org/2000/svg"><path d="M28.45 239.454s-44.052-60.465-22.524-122.712C19.961 76.167 72.6 53.934 102.307 76.167c12.653 9.47 53.246.32 74.92-38.884 42.119-76.182 189.113-29.916 162.352 87.05-12.951 56.602 39.414 58.66 12.732 115.24l-323.862-.119Z" fill="#F9CD3D"/><path d="m116.49 239.58.105-.002c.858-.015 1.521-.704 1.44-1.496l-5.725-56.107-4.996.437 8.221 56.409c.064.44.474.766.955.759Zm-55.125.001-.105-.002c-.858-.015-1.522-.704-1.44-1.496l5.725-56.107 4.995.437-8.22 56.409c-.063.44-.475.766-.955.759Zm95.513-.002.105-.001c.859-.015 1.522-.705 1.441-1.496l-5.726-56.108-4.995.437 8.221 56.41c.064.44.474.766.954.758ZM63.07 173.813l-10.163-49.247c-1.304-6.667 4.327-12.765 11.636-12.6l19.598.44c6.76.151 12.639 4.592 14.518 10.966l14.867 50.441H63.07Z" fill="#8CB4F4"/><path d="m69.219 173.813-10.163-49.247c-1.305-6.667 4.326-12.765 11.635-12.6l19.599.44c6.76.151 12.638 4.592 14.518 10.966l14.867 50.441H69.219Zm-3.316 8.982h77.537c1.558 0 2.832-1.251 2.832-2.78v-3.422c0-1.529-1.274-2.78-2.832-2.78H63.07v6.202c0 1.529 1.275 2.78 2.833 2.78Z" fill="#8CB4F4"/><path d="M102.29 182.794h49.428c1.255 0 2.282-1.008 2.282-2.239v-4.504c0-1.231-1.027-2.24-2.282-2.24H102.29c-1.255 0-2.282 1.009-2.282 2.24v4.504c0 1.233 1.026 2.239 2.282 2.239Z" fill="#8CB4F4"/><path d="M130.615 163.507c-4.195 7.164-9.471 9.93-9.471 9.93H99.195s34.62-15.396 31.42-9.93Z" fill="#233862"/><path d="M157.688 234.686c-.238 2.261 2.966 2.844 6.681 3.065 3.715.222 2.584.956 7.667 1.915 5.084.959 7.141-.387 7.517-1.059.335-.595-2.023-1.557-4.535-2.643-.317-.136-.632-.275-.95-.415-2.827-1.255-4.393-3.772-6.582-6.113-2.073-2.217-3.989-9.268-3.989-9.268l-6.905-1.522s1.875 6.347 2.52 9.054c.379 1.593-.226 3.363-.761 4.709-.29.73-.581 1.48-.663 2.277Z" fill="#FFB27D"/><path d="M164.368 237.751c3.715.221 2.584.955 7.667 1.914 5.084.959 7.14-.387 7.517-1.059.335-.595-2.023-1.557-4.535-2.643l-.04.042s-3.594 1.156-7.716.009c-3.36-.934-6.596-2.944-8.911-3.607-.288.733-.579 1.483-.662 2.278-.238 2.261 2.965 2.844 6.68 3.066Z" fill="#0F2549"/><path d="M147.225 156.169c-3.716-2.561-28.298-7.125-40.842-8.446l-13.865-11.812s-11.802 17.154-11.896 30.277c-.045 6.12 2.827 6.728 2.829 6.729 0 0 44.448.323 46.396.521 3.189.323 7.396 8.12 8.447 15.221 1.052 7.101 19.586 35.983 19.586 35.983s3.866 1.214 5.652 1.113c1.923-.111 2.813-.742 2.813-.742s-10.739-63.07-19.12-68.844Z" fill="#233862"/><path d="M146.191 234.686c-.238 2.26 2.967 2.844 6.681 3.065 3.715.222 2.584.956 7.668 1.915 5.084.959 7.14-.387 7.517-1.059.335-.595-2.023-1.557-4.535-2.643-.316-.136-.633-.276-.95-.415-2.828-1.255-4.393-3.772-6.582-6.114-2.073-2.216-3.989-9.267-3.989-9.267l-6.907-1.523s1.875 6.348 2.52 9.055c.379 1.593-.226 3.363-.761 4.709-.288.73-.579 1.48-.662 2.277Z" fill="#FFB27D"/><path d="M152.872 237.75c3.715.222 2.584.956 7.667 1.915 5.084.959 7.14-.387 7.517-1.059.335-.595-2.023-1.557-4.535-2.643l-.04.042s-3.594 1.156-7.716.009c-3.359-.934-6.596-2.944-8.911-3.607-.288.733-.579 1.482-.662 2.278-.239 2.261 2.965 2.844 6.68 3.065Z" fill="#233862"/><path d="M135.625 156.169c-3.228-2.225-12.938-3.949-23.656-5.23-2.963-.354-5.396-2.468-6.12-5.31l-24.931-9.718s-11.802 17.154-11.896 30.277c-.044 6.12 2.828 6.728 2.83 6.729 0 0 44.448.323 46.396.521 3.189.323 7.396 8.12 8.446 15.221 1.052 7.101 19.586 35.983 19.586 35.983s3.866 1.214 5.653 1.113c1.922-.111 2.812-.742 2.812-.742s-10.739-63.07-19.12-68.844Z" fill="#2B478B"/><path d="M102.267 64.638c-3.425-1.766-8.639-2.005-9.486-2.116-10.134-1.336-16.233 13.115-16.593 17.494-.661 8.07-5.012 9.301-11.135 14.356-12.279 10.135-8.678 21.912-1.963 26.288 4.028 2.625 11.129 0 11.129 0 .1.069 19.42-10.599 28.943-15.745 14.277-1.992 7.835-35.78-.895-40.278Z" fill="#233862"/><path d="M100.154 99.942c.044.023-4.503 2.053-7.787.988-3.088-.998-5.808-5.56-5.765-5.568 1.34-.19 2.703-1.488 3.084-9.178l.593.147 9.98 2.476s-.395 3.102-.558 6.036c-.136 2.464-.108 4.808.453 5.1Z" fill="#FFB27D"/><path d="M100.258 88.807s0 .638-.373 3.524c-5.645-1.397-8.133-3.234-9.889-5.336l10.262 1.812Z" fill="#ED975D"/><path d="M102.388 89.2s-13.197 2.108-14.409-5.977c-1.211-8.085-3.73-13.258 4.644-14.947 8.374-1.688 10.478 1.16 11.551 3.762 1.073 2.601 1.614 16.404-1.786 17.161Z" fill="#FFB27D"/><path d="M102.401 67.936s-5.994 9.283-11.343 11.482c-5.35 2.2-7.978 1.083-7.978 1.083s2.434-3.621 3.069-8.485a3.995 3.995 0 0 1 2.506-3.2c3.838-1.509 11.264-3.887 13.746-.88Z" fill="#233862"/><path d="M97.137 68.833s3.512 1.767 4.958 3.424c1.397 1.598 3.009 5.936 2.894 7.884 0 0 1.733-9.335-1.877-12.544-3.826-3.401-5.975 1.236-5.975 1.236Z" fill="#233862"/><path d="M110.712 119.694c-.401 26.325-.11 20.823-3.045 23.321-.707.602-2.695.961-5.31 1.13-8.226.535-22.684-.794-23.234-2.286-1.898-5.161-.558-6.764-2.14-14.667a64.529 64.529 0 0 0-.609-2.741c-1.32-5.427-2.603-7.275 2.078-15.993 4.247-7.898 9.239-14.314 9.637-14.084 11.202 6.527 11.586 1.056 11.586 1.056s11.233 11.425 11.037 24.264Z" fill="#fff"/><path d="M99.672 95.431s11.466 1.908 12.82 6.779c1.353 4.87 9.319 33.504 9.319 33.504s-5.859 1.033-8.566-1.623c-2.708-2.657-9.421-24.649-9.421-24.649l-4.152-14.01Z" fill="#fff"/><path d="M102.355 144.147c-8.226.536-22.684-.794-23.234-2.286-1.898-5.161-.558-6.764-2.14-14.667l3.967-10.964s-.655 12.208 3.013 15.42c3.664 3.21 15.02 6.199 16.804 8.881.86 1.287 1.425 2.578 1.59 3.616Z" fill="#EBF3FF"/><path d="M92.932 139.012s8.115-1.773 9.423-1.067c1.31.706 4.509 3.281 4.91 4.177.401.896-2.914-.679-3.994-.963-.698-.184-2.536.442-3.446.74-3.83 1.254-6.177.609-6.177.609l-.716-3.496Z" fill="#FFB27D"/><path d="M88.087 94.375s-11.484.658-15.257 5.822c-5.31 7.267-15.843 38.24-9.806 42.37 6.798 4.653 30.94 1.218 30.94 1.218s.803-3.684-.315-5.467c-1.117-1.784-19.283-4.663-20.121-5.486-.839-.823 10.48-16.044 10.48-18.512s4.079-19.945 4.079-19.945Z" fill="#fff"/><path d="M102.748 140.163s1.7 2.153 2.258 2.41c.558.257.917.193.917.193l-1.146-2.024-2.029-.579Zm-.393-2.218 4.944 2.356s-.21.338-.819.311c-.608-.027-2.144-.579-2.144-.579l-1.981-2.088Z" fill="#FFB27D"/><path d="M120.567 143.532h-22.96c0-.992.82-1.796 1.831-1.796h21.129v1.796Z" fill="#ED7D2B"/><path d="M120.501 118.992h35.498l-8.515 24.54h-35.726l8.743-24.54Z" fill="#ED7D2B"/><path d="m156.52 118.992-8.515 24.54h-35.728l8.746-24.54h35.497Z" fill="#F99746"/><path d="M137.381 131.035c-.221.938-1.173 1.698-2.129 1.698s-1.552-.76-1.331-1.698c.221-.938 1.174-1.698 2.13-1.698.955 0 1.551.76 1.33 1.698Z" fill="#fff"/><path d="M89.67 149.051h155.56c.654 0 1.184-.52 1.184-1.162v-3.195c0-.642-.53-1.163-1.184-1.163H89.671c-.654 0-1.185.521-1.185 1.163v3.195c0 .642.53 1.162 1.185 1.162Z" fill="#182D4F"/><path d="m249.037 239.99.067-.007c.797-.098 1.361-.795 1.261-1.559l-13.863-92.083-5.074.142 16.31 92.581c.104.592.677 1.002 1.299.926Zm-164.577 0-.067-.007c-.797-.098-1.36-.795-1.26-1.559l13.862-92.083 5.075.142-16.31 92.581c-.103.592-.676 1.002-1.3.926Zm32.092 0-.067-.007c-.797-.098-1.361-.795-1.26-1.559l13.862-92.083 5.074.142-16.31 92.581c-.104.592-.677 1.002-1.299.926Z" fill="#182D4F"/><path d="M198.334 239.916h27.507c1.323-1.584.835-7.43.635-9.341-.041-.384-.07-.609-.07-.609s-9.393-7.373-10.684-1.727c-.039.176-.087.35-.138.52-1.625 5.281-8.918 7.68-13.128 8.349-2.736.438-3.749 1.834-4.122 2.808Z" fill="#233862"/><path d="M273.392 152.2c-.992 0-47.119 8.499-54.748 17.767-3.811 4.63-4.378 58.103-4.378 58.103s4.714 5.737 14.899 2.406c0 0 7.466-36.586 6.916-47.681-.153-3.068 31.515-.445 37.311-1.916 5.796-1.472 19.958-13.847 16.838-19.874-3.12-6.028-16.838-8.805-16.838-8.805Z" fill="#233862"/><path d="M218.841 139.107s-9.304.123-11.504 1.049c-2.2.926-6.664 3.05-5.469 3.376 1.195.326 6.894-.134 8.126.051 1.232.186 2.75-.051 3.505-.051h4.272l1.07-4.425Zm-10.877-21.912s-3.173-2.225-6.253-2.657c-1.758-.247-3.465-.554-4.497-.911-2.843-.983-8.53-6.002-8.099-6.59 1.38-1.886 8.02 2.107 9.178 1.677 1.159-.429-2.227-2.791-1.05-3.623.616-.434 2.055 1.741 3.23 1.96 1.591.296 2.835 2.501 3.315 2.616.933.225 5.019 3.206 5.019 3.206l-.843 4.322Z" fill="#FFB27D"/><path d="M268.798 91.216s-7.083 2.154-14.061 21.012c-6.979 18.857-9.628 19.876-12.164 20.615-2.537.741-24.802 5.091-24.802 5.091v5.596h34.306s12.864-12.009 16.721-20.093c3.856-8.083 0-32.22 0-32.22Z" fill="url(#a)"/><path d="M186.178 239.916h27.507c1.323-1.584.835-7.43.635-9.341-.041-.384-.07-.609-.07-.609s-9.393-7.373-10.684-1.727a7.35 7.35 0 0 1-.139.52c-1.625 5.281-8.917 7.68-13.127 8.349-2.737.438-3.749 1.834-4.122 2.808Z" fill="#1B3051"/><path d="M259.8 152.2c-.994 0-47.119 8.499-54.748 17.767-3.811 4.63-4.378 58.103-4.378 58.103s4.716 5.737 14.899 2.406c0 0 7.466-36.586 6.916-47.681-.153-3.068 31.516-.445 37.311-1.916 5.796-1.472 19.958-13.847 16.838-19.874-3.122-6.028-16.838-8.805-16.838-8.805Z" fill="#2B478B"/><path d="M262.687 97.192c3.318-.269 6.797-1.136 9.804-2.094 3.759-1.197 6.788-2.947 4.837-6.317-1.799-3.107-4.712-10.048-4.515-15.799l-6.994 5.532-4.751 3.757s.02 2.215.54 6.097c.094.708.205 1.472.336 2.287a1.65 1.65 0 0 1-.78 1.67 2.771 2.771 0 0 0-.107.066c-2.364 1.455-1.149 5.027 1.63 4.801Z" fill="#FFB27D"/><path d="M261.066 81.356s-.242.805.175 3.775c4.236-.678 8.195-3.994 8.195-3.994-2.157-.58-2.94-2.868-4.547-2.654l-3.823 2.873Z" fill="#ED975D"/><path d="M257.147 82.035s16.292 2.657 17.823-7.327c1.529-9.982 4.663-16.362-5.675-18.48-10.339-2.119-12.948 1.392-14.284 4.603-1.336 3.208-2.062 20.256 2.136 21.204Z" fill="#FFB27D"/><path d="M252.615 56.41c-.7 2.405 1.172 5.332 4.315 6.297 4.666 1.43 3.634 7.047 5.735 6.971 2.099-.076 2.947-3.228 4.822-.71 1.599 2.148-1.331 4.694-1.13 5.873.346 2.022 3.575 6.16 6.483 5.952 2.908-.208 8.352-13.775 7.264-17.972-1.089-4.198-5.444-8.624-9.566-9.234-4.122-.61-9.845 1.135-11.167 1.135-1.322 0-6.378.39-6.756 1.689Z" fill="#2B478B"/><path d="M290.447 105.072c-2.355-9.302-8.864-19.061-13.264-19.054-7.5.014-18.28 1.957-22.632 12.494-3.206 7.761-7.482 52.404-2.65 55.578 11.047 7.259 36.655 22.074 41.203 6.965 4.169-13.844 1.43-39.839-2.657-55.983Z" fill="url(#b)"/><path d="M272.233 95.814c-2.138-5.461-9.039-7.35-13.745-3.756-2.545 1.943-5.661 4.71-9.426 8.645-13.995 14.626-16.84 14.534-19.468 14.232-2.628-.302-24.834-4.927-24.834-4.927s-1.138.822-1.807 2.154c-.893 1.777-.443 2.989-.443 2.989-.871-.552 7.871 5.361 12.222 7.719 5.747 3.113 14.405 6.033 17.853 7.141a4.697 4.697 0 0 0 3-.043c5.119-1.81 22.307-8.409 36.301-19.856 3.686-3.017 2.33-9.234.347-14.298Z" fill="url(#c)"/><path d="m277.937 86.109-1.698-3.754s-15.198 1.216-17.753 9.704c.002 0 11.782-5.768 19.451-5.95Z" fill="#fff"/><path d="m314.835 239.58.105-.002c.859-.015 1.522-.705 1.441-1.496l-5.726-56.107-4.995.436 8.221 56.41c.062.44.474.766.954.759Zm-29.466 0 .105-.002c.858-.015 1.521-.704 1.441-1.496l-5.724-56.107-4.996.437 8.221 56.409c.063.44.473.766.953.759Z" fill="#8CB4F4"/><path d="m230.05 239.58-.105-.002c-.858-.015-1.521-.704-1.44-1.496l5.725-56.107 4.995.437-8.22 56.409c-.064.44-.474.766-.955.759Z" fill="#73A2E5"/><path d="m313.217 174.026 5.433-46.862c.712-6.752-1.59-13.366-11.521-13.877l-17.471-1.044c-10.354-.419-15.028 8.037-16.339 14.547l-10.372 51.512 50.27-4.276Z" fill="#8CB4F4"/><path d="M310.299 182.795h-77.537c-1.558 0-2.832-1.251-2.832-2.779v-3.423c0-1.529 1.274-2.78 2.832-2.78h80.37v6.203c0 1.528-1.275 2.779-2.833 2.779Z" fill="#73A2E5"/><path d="M310.931 182.795h-45.782c-1.21 0-2.2-.971-2.2-2.159v-4.664c0-1.188.99-2.159 2.2-2.159h47.982v6.823c0 1.188-.99 2.159-2.2 2.159Z" fill="#8CB4F4"/><defs><linearGradient id="a" x1="222.285" y1="142.143" x2="269.299" y2="90.12" gradientUnits="userSpaceOnUse"><stop stop-color="#6076FF"/><stop offset="1" stop-color="#B7BFF2"/></linearGradient><linearGradient id="b" x1="253.616" y1="165.434" x2="319.215" y2="125.316" gradientUnits="userSpaceOnUse"><stop stop-color="#6076FF"/><stop offset="1" stop-color="#B7BFF2"/></linearGradient><linearGradient id="c" x1="208.541" y1="129.175" x2="237.727" y2="71.697" gradientUnits="userSpaceOnUse"><stop stop-color="#6076FF"/><stop offset="1" stop-color="#B7BFF2"/></linearGradient></defs></svg>