<svg width="323" height="210" fill="none" xmlns="http://www.w3.org/2000/svg"><path d="m2.69 210 107.985-.568 28.784-.009 9.535-.003 28.839-.009 131.753-.037s30.136-39.086-2.054-76.208c-33.376-38.49-49.604-7.144-59.863-61.321-25.824-136.373-281.138-57-214.17 59.049C57.61 172.679-13.967 150.47 2.69 210Z" fill="#F9CD3D"/><path d="M127.6 203.429s.411 4.756-.593 5.252l-12.837-.027s0-1.485 2.062-1.815c2.061-.33 5.684-1.54 6.297-4.235.612-2.694 5.071.825 5.071.825Zm36.836-1.84s.387 6.597-.617 7.091l-12.839-.026s0-1.485 2.062-1.815c2.062-.33 5.685-1.54 6.298-4.235.614-2.694 5.096-1.015 5.096-1.015Z" fill="#233862"/><path d="M164.874 202.401s-2.548 1.315-3.639 1.555c-1.212.268-3.488.098-3.488.098-4.367-11.731-17.909-59.421-17.909-59.421-.588 13.187-2.964 26.338-5.431 36.91l-.197.844v.003l-.18.756c-.003.012-.007.022-.008.033-2.995 12.476-5.999 20.972-5.999 20.972s-.775.983-2.934.533c-2.475-.514-3.3-1.605-3.3-1.605 1.602-50.814 2.495-79.468 2.495-79.468s21.434-11.605 27.256-1.685c5.822 9.921 13.334 80.475 13.334 80.475Z" fill="#2A4E96"/><path d="M156.236 128.778c-2.779-9.956-3.236-19.409-3.213-27.236.029-11.14 1.028-18.984-2.318-20.307 0 0-10.335-3.011-17.448-4.338-1.133-.625-2.391-1.28-3.346-1.669-2.245-.913-11.002-13.67-12.487-16.725-1.485-3.054-3.942-16.361-3.942-16.361l-3.413 1.09s-1.025 14.936-.533 18.83c.491 3.893 11.334 20.635 12.234 22.099 3.86 14.14 0 37.152 1.764 42.282.907 2.639 17.736 7.475 26.947 6.867.459-.031.9-.075 1.318-.134l.004-.001c2.179-.304 3.764-1.001 4.345-2.225.283-.593.328-1.312.088-2.172Z" fill="#AEC3FF"/><path d="M113.483 42.142s1.929-5.614.519-5.778c-1.411-.163-4.95-.146-5.386.803-.437.948 1.456 6.065 1.456 6.065l3.411-1.09Z" fill="#FFB27D"/><path d="m76.773 56.133-11.382-6.899a3.524 3.524 0 0 1 2.18-1.606 3.523 3.523 0 0 1 2.675.409 1.557 1.557 0 0 0 2.14-.529l3.08-5.105 2.665 1.616-3.08 5.105a1.56 1.56 0 0 0 .526 2.145 3.532 3.532 0 0 1 1.603 2.184 3.533 3.533 0 0 1-.407 2.68Z" fill="#ED7D2B"/><path d="m76.774 56.133-7.567-4.586c-1.753-1.467-.896-2.722-.017-2.939a3.523 3.523 0 0 1 2.676.41 1.557 1.557 0 0 0 2.14-.53l3.08-5.104 1.045.633-3.08 5.106a1.56 1.56 0 0 0 .527 2.145 3.531 3.531 0 0 1 1.603 2.184c.216.88.099 1.844-.407 2.68Z" fill="#F99746"/><path d="m110.07 22.877-9.212 11.637c-3.203 5.308-8.74 7.852-14.046 8.066h-.002a17.304 17.304 0 0 1-5.24-.577c-1.364-.373-2.936.364-3.799 1.792l-.18.299-.983 1.626-1.94-1.176.99-1.642c.946-1.572.894-3.49-.143-4.654-4.434-4.97-6.097-13.193-1.857-20.22l6.238-13.44 30.174 18.289Z" fill="#F99746"/><path d="M71.537 27.474c.753-4.36-1.352-6.735-3.578-9.251-1.782-2.012-3.623-4.09-4.02-7.185-.44-3.433 1.156-6.938 3.97-8.72C70.046.963 72.41.92 74.395 2.195c2.818 1.815 3.866 5.326 3.03 10.155-.6 3.457-1.94 6.378-1.997 6.502l-1.77-.822c.05-.108 4.918-10.819-.317-14.19-1.806-1.165-3.528-.418-4.392.13-2.15 1.363-3.416 4.167-3.077 6.82.32 2.498 1.886 4.266 3.543 6.138 2.323 2.622 4.955 5.594 4.042 10.88l-1.92-.334Z" fill="#ED7D2B"/><path d="M93.497 40.784c3.504-2.693 6.58-1.929 9.837-1.12 2.604.646 5.298 1.316 8.216.23 3.238-1.205 5.593-4.248 5.862-7.572.204-2.528-.855-4.645-2.904-5.814-2.912-1.659-6.502-.958-10.381 2.026-2.777 2.138-4.735 4.685-4.817 4.792l1.547 1.187c.072-.094 7.276-9.39 12.686-6.309 1.868 1.062 2.008 2.938 1.925 3.96-.205 2.54-2.096 4.966-4.597 5.897-2.356.877-4.645.308-7.069-.294-3.396-.844-7.245-1.8-11.493 1.465l1.188 1.552Z" fill="#F99746"/><path d="M86.81 42.579a17.3 17.3 0 0 1-5.239-.577c-1.365-.373-2.936.363-3.799 1.792l-.18.299c-.678.35-1.19.793-1.432 1.354l-1.49-.902.99-1.642c.946-1.573.894-3.492-.143-4.655-4.434-4.97-6.097-13.193-1.857-20.22l6.238-13.44 4.99 3.025c-.003 0-20.256 27.502 1.923 34.966Z" fill="#ED7D2B"/><path d="m77.832 46.903-4.97-3.012a1.443 1.443 0 0 1-.485-1.972 1.436 1.436 0 0 1 1.968-.487l4.97 3.013c.674.409.893 1.296.485 1.972a1.435 1.435 0 0 1-1.968.486Z" fill="#F99746"/><path d="m79.356 30.166.533-.884c2.527 1.37 2.852 1.207 3.89-.513l5.218-8.648c.735-1.218.364-1.573-.54-2.286l-.643-.552.475-.789c1.965.898 4.303 1.663 6.012 2.013L86.95 30.691c-1.067 1.767-1.052 2.07 1.307 3.662l-.534.884-8.366-5.07Z" fill="#fff"/><path d="M108.615 37.166s-.183 1.933.437 2.298c.618.364.838-2.297.838-2.297s.036 2.184.509 2.331c.473.149.764-2.514.764-2.514s.051 2.115.371 2.042c.321-.073.539-2.042.539-2.042s.146 1.535.582 1.26c.437-.276.851-1.925.851-1.925l-4.891.847Zm4.869 4.976s1.318-1.036 1.61-1.985c.291-.948 1.146-2.542.691-2.735-.454-.193-1.782 1.86-1.782 1.86l-.519 2.86Zm22.855 33.229-.166.864s-.767 2.653 2.471 3.704c3.237 1.053 5.968 1.54 6.289-.561.019-1.671-.022-4.281.219-5.62.09-.497.227-1.017.437-1.592l-6.4-1.402-1.954-.065-.896 4.672Z" fill="#FFB27D"/><path d="m137.236 70.698-.595 3.15c6.081 1.614 8.74-1.106 8.949-1.682l-6.4-1.402-1.954-.066Z" fill="#E2915A"/><path d="M146.528 70.858c-1.885 3.842-7.066 2.242-9.25 1.352-.614-.248-.991-.443-.991-.443-.661-.392-.745-1.634-.515-3.166.451-3.03 2.12-7.198 2.92-8.159 1.207-1.445 3.106-2.84 7.999-.072 4.895 2.77 2.256 5.567-.163 10.488Z" fill="#FFB27D"/><path d="M138.16 56.132s2.363.472 5.423.05c2.484-.341 4.98 1.507 5.753 2.24a1.405 1.405 0 0 0-.069-.608s.326.404.273.826c.033.043.046.07.033.074 0 0 .485.045.744.262 0 0-.199-.087-.311.025a.137.137 0 0 1-.043.027c2.986 2.644 1.773 8.204.307 9.158-1.764 1.147-4.793 4.304-4.793 4.304s.108-1.152.727-2.425c.618-1.27-.536-1.596-1.825-2.616s.405-2.383-.582-3.778c-.987-1.394-5.838-2.102-5.555-2.876-1.559-1.125-.132-4.486-.082-4.663Z" fill="#233862"/><path d="M138.937 69.444s-.315.475-1.577-.087c0 0-1.061-.47-.815-1.03-.001 0 1.202-.016 2.392 1.117Z" fill="#fff"/><path d="M137.516 82.428s-2.92 19.413-24.754 32.895l-2.037 5.931h7.88s19.556-16.435 20.867-38.269l-1.956-.557Z" fill="#ED7D2B"/><path d="M137.516 82.428v-2.944l3.6 1.023-1.643 2.479-1.957-.558Z" fill="#DB6516"/><path d="m136.34 75.371-2.106 1.805s-.583 2.52.836 5.253l4.245-2.432c0-.002-2.506-1.215-2.975-4.626Zm2.976 4.624s.421 2.285 1.527 3.415c0 0 4.783-.84 6.11-3.137l-2.003-3.135c0 .001-.478 2.14-5.634 2.857Z" fill="#9DB0F4"/><path d="M167.969 130.313s.009 4.345-.39 5.21c-.399.865-2.188 3.68-3.013 4.282-.825.602.177-3.481-.081-4.227-.259-.747-.577 1.473-.958 1.564-.382.092-.486-1.865-.574-2.573-.089-.707 1.625-2.655 2.137-4.234.51-1.578 2.879-.022 2.879-.022Z" fill="#FFB27D"/><path d="M150.639 81.235s4.206 1.148 7.056 7.433c2.988 6.59 10.986 21.228 11.284 23.249.296 2.02-.53 20.889-.53 20.889s-3.5.136-4.581-1.528c0 0-1.219-16.564-1.757-17.464-.539-.9-14.313-17.362-13.153-21.54 1.159-4.177 1.681-11.039 1.681-11.039Z" fill="#AEC3FF"/><path d="M156.15 130.953c-1.041.895-2.449 1.676-4.345 2.225l-.003.001a3.452 3.452 0 0 1-1.318.133c-7.697-.795-6.515-30.763-2.785-32.978 3.93-2.334 5.325 1.21 5.325 1.21-.021 7.827.436 17.28 3.214 27.236.241.859.196 1.577-.088 2.173Z" fill="#9DB0F4"/><path d="M134.029 183.146c.051-.233.111-.486.18-.755-.059.254-.12.506-.18.755Zm.377-1.603c2.356-11.171-.183-41.107.951-41.676 1.164-.583 4.48 4.766 4.48 4.766-.589 13.187-2.964 26.338-5.431 36.91Z" fill="#233862"/><path d="m76.82 204.357-.68-4.899 2.853-2.389.898 6.488-3.071.8Z" fill="#FFB27D"/><path d="M86.288 208.736H74.662s-.28-1.776.328-3.123c.581-1.293 1.487-2.09 1.57-3.081.739.762 1.647 1.252 3.328 1.026.206.334 1.33 2.126 2.018 2.62.76.548 4.148.353 4.382 2.558Z" fill="#233862"/><path d="M83.952 138.192a584.344 584.344 0 0 0-1.888 17.293c-2.705 28.696-2.174 46.236-2.174 46.236s-.195.519-1.873.527c-.948.005-1.877-.202-1.877-.202s-6.058-18.739-5.59-29.403c.055-1.282.205-2.448.472-3.451 1.454-5.456-5.377-26.321 2.048-34.09 7.424-7.77 11.232.277 10.882 3.09Z" fill="#F99746"/><path d="M83.952 138.192a584.344 584.344 0 0 0-1.888 17.293L70.55 172.643c.055-1.282.205-2.448.472-3.451 1.454-5.456-5.377-26.321 2.048-34.09 7.424-7.77 11.232.277 10.882 3.09Z" fill="#ED7D2B"/><path d="M93.103 79.726s-.28-1.4-.595-2.468c-.14-.473.833-3.579 1.506-3.961.673-.382 2.428 1.71 1.931 3.316-.254.825-.674 3.51-.674 3.51l-2.168-.397Z" fill="#FFB27D"/><path d="M93.103 79.726s-.366-.811-.697-.944c-.33-.132-.686-1.459-.928-1.986 0 0 .235-.344.646.1.25.27.808 1.062.808 1.062l.171 1.768Zm-47.992 4.711c-.07.147-.17.411-.258.659l-.004-.2c-.005-.493-1.843-3.178-2.598-3.347-.755-.168-1.822 2.347-.878 3.737.485.714 1.669 3.159 1.669 3.159l1.957-1.014s.113-.884.39-1.106c.278-.222.23-1.596.307-2.17.002-.001-.323-.262-.585.282Zm12.211 118.454c-.164-1.571-.205-5.704-.205-5.704s4.202-1.346 4.047-.421c-.76 4.542-.553 6.793-.553 6.793l-1.7 1.017-1.589-1.685Z" fill="#FFB27D"/><path d="M80.443 137.899s-16.231 44.588-19.426 63.928c0 0-.74.51-2.12.341-1.567-.192-1.995-1.282-1.995-1.282s-2.933-23.181 2.895-31.228c4.004-5.53-1.727-29.812 7.6-31.759 9.324-1.946 13.046 0 13.046 0Z" fill="#F99746"/><path d="M77.562 95.009v-.002a26.235 26.235 0 0 0-1.504-4.494 17.755 17.755 0 0 0-.777-1.556c-.04-.072-.08-.138-.12-.208v-.001c-.628-1.057-1.273-1.787-1.854-2.013-1.062-.411-2.242-.297-3.054-.127.179-.249.583-.391.583-.391-.52 0-1.58.673-1.58.673-7.474-1.675-7.038 8.923-6.529 11.324.507 2.403-1.9 3.57-5.294 6.027-6.477 4.69-6.368 9.66-6.368 9.66.058.025.121.054.188.087.261-.643.814-1.861 1.393-2.118-.017.057-.488 1.634-.622 2.517.987.544 2.352 1.389 3.834 2.34l.001.001a293.607 293.607 0 0 1 5.928 3.926c-.084-.484-.166-1.174-.043-1.564l.559 1.736.073.226c1.12.761 2.004 1.369 2.452 1.682l.123.085.202.14c-.15-.614.504-2.213 1.601-4.229a56.486 56.486 0 0 1 1.41-2.43c.154-.25.309-.5.47-.755v-.002c.129-.205.26-.408.395-.615l.001-.002c.318-.492.646-.988.982-1.484a70.925 70.925 0 0 1 2.698-3.735c1.32-1.706 2.615-3.188 3.7-4.158.035-.074.07-.148.099-.223.17-.395.3-.835.4-1.282.032-.134.06-.269.084-.404.27-1.426.275-2.84.272-3.177.088 1.378.052 2.417-.039 3.203a8.09 8.09 0 0 1-.07.48v.001a6.623 6.623 0 0 1-.196.842c.177-.221.333-.463.471-.728a5.19 5.19 0 0 0 .246-.544c.878-2.238.642-5.577-.115-8.708Z" fill="#163560"/><path d="M76.158 105.744c.025.008-2.093 1.543-3.889 1.329-1.689-.202-3.064-2.154-3.042-2.162.668-.24.725-1.216.106-5.284l.32.015 5.382.258s.126 1.666.353 3.221c.188 1.302.45 2.528.77 2.623Z" fill="#FFB27D"/><path d="M75.034 99.9s.125 1.666.352 3.22c-2.937.353-4.88-2.09-5.734-3.478l5.382.257Z" fill="#ED975D"/><path d="M69.026 99.152s-1.893-2.2-2.57-4.22c-.483-1.442-.545-7.048 5.08-7.077 0 0 1.623-.08 3.278.713 1.317.632 3.301 2.121 2.084 7.202l-.261 1.694-7.611 1.688Z" fill="#163560"/><path d="M84.632 137.043s-7.003 4.17-15.795 2.026c-.104-.025-7.24-1.167-7.24-1.167.124-.336 1.046-5.86 1.166-6.169 1.56-4.034 4.411-25.928 6.792-27.007.608.664 2.347 1.117 3.835.985 1.713-.151 2.286-.893 2.144-1.691a53.118 53.118 0 0 1 3.351 1.733c1.734 2.601 5.747 31.29 5.747 31.29Z" fill="#fff"/><path d="M76.23 101.225s-6.904 1.146-7.55-3.173c-.646-4.32-1.972-7.082 2.409-7.996 4.38-.914 5.486.605 6.05 1.994.566 1.39.87 8.765-.91 9.175Z" fill="#FFB27D"/><path d="M74.223 89.48s-1.143 5.35-3.94 6.533c-2.796 1.184-4.174.59-4.174.59s1.967-2.107 1.97-5.277c0 .001 4.356-4.045 6.144-1.847Z" fill="#163560"/><path d="M73.814 89.962s1.583.92 2.091 1.97c.508 1.049 1 3.29 1.647 3.115 0 0 .917-3.657-.976-5.368-2.009-1.814-2.761.283-2.761.283Z" fill="#163560"/><path d="M95.316 79.826c-.28-.099-.694-.334-1.234-.382-.48-.043-1.084.113-1.084.113s-1.948 12.134-2.093 12.778c-.144.643-8.354 9.912-10.567 9.875-1.999-.033-4.367 1.513-4.807 1.81 0 0 4.654 9.864 4.888 11.717.252 2.017 2.662 33.065 2.662 33.065s-.143 1.444 2.55.668c2.692-.777 3.366-1.419 3.366-1.419s-2.473-24.444-2.993-32.046a14.56 14.56 0 0 0-.473-2.836 2.879 2.879 0 0 1 .464-2.442c3.405-4.683 8.782-12.272 9.08-13.885.44-2.37.241-17.016.241-17.016Z" fill="#2B478B"/><path d="M67.008 208.736H55.382s-.279-1.776.329-3.123c.581-1.293 1.487-2.09 1.57-3.081.738.762 1.647 1.252 3.328 1.026.206.334 1.33 2.126 2.017 2.62.76.547 4.148.353 4.382 2.558Z" fill="#233862"/><path d="M74.995 116.695c-.391-2.417-5.394-12.119-5.394-12.119s-3.163-.948-5.243-.192c-2.082.756-12.85-5.337-13.196-5.899-.345-.561-6.113-11.333-6.113-11.333s-.478-.278-1.245.124a1.408 1.408 0 0 0-.761 1.17s4.451 13.561 5.636 15.659c.715 1.265 6.719 5.67 11.374 8.968a2.934 2.934 0 0 1 1.21 2.784c-.626 4.637-.785 7.248-1.505 15.207-.597 6.601-.826 19.382-.826 19.382s5.209 1.807 8.804 2.045c3.595.24 4.379-3.558 4.379-3.558s3.283-29.754 2.88-32.238Z" fill="#2B478B"/><path d="M73.965 99.09s.839.493 1.828.343c.678-.101.833-.908.833-.908s-.472-.148-1.224.003c-.752.152-1.437.561-1.437.561Z" fill="#fff"/><path d="M208.447 98.182s2.144 3.542-1.888 5.772c0 0 3.099 1.12 4.179.697 0 0-.267.279-.472.381 0 0 2.914.927 4.366.42 1.452-.506 4.578-14.64-4.02-15.386 0 0-6.781-2.433-8.214 5.15-1.435 7.586-4.046 6.849-4.046 6.849s.633.536.984.635c0 0 .564-.036.738-.269 0 0-.217.384-.386.478 0 0 2.75 1.041 4.434.454 1.684-.586 4.297-3.54 4.325-5.181Z" fill="#163560"/><path d="M199.816 209.768h10.969s.263-1.675-.311-2.946c-.548-1.219-1.402-1.972-1.481-2.907-.697.719-1.555 1.182-3.14.968-.194.316-1.254 2.005-1.903 2.472-.716.516-3.913.332-4.134 2.413Z" fill="#233862"/><path d="M208.88 205.569s-.937.303-1.913.391c-1.728.153-1.979-.361-1.979-.361s-1.717-15.316-7.274-44.596c-.803-4.229-1.118-6.569-1.408-10.328a298.532 298.532 0 0 1-.264-3.845c-.252-3.946.346-10.588 3.301-12.333 1.343-.795 3.173-.576 5.635 1.365.193.153.393.318.594.493 7.202 6.243 4.249 24.173 4.541 32.603.049 1.397.186 2.534.473 3.313.372 1.007 1.17 2.403 1.351 3.719 1.509 10.931-3.057 29.579-3.057 29.579Z" fill="#2B478B"/><path d="m210.109 168.957-13.805-18.281a300.05 300.05 0 0 1-.264-3.846c-.252-3.945.346-10.587 3.301-12.332l5.635 1.365c.193.153.393.318.594.493 7.202 6.243 4.249 24.173 4.539 32.601Zm39.023 17.676-4.566-9.995s-1.63.457-2.544 1.508c-.879 1.009-1.515.83-3.514-.562.752 1.166.855 1.853 1.32 3.387.368.045 2.458 2.073 4.601 2.632.854.224 2.723 3.696 4.703 3.03Z" fill="#233862"/><path d="M201.27 138.884s9.829 34.244 13.43 36.449c3.602 2.204 22.536 5.236 26.385 6.889 0 0 .469-.673.194-2.113-.061-.32-.605-1.47-.605-1.47s-11.758-8.859-19.497-9.753c-1.921-.222 3.91-29.615-9.068-30.789-11.857-1.073-10.839.787-10.839.787Z" fill="#2B478B"/><path d="M187.246 82.702s.265-1.32.563-2.329c.132-.446-.787-3.377-1.422-3.737-.635-.36-2.291 1.613-1.822 3.128.241.778.636 3.31.636 3.31l2.045-.372Z" fill="#FFB27D"/><path d="M187.246 82.702s.346-.766.658-.89c.311-.125.646-1.377.875-1.873 0 0-.221-.325-.608.092-.236.256-.763 1.002-.763 1.002l-.162 1.67Zm45.279 4.445c.067.14.161.387.243.62a6.03 6.03 0 0 0 .003-.188c.004-.465 1.738-2.999 2.451-3.157.712-.16 1.719 2.213.828 3.525-.457.674-1.575 2.98-1.575 2.98l-1.847-.957s-.107-.835-.369-1.044c-.262-.21-.215-1.506-.29-2.048.002 0 .308-.244.556.269Zm-29.29 20.102c-.024.007 1.974 1.457 3.669 1.252 1.594-.19 2.891-2.032 2.87-2.039-.629-.226-.684-1.147-.1-4.985l-.301.014-5.078.244s-.119 1.572-.333 3.038c-.18 1.23-.427 2.387-.727 2.476Z" fill="#FFB27D"/><path d="M204.294 101.736s-.119 1.572-.333 3.038c2.771.334 4.605-1.973 5.409-3.282l-5.076.244Z" fill="#ED975D"/><path d="M209.96 101.03s1.787-2.075 2.424-3.981c.455-1.362.515-6.65-4.793-6.678 0 0-1.532-.076-3.093.673-1.242.596-3.115 2.002-1.966 6.796l.246 1.597 7.182 1.593Z" fill="#163560"/><path d="M196.867 137.565s4.98 3.15 13.275 1.127c.097-.024 4.716-.762 4.716-.762-.115-.318-4.968-8.354-5.082-8.646-1.472-3.806 1.936-21.976-.311-22.996-.574.626-2.214 1.056-3.616.93-1.616-.144-2.158-.843-2.024-1.595a50.575 50.575 0 0 0-3.163 1.636c-1.636 2.453-3.795 30.306-3.795 30.306Zm6.301-34.58s6.513 1.082 7.123-2.994c.609-4.075 1.86-6.681-2.272-7.544-4.134-.862-5.175.57-5.709 1.882-.535 1.311-.821 8.27.858 8.656Z" fill="#FFB27D"/><path d="M205.059 91.906s1.078 5.049 3.716 6.165c2.638 1.117 3.938.556 3.938.556s-1.856-1.988-1.858-4.979c.001 0-4.11-3.817-5.796-1.742Z" fill="#163560"/><path d="M205.446 92.358s-1.494.869-1.973 1.858c-.48.99-.942 3.105-1.553 2.939 0 0-.864-3.452.922-5.065 1.893-1.709 2.604.268 2.604.268Z" fill="#163560"/><path d="M234.055 90.928s-4.201 12.795-5.318 14.774c-.673 1.194-8.241 5.915-12.633 9.027a.738.738 0 0 0-.168.202l-.005.006c-1.096 1.699-4.504 12.214-3.689 14.101 3.425 7.932 5.773 11 6.627 13.225a2.115 2.115 0 0 1-1.26 2.752 36.068 36.068 0 0 1-5.927 1.554c-.466.082-.946.154-1.438.216-6.75.859-11.321-.729-13.641-1.902a3.1 3.1 0 0 1-1.692-2.939c.14-2.509 1.392-4.993 1.957-11.028.428-4.579-3.515-11.547-3.348-13.984.066-.964.822-2.117 1.232-2.865l.001-.003c.725-1.323 1.123-2.518.64-3.181-3.212-4.418-10.149-10.511-10.432-12.032-.415-2.237-.227-16.055-.227-16.055.265-.092.655-.315 1.164-.36.454-.041 1.023.106 1.023.106s1.837 11.45 1.974 12.056c.137.606 7.882 9.351 9.97 9.316 1.885-.032 4.545 1.427 4.958 1.708 0 0-1.693 3.006-2.115 7.066-.294 2.839 1.598 1.577 2.788-.367 1.609-2.633 4.849-6.382 4.849-6.382s2.636-.687 4.6.027c1.964.713 12.124-5.038 12.45-5.566.327-.53 5.768-10.692 5.768-10.692s.451-.261 1.175.116c.713.375.717 1.104.717 1.104Z" fill="#F99746"/><path d="M205.057 100.773s-.279.563-.654.574c-.375.011-1.326-.08-1.391-.177-.065-.098-.223-.686-.223-.686s1.575-.064 2.268.289Z" fill="#fff"/><path d="M217.608 145.017a36.182 36.182 0 0 1-5.926 1.554c-2.329-3.218-6.272-7.268-5.257-14.715 1.048-7.698 8.601-15.8 9.507-16.918-1.097 1.7-4.504 12.215-3.689 14.102 3.425 7.932 5.773 11 6.627 13.225a2.117 2.117 0 0 1-1.262 2.752Zm-22.857-30.953c.725-1.323 1.123-2.518.64-3.181-3.212-4.418-10.148-10.511-10.432-12.032.688 1.653 9.088 6.592 11.45 8.715 2.336 2.097-1.562 6.395-1.658 6.498Z" fill="#ED7D2B"/><path d="M53.752 53.131s1.574 2.161 1.406 4.626c-.126 1.83-1.753 3.68-1.863 3.754l2.568 1.373s1.905-3.39 1.264-6.221c-.197-.868-1.108-2.256-1.777-2.874-.737-.682-1.598-.658-1.598-.658Z" fill="#6BB7BF"/><path d="m48.5 53.36-1.627-3.604s7.592.258 10.107 6.456c0 .001-5.312-3.796-8.48-2.852Z" fill="#86D1CD"/><path d="M19.824 145.043s-1.81-1.369-2.276-3.415c-.347-1.519.524-3.424.595-3.51l-2.425-.484s-.718 3.224.498 5.368c.373.656 1.454 1.562 2.15 1.9.764.372 1.458.141 1.458.141Z" fill="#6BB7BF"/><path d="m24.036 143.563 2.206 2.53s-6.234 1.66-9.799-2.761c0 0 5.25 1.779 7.593.231Z" fill="#86D1CD"/><path d="M297.298 156.82s-.159-2.376 4.293-3.527c1.994-.515 6.437.402 3.621 4.781-2.929 4.557-5.54 2.911-5.54 2.911s6.109-4.793 3.665-6.983c-2.698-2.418-3.734 2.373-3.734 2.373s-1.089-.057-2.305.445Z" fill="#F1A34F"/><path d="M298.876 161.259s-1.665-.904-1.004-2.908l2.392.417s-.92 2.17 1.33 2.433c0-.001-2.165.514-2.718.058Z" fill="#DB7714"/><path d="M142.774 33.807s2.487-3.59 6.301-1.048l2.323-2.226s-2.171-1.65-7.176 1.31c-3.275 1.937-1.448 1.964-1.448 1.964Z" fill="#5685D8"/><path d="M140.32 37.326s-.491-4.121 6.39-6.691c0 0-2.487 1.207-3.255 5.316l-3.135 1.375Z" fill="#739AF0"/><path d="M167.971 15.471s2.033-1.287 2.248-2.843c0 0 1.98.107 2.408.75 0 0-.909 2.575-1.98 3.058 0 0-2.409.162-2.676-.965Zm-65.452 146.885s-2.169-1.373-2.398-3.033c0 0-2.113.115-2.57.802 0 0 .97 2.746 2.112 3.261.001 0 2.57.171 2.856-1.03Z" fill="#F99746"/><path d="M191.58 56.03s2.18-1.378 2.409-3.046c0 0 2.122.116 2.581.805 0 0-.974 2.759-2.122 3.277 0 0-2.582.173-2.868-1.035Z" fill="#86D1CD"/><path d="M233.994 119.271s-1.26-1.533-1.937-1.748c-.678-.214-1.989-1.232-2.16-.812-.171.419.881 1.065.827 1.544-.056.479-3.346 1.248-3.325 1.755.02.507.774 1.732 2.028 1.591 1.255-.141 4.438-.898 5.092-.57.651.326-.525-1.76-.525-1.76Z" fill="#FFB27D"/><path d="M267.924 111.816c-1.857 2.501-4.033 4.477-6.267 6.034-7.102 4.952-14.808 5.69-14.808 5.69-1.846-.592-7.519-1.211-10.871-1.752h-.001c-1.461-.235-2.481-.457-2.549-.653l.085-2.926s12.302-.651 14.34-1.599c3.212-2.773 6.051-6.375 7.899-9.189 1.563-2.376 3.31-4.131 6.193-5.161 4.167-1.49 11.747 1.792 5.979 9.556Z" fill="#AEC3FF"/><path d="m262.284 116.01-.627 1.841c-7.102 4.953-14.808 5.691-14.808 5.691-1.483 0-7.519-1.212-10.87-1.753.133.012 9.125.715 11.114.509 2.002-.207 11.324-8.305 11.324-8.305l3.867 2.017Z" fill="#9DB0F4"/><path d="M254.252 208.735h13.595c.975-.661-.262-7.134-.262-7.134s-3.71-1.411-4.352 1.458c-.642 2.867-4.726 3.779-6.886 4.128-1.479.243-1.947 1.057-2.095 1.548Zm20.164 0h13.596c.975-.661-.262-7.134-.262-7.134s-3.71-1.411-4.351 1.458c-.643 2.867-4.727 3.779-6.887 4.128-1.48.243-1.948 1.057-2.096 1.548Z" fill="#233862"/><path d="M257.91 142.702s.611 7.642 1.329 16.827c.976 12.477 3.609 43.412 3.609 43.412s1.726 1.476 5.55.668c0 0 3.254-10.672 4.227-22.852l.046-.602c.905-12.4 2.313-38.51 2.313-38.51l-17.074 1.057Z" fill="#2B478B"/><path d="M257.703 140.062s.82 10.282 1.538 19.467l13.387 21.228.045-.602c.905-12.399 2.313-38.51 2.313-38.51l-17.283-1.583Z" fill="#233862"/><path d="M261.604 140.063s9.708 24.22 12.812 33.401c2.211 6.54 8.445 29.482 8.445 29.482s2.712.826 4.99-.773c0 0 2.32-23.439-2.366-30.047-2.486-3.507-.618-36.45-10.697-36.733-10.079-.281-13.184 4.67-13.184 4.67Z" fill="#2B478B"/><path d="M265.94 104.357c1.483.782 2.929.832 4.183.564 1.147-.241 2.133-.749 2.834-1.199.719-.461 1.143-.863 1.143-.863s-.051-.073-.135-.216c-.438-.751-1.765-3.45-1.174-7.785.007-.057-.421.024-1.069.177-1.926.457-5.799 1.558-5.97 1.606h-.007s-.047.912-.206 2.546l-.043.451c-.021.192-.04.395-.064.605-.18 1.701.508 4.114.508 4.114Z" fill="#FFB27D"/><path d="M265.539 99.19c2.876.66 7.168-3.595 7.168-3.595a4.523 4.523 0 0 0-.983-.559c-1.926.457-5.8 1.558-5.971 1.607h-.006s-.048.913-.208 2.547Z" fill="#ED975D"/><path d="M264.561 96.414s1.182.425 2.69.628c2.205.299 5.104.122 6.015-2.55 1.535-4.5 3.494-7.199-1.021-9.037-2.417-.984-3.963-1.036-5.013-.66-.912.324-1.45.972-1.858 1.612-.877 1.376-2.639 9.218-.813 10.007Z" fill="#FFB27D"/><path d="M261.822 86.761c2.614 1.883 6.231.032 7.355.533 1.122.5 1.324 2.388 1.344 2.987.02.6.099 1.106 1.623.747.25-.059.43-.042.554.033.632.376-.176 2.2-.419 2.593 0 0-.351 1.306.428 1.942.094.076 1.623.745 5.309-4.907.579-.888 1.133-2.887.239-4.81-.894-1.926-4.629-3.785-7.797-4.772-1.187-.37-2.067-.355-2.756-.103-1.148.42-1.762 1.51-2.368 2.601-1.021 1.835-3.512 3.156-3.512 3.156Z" fill="#A9453D"/><path d="M278.641 141.755s-1.265.274-2.865.546c-1.565.263-3.452.522-4.784.512-6.817-.053-12.522-2.065-12.522-2.065-1.281 0-1.868-1.989-2.077-4.765-.142-1.879-.111-4.121-.01-6.348.033-.723.075-1.445.119-2.153.09-1.403.195-2.75.29-3.941.09-1.119.172-2.098.22-2.859 0-.001-.183-5.318-.111-9.996.051-3.357 1.932-6.414 2.402-6.912 1.364-1.446 5.318-2.361 6.11-2.488.061-.008.092-.014.092-.014 3.252 1.83 7.63-.642 7.63-.642.099.016.196.041.293.061.321-.069 3.607.419 4.372.837 1.891 1.032 2.99 12.489 2.99 12.489.315 7.784-.081 20.247.533 25.004.2 1.57-1.313 2.418-2.682 2.734Z" fill="#AEC3FF"/><path d="M273.404 100.697s-4.844 5.008-8.307 3.981c0 0-.461-.675 1.099-.892 1.558-.217 3.242-.129 7.208-3.089Z" fill="#9DB0F4"/><path d="M264.527 93.508s-.095.583 1.257 1.048c0 0 1.134.39 1.342-.207 0 0-.902-.861-2.599-.84Z" fill="#fff"/><path d="M276.06 119.641s-7.035 11.792-11.027 13.868c-2.699 1.404-6.477 2.143-8.642 2.476-.142-1.88-.111-4.121-.01-6.349 2.859-.348 7.214-.901 7.214-.901l12.465-9.094Z" fill="#9DB0F4"/><path d="m266.794 113.715-3.75 13.565s-4.412.28-6.542.202c.09-1.403.092-1.45.187-2.641-.001 0 5.065-2.647 10.105-11.126Z" fill="#9DB0F4"/><path d="M244.213 128.284s-1.26-1.532-1.938-1.747c-.678-.215-1.989-1.232-2.159-.813-.171.419.881 1.066.826 1.544-.056.479-3.345 1.249-3.325 1.756.021.506.774 1.732 2.029 1.591 1.254-.141 4.438-.898 5.091-.57.653.326-.524-1.761-.524-1.761Z" fill="#FFB27D"/><path d="M281.179 109.465s.222 7.185-16.12 21.6l-3.281-5.891c-.605-.353 10.556-24.411 13.763-24.218 6.217.372 5.638 8.509 5.638 8.509Z" fill="#AEC3FF"/><path d="M263.733 124.471s-18.583 2.129-19.271 2.499c-.688.369-2.164 1.811-1.672 3.618 0 0 9.62 1.211 14.911 1.19 4.566-.019 7.52-.753 7.52-.753l-1.488-6.554Z" fill="#AEC3FF"/></svg>