<svg width="349" height="218" fill="none" xmlns="http://www.w3.org/2000/svg"><path d="M12.787 216.868c.017.015 323.537-.048 323.537-.048 10.651-27.355 10.633-40.72 11.844-56.4 6.691-86.664-47.52-99.987-63.401-103.601-48.628-11.065-26.496-65.813-153.213-55.542-11.613.94-38.998 8.542-48.435 13.465-6.62 3.452-31.558 18.893-38.874 45.014C41.934 68 41.38 77.308 43.71 87.638c8.246 36.555-13.253 34.454-28.964 51.874-20.97 23.252-18.778 61.275-1.959 77.356Z" fill="#F9CD3D"/><path d="M177.006 217.083h.054c.315 0 .566-.26.56-.574l-.848-36.874-2.501-.292 2.133 37.168a.602.602 0 0 0 .602.572Z" fill="#B0D4FF"/><path d="M191.578 217.083h.054c.315 0 .567-.26.561-.574l-.849-36.874-2.5-.292 2.133 37.168a.6.6 0 0 0 .601.572Z" fill="#95C0F4"/><path d="M151.368 217.083h-.054a.562.562 0 0 1-.56-.574l.849-36.874 2.5-.292-2.133 37.168a.601.601 0 0 1-.602.572Zm41.865-39.734v-25.267c0-4.447-3.596-8.051-8.033-8.051h-18.164c-4.436 0-8.032 3.604-8.032 8.051v26.232l34.229-.965Z" fill="#B0D4FF"/><path d="M155.75 181.338h35.072a2.415 2.415 0 0 0 2.412-2.417v-1.571H155.75v3.988Z" fill="#95C0F4"/><path d="M151.548 181.338h26.533c.984 0 1.784-.799 1.784-1.788v-.414c0-.987-.798-1.788-1.784-1.788h-26.533c-.985 0-1.784.8-1.784 1.788v.414a1.786 1.786 0 0 0 1.784 1.788Z" fill="#CAE5FF"/><path d="M212.686 44.363H107.973v90.594h104.713V44.363Z" fill="#95C0F4"/><path d="M210.649 45.871H109.965v87.278h100.684V45.871Z" fill="#DFEDFB"/><path d="M145.156 83.847h-22.062V56.236l3.741-3.381h18.321v30.992Z" fill="#fff"/><path d="M123.094 56.236h3.62l.121-3.381-3.741 3.38Zm14.563-.693h-7.063v.337h7.063v-.337Zm1.663 1.011h-10.39v.337h10.39v-.337Zm3.637 6.496h-17.252v.433h17.252v-.433Zm0 1.317h-17.252v.432h17.252v-.433Zm0 1.316h-17.252v.433h17.252v-.433Zm0 1.317h-17.252v.432h17.252V67Zm0 14.087h-17.252v.433h17.252v-.433Z" fill="#B0D4FF"/><path d="M170.63 122.154h-22.064V94.542l3.743-3.38h18.321v30.992Z" fill="#fff"/><path d="M148.566 94.542h3.622l.121-3.38-3.743 3.38Zm14.565-.692h-7.065v.338h7.065v-.337Zm1.662 1.012h-10.391v.337h10.391v-.337Zm3.639 6.496H151.18v.433h17.252v-.433Zm0 1.316H151.18v.433h17.252v-.433Zm0 1.316H151.18v.433h17.252v-.433Zm0 1.317H151.18v.433h17.252v-.433Zm0 4.051H151.18v.433h17.252v-.433Zm0 1.315H151.18v.433h17.252v-.433Zm0 1.527H151.18v.433h17.252v-.433Zm14.649-59.345h-12.183v10.764h12.183V52.855Z" fill="#B0D4FF"/><path d="M176.457 54.137a.535.535 0 1 1 1.07-.001.535.535 0 0 1-1.07 0Z" fill="#FFA412"/><path d="m182.696 67.014-12.153.85.748 10.738 12.153-.85-.748-10.738Z" fill="#fff"/><path d="M176.218 69.408a.535.535 0 1 1 1.067-.075.535.535 0 0 1-1.067.075Z" fill="#B0D4FF"/><path d="m142.21 106.669-12.153.85.747 10.739 12.153-.85-.747-10.739Z" fill="#fff"/><path d="M135.736 109.064a.533.533 0 1 1 1.064-.074.534.534 0 1 1-1.064.074Z" fill="#B0D4FF"/><path d="m126.912 114.368-12.182.126.111 10.764 12.181-.126-.11-10.764Z" fill="#fff"/><path d="M120.311 116.4a.532.532 0 1 1 1.066-.011.533.533 0 1 1-1.066.011Z" fill="#B0D4FF"/><path d="m201.137 75.643-11.992-2.148-1.89 10.597 11.992 2.148 1.89-10.597Z" fill="#EEF6FF"/><path d="M194.427 75.93a.465.465 0 1 1 .916.164.465.465 0 0 1-.916-.164Z" fill="#78ACEA"/><path d="m163.713 66.787-12.111 1.314 1.155 10.702 12.112-1.314-1.156-10.702Z" fill="#EEF6FF"/><path d="M157.352 68.944a.465.465 0 1 1 .924-.1.465.465 0 0 1-.924.1Z" fill="#78ACEA"/><path d="m132.082 92.242-11.914 2.545 2.239 10.528 11.915-2.545-2.24-10.528Z" fill="#BAE8E3"/><path d="M126.182 95.319a.464.464 0 1 1 .506-.782.464.464 0 0 1-.506.782Z" fill="#FFA412"/><path d="M164.032 63.62h-11.594v-7.808l3.209-2.957h8.385v10.764Z" fill="#fff"/><path d="M152.375 55.812h3.168l.105-2.957-3.273 2.957Zm5.902-1.962c0-.21.172-.381.382-.381a.383.383 0 0 1 0 .764.382.382 0 0 1-.382-.382Z" fill="#B0D4FF"/><path d="M197.912 127.535h-11.596v-7.808l3.21-2.955h8.386v10.763Z" fill="#fff"/><path d="M186.254 119.727h3.167l.105-2.955-3.272 2.955Zm5.9-1.959a.382.382 0 1 1 .762 0 .382.382 0 0 1-.762 0Z" fill="#B0D4FF"/><path d="M203.201 112.04h-11.596v-7.809l3.212-2.955h8.384v10.764Z" fill="#fff"/><path d="M191.543 104.231h3.168l.105-2.955-3.273 2.955Zm5.902-1.959a.382.382 0 1 1 .382.382.383.383 0 0 1-.382-.382Z" fill="#B0D4FF"/><path d="M187.901 112.04h-11.596v-7.809l3.21-2.955h8.386v10.764Z" fill="#BAE8E3"/><path d="M176.242 104.231h3.167l.105-2.955-3.272 2.955Z" fill="#A1D6CE"/><path d="M182.143 102.272c0-.21.171-.382.381-.382a.382.382 0 0 1 0 .764.382.382 0 0 1-.381-.382Z" fill="#F99746"/><path d="M206.473 60.925h-11.594v-7.81l3.21-2.955h8.384v10.765Z" fill="#BAE8E3"/><path d="M194.816 53.116h3.167l.105-2.956-3.272 2.956Z" fill="#A1D6CE"/><path d="M200.717 51.156c0-.21.171-.382.381-.382a.382.382 0 0 1 0 .764.382.382 0 0 1-.381-.382Z" fill="#F99746"/><path d="M227.59 215.764c-.104 1.435-2.126 1.451-4.419 1.185-2.294-.266-1.684.315-4.895.36-3.212.045-4.318-1.019-4.474-1.478-.139-.409 1.407-.752 3.061-1.156.209-.049.417-.102.625-.156 1.866-.475 3.101-1.874 4.698-3.096 1.512-1.157 3.462-5.347 3.462-5.347l4.385-.198s-1.847 3.755-2.541 5.373c-.408.953-.235 2.122-.057 3.021.098.488.193.986.155 1.492Z" fill="#FFB27D"/><path d="M223.171 216.949c-2.294-.266-1.684.315-4.895.36-3.212.045-4.318-1.019-4.474-1.478-.139-.409 1.407-.752 3.061-1.156l.021.031s2.067 1.112 4.711.846c2.156-.216 4.355-1.118 5.841-1.279.096.489.19.989.151 1.494-.101 1.432-2.123 1.448-4.416 1.182Z" fill="#233862"/><path d="M257.886 216.063c-.104 1.435-2.125 1.453-4.418 1.189-2.294-.265-1.684.317-4.894.365-3.212.048-4.32-1.015-4.475-1.474-.139-.408 1.407-.753 3.061-1.159.209-.051.417-.103.625-.156 1.866-.476 3.099-1.877 4.695-3.101 1.511-1.158.001-8.021.001-8.021l4.825-.47s-.232 5.777-.229 8.403c.002 1.036.477 2.032.656 2.931.094.487.19.987.153 1.493Z" fill="#FFB27D"/><path d="M253.468 217.25c-2.294-.264-1.684.317-4.894.365-3.212.048-4.32-1.014-4.475-1.474-.139-.408 1.407-.753 3.061-1.158l.02.031s2.068 1.11 4.713.841c2.155-.218 4.354-1.123 5.84-1.285.096.489.191.987.153 1.493-.104 1.435-2.125 1.452-4.418 1.187Z" fill="#233862"/><path d="M243.805 97.476c-.83-3.425.374-5.018 1.46-5.867.515-1.26 1.103-2.168 1.704-2.51 1.097-.625 2.41-.693 3.33-.639-.236-.244-.702-.334-.702-.334.569-.085 1.842.481 1.842.481 7.928-3.06 9.175 8.638 9.008 11.356-.165 2.717-.143 5.919 3.982 8.059 7.87 4.087-2.616 19.484-2.616 19.484.201-2.197-9.912-13.787-15.187-17.258-1.284-1.895-1.741-5.242-1.775-5.506.223 2.654.675 4.143 1.081 4.982-2.408-2.218-2.763-7.545-2.127-12.248Z" fill="#A9453D"/><path d="M246.936 110.419c-.026.013 2.548 1.352 4.483.822 1.821-.498 3.011-2.865 2.986-2.869-.772-.153-.994-1.216-.977-5.78l-.349.068-5.861 1.163s.133 1.848.138 3.59c.003 1.464-.085 2.85-.42 3.006Z" fill="#FFB27D"/><path d="M247.219 103.825s.132 1.848.137 3.589c3.279-.092 5.014-3.091 5.724-4.754l-5.861 1.165Z" fill="#ED975D"/><path d="M223.37 208.403a1.442 1.442 0 0 0 1.304 1.878l2.29.107 2.423.074a1.942 1.942 0 0 0 1.568-.718c1.933-2.377 7.887-10.304 11.498-21.819.102-.323.209-.649.323-.98 2.384-6.969 7.329-15.717 9.934-23.635.415-1.26.787-2.448 1.12-3.571.106-.36.211-.713.31-1.061 1.92-6.686 2.476-11.075 2.988-15.765l-18.814.152s-3.96 30.851-14.944 65.338Z" fill="#2A4E96"/><path d="M240.949 132.231c.047 8.972-1.314 12.821-1.314 12.821s8.056 4.102 17.629 1.083c.112-.036 7.926-1.823 7.926-1.823-.161-.364-1.585-6.41-1.741-6.744-2.022-4.351-3.556-6.258-3.796-7.596-.445-2.496-.456-5.08-.233-7.516.583-6.45 2.321-11.804 2.321-11.804-2.608-.596-5.051-1.64-7.766-2.661-.625.78-2.534 1.595-4.19 1.558-1.907-.042-2.525-.86-2.426-1.754-2.032 1.134-3.654 2.204-3.654 2.204-1.727 3.007-5.23 5.927-5.483 10.539-.062 1.135 2.725 11.44 2.727 11.693Z" fill="#fff"/><path d="M257.128 133.23c.823 1.166 2.4 8.256 6.321 9.149-2.021-5.053-3.555-7.27-3.796-8.823-.445-2.9-.455-5.9-.233-8.731a138.105 138.105 0 0 0-2.293-3.888c-.104-.373-2.087-6.521-2.723-1.025-.632 5.495 1.806 12.014 2.724 13.318Z" fill="#5F9AA8"/><path d="M246.124 105.474s7.761.128 7.765-4.718c.005-4.844 1.011-8.09-3.944-8.378-4.955-.286-5.92 1.56-6.313 3.177-.394 1.618.473 9.761 2.492 9.919Z" fill="#FFB27D"/><path d="M246.41 92.26s2.125 5.684 5.386 6.524c3.261.84 4.676-.035 4.676-.035s-2.502-1.992-3.02-5.468c-.002 0-5.438-3.726-7.042-1.02Z" fill="#A9453D"/><path d="M246.937 92.722s-1.586 1.27-1.974 2.502c-.387 1.234-.56 3.774-1.299 3.687 0 0-1.6-3.863.198-6.049 1.908-2.316 3.075-.14 3.075-.14Z" fill="#A9453D"/><path d="m233.911 138.457-3.665 11.201 2.091.84 6.06-9.896-4.486-2.145Z" fill="#FFB27D"/><path d="M243.795 109.34s-4.322 1.718-5.572 4.399c-1.252 2.68-3.145 20.655-3.9 22.5-.755 1.847-1.321 3.307-1.321 3.307s2.179 1.841 4.37 1.975c2.192.138 6.423-32.181 6.423-32.181Z" fill="#F99746"/><path d="M247.359 107.795s-4.489 11.117-4.622 13.366c-.133 2.251-.528 36.791-.528 36.791s.264 1.588-2.773.926-3.829-1.324-3.829-1.324 2.905-21.307 2.113-28.718c-.792-7.412 6.074-19.499 6.074-19.499l3.565-1.542Z" fill="#F99746"/><path d="m226.961 210.39 2.631.08c.471.014.92-.189 1.221-.552 1.768-2.147 7.935-10.18 11.639-21.989.102-.323.208-.65.322-.981 2.385-6.969 7.329-15.717 9.934-23.634.415-1.261.787-2.448 1.121-3.571.106-.361.211-.713.31-1.061l-2.77-2.107s-8.318 13.499-10.892 26.202c-2.24 11.032-11.197 24.311-13.516 27.613Z" fill="#1E3D70"/><path d="M251.08 183.957c-.045 5.844.231 18.87.941 25.238a1.149 1.149 0 0 0 1.142 1.022h1.963c.827 0 1.446-.006 1.858-.012a.753.753 0 0 0 .728-.611c1.953-9.956 3.349-18.226 4.373-25.373.854-5.982 1.615-11.11 2.2-15.525.59-4.442.999-8.164 1.145-11.306.023-.495.04-.976.05-1.445.009-.47.012-.926.007-1.37l-16.255-1.589c.204 10.827 1.874 27.381 1.848 30.971Z" fill="#2A4E96"/><path d="M255.125 210.217c.744 0 1.318-.004 1.725-.011a.917.917 0 0 0 .886-.74c1.938-9.899 3.329-18.129 4.347-25.245.855-5.982 1.616-11.11 2.201-15.525.59-4.442.999-8.164 1.145-11.306l-5.964 3.517s3.807 1.345 2.355 11.536c-1.454 10.191-4.673 36.333-6.695 37.774Z" fill="#1E3D70"/><path d="M254.358 157.291s1.145 4.147 5.106 3.616c3.962-.529 9.595-2.911 9.595-2.911s-1.693-5.36-3.798-12.404c-2.548-8.526-5.704-19.519-7.19-26.452-.417-1.943-.702-3.565-.809-4.727l-3.287-6.391s-4.9 11.023-5.164 13.803c-.263 2.778 5.547 35.466 5.547 35.466Z" fill="#F99746"/><path d="m258.312 121.41-4.338-13.388c.012.007 5.478 1.631 8.229 3.023 0 0 1.719 2.221 2.782 7.345 0 0 1.123 12.302-1.386 16.801 0 0-7.923 1.588-20.599-2.779v-2.911s13.864.728 16.704 1.058l-1.392-9.149Z" fill="#FFB27D"/><path d="M254.535 127.646c.177 4.5 1.233 13.235 10.653 17.911.024.012.049.024.075.035-2.548-8.527-5.704-19.519-7.19-26.452-1.731 2.592-3.634 6.03-3.538 8.506Z" fill="#ED7D2B"/><path d="M253.977 108.022s8.04.568 9.977 4.891c1.937 4.323 2.553 18.704.088 22.938 0 0-3.394.969-9.395-.156l-.222-.041s-1.916-4.699-.198-5.626c0 0 5.062.265 4.534-1.412-.529-1.675-4.784-20.594-4.784-20.594Z" fill="#F99746"/><path d="m233.816 131.298.238.762 13.195-4.114s.176-.201.089-.467c-.095-.295-.325-.295-.325-.295l-13.197 4.114Z" fill="#A9453D"/><path d="m232.863 132.02.954-.722.236.764-1.19-.042Z" fill="#A9453D"/><path d="M230.766 149.353s-3.347 1.854-3.787 3.266c-.44 1.412-.137 4.369.394 4.326.53-.045 1.324-3.178 1.763-3.398.44-.221 1.058-.882 1.058-.397s-.44 1.367-.221 1.5c.221.133.924-1.236 1.409-1.5.484-.265.688-2.449 1.159-3.033.472-.588-1.775-.764-1.775-.764Zm12.237-19.853s-2.994-1.849-4.249-1.564c-1.256.285-4.455 2.608-2.916 3.11 1.538.503 2.785-.024 3.378.341.592.365 1.029 1.033 3.787 1.024 2.758-.008 0-2.911 0-2.911Z" fill="#FFB27D"/><path d="M70.839 217.182h-.054a.56.56 0 0 1-.56-.573l.849-36.874 2.5-.293-2.133 37.168a.602.602 0 0 1-.602.572Z" fill="#B0D4FF"/><path d="M56.267 217.183h-.054a.562.562 0 0 1-.56-.574l.848-36.874 2.5-.292-2.133 37.167a.603.603 0 0 1-.601.573Z" fill="#95C0F4"/><path d="M96.473 217.182h.054a.56.56 0 0 0 .56-.573l-.849-36.874-2.5-.293 2.133 37.168c.017.322.28.572.602.572ZM54.61 177.449v-25.268c0-4.446 3.595-8.05 8.032-8.05h18.164c4.437 0 8.032 3.604 8.032 8.05v26.233l-34.229-.965Z" fill="#B0D4FF"/><path d="M92.093 181.438H57.021a2.415 2.415 0 0 1-2.412-2.418v-1.571h37.484v3.989Z" fill="#95C0F4"/><path d="M96.295 181.438H69.763c-.985 0-1.785-.8-1.785-1.788v-.415c0-.986.798-1.787 1.785-1.787h26.532c.985 0 1.784.799 1.784 1.787v.415c0 .987-.797 1.788-1.784 1.788Z" fill="#B0D4FF"/><path d="M95.266 171.152c-2.601 4.539-5.875 6.292-5.875 6.292H75.775c0-.002 21.476-9.755 19.491-6.292Z" fill="#233862"/><path d="M84.808 206.271c-.355.408-.4.863-.224 1.348l.004.007c.324.898 1.398 1.904 2.643 2.906a13.636 13.636 0 0 1 .52.439l.073.067c1.162 1.073.725 1.319 2.813 3.498 2.381 2.482 4.02 2.527 4.486 2.302.395-.194-.407-1.51-1.294-2.99-.044-.071-.085-.144-.13-.217-.119-.196-.236-.396-.354-.594-1.04-1.781-.773-2.617-.526-5.268.2-2.154 3.344-12.033 3.344-12.033l-4.561-.787s-1.374 7.867-2.888 9.079c-.81.645-1.716.654-2.494 1.132-.055.033-.11.068-.162.102-.444.297-.895.6-1.25 1.009Z" fill="#FFB27D"/><path d="M84.81 206.271c-.355.408-.4.863-.224 1.348l.004.007c.398.898 1.442 1.897 2.648 2.896a13.071 13.071 0 0 1 .515.449l.073.066c1.162 1.074.725 1.32 2.813 3.499 2.381 2.482 4.02 2.527 4.486 2.301.395-.193-.407-1.509-1.295-2.989-.462-.17-2.615-1.047-4.243-3.134-1.434-1.833-2.39-4.188-3.366-5.554-.056.033-.11.068-.162.102-.443.297-.894.6-1.249 1.009Z" fill="#233862"/><path d="M121.595 203.415c.283 1.412 2.289 1.175 4.533.626 2.242-.549 1.71.104 4.901-.25 3.192-.354 4.159-1.547 4.257-2.023.086-.423-1.49-.571-3.183-.766-.213-.023-.426-.051-.64-.077-1.911-.24-3.309-1.476-5.043-2.49-1.644-.961-4.096-4.875-4.096-4.875l-4.377.348s2.297 3.497 3.185 5.017c.524.894.496 2.077.43 2.99-.033.495-.065 1.002.033 1.5Z" fill="#FFB27D"/><path d="M126.128 204.042c2.242-.549 1.709.104 4.901-.25 3.191-.355 4.159-1.547 4.256-2.023.087-.423-1.489-.571-3.182-.766l-.015.032s-1.914 1.36-4.572 1.425c-2.165.052-4.458-.569-5.953-.545-.034.497-.067 1.004.034 1.501.28 1.41 2.288 1.175 4.531.626Zm-21.306-28.678-4.093 11.035-5.343 14.409s-1.449.14-2.838-.26c-1.278-.37-2.745-1.34-2.745-1.34s1.483-15.471 4.25-24.352c.71-2.28 1.505-4.123 2.381-5.161 4.292-5.081 8.388 5.669 8.388 5.669Z" fill="#233862"/><path d="M100.66 157.836c-2.68-.866-10.328.246-18.008 1.753l-1.608-2.659-16.59-1.299s-5.474 12.167-2.477 19.919c.44 1.14 1.316 1.87 2.807 1.895h.242s9.874-.006 13.08-.006c8.251 0 17.461-5.684 18.654-5.922 1.95-.392 2.73 3.518 4.681 7.622 1.95 4.104 18.332 18.177 18.332 18.177s2.517.025 3.557-.366c1.119-.421 1.528-.967 1.528-.967s-18.152-36.192-24.198-38.147Z" fill="#2B478B"/><path d="M80.392 108.517c-2.125-1.118-5.36-1.27-5.884-1.341-6.287-.846-10.07 8.309-10.293 11.083-.41 5.114-3.11 5.893-6.908 9.096-7.617 6.421-5.383 13.882-1.22 16.655 2.5 1.662 6.905 0 6.905 0 .062.043 12.047-6.714 17.954-9.975 8.857-1.262 4.862-22.667-.554-25.518Z" fill="#233862"/><path d="M75.996 131.26c.027.017-2.905 1.02-4.867.15-1.844-.817-3.242-3.859-3.215-3.861.84-.039 1.761-.773 2.471-5.599l.358.129 6.008 2.166s-.435 1.932-.718 3.773c-.237 1.543-.365 3.023-.037 3.242Z" fill="#FFB27D"/><path d="M76.748 124.245s-.436 1.932-.718 3.772c-3.45-.623-4.806-4.069-5.292-5.939l6.01 2.167Z" fill="#ED975D"/><path d="M77.644 126.163s-8.22-1.106-7.455-6.225c.765-5.12.22-8.711 5.502-8.223 5.28.489 6.006 2.597 6.165 4.368.159 1.771-2.054 10.236-4.212 10.08Z" fill="#FFB27D"/><path d="M81.556 113.276s-5.263 4.546-8.841 4.911c-3.58.366-4.936-.786-4.936-.786s2.11-1.756 3.38-4.589a2.514 2.514 0 0 1 2.076-1.486c2.555-.22 7.4-.322 8.32 1.95Z" fill="#233862"/><path d="M78.268 112.869s1.76 1.706 2.314 2.971c.536 1.221.696 4.142.27 5.302 0 0 2.743-5.345 1.19-7.942-1.648-2.754-3.774-.331-3.774-.331Z" fill="#233862"/><path d="M82.918 143.396c-.248 16.678-.068 13.193-1.889 14.775-.438.381-1.671.608-3.294.716-5.103.339-14.073-.502-14.414-1.447-1.178-3.27-.346-4.286-1.33-9.293a39.508 39.508 0 0 0-.377-1.736c-.82-3.439-1.616-4.61 1.288-10.133 2.635-5.003 5.37-9.065 5.618-8.918 6.949 4.135 7.51.659 7.51.659s7.01 7.243 6.888 15.377Z" fill="#fff"/><path d="m100.731 186.399-5.343 14.409s-1.449.141-2.838-.26c-1.278-.37-2.745-1.339-2.745-1.339s1.483-15.472 4.25-24.353l6.676 11.543Z" fill="#2B478B"/><path d="M76.031 128.018s7.152 1.215 7.991 4.301l5.781 21.226s-3.636.654-5.315-1.028c-1.679-1.683-5.844-15.615-5.844-15.615l-2.613-8.884Z" fill="#fff"/><path d="M77.735 158.887c-5.102.339-14.073-.502-14.414-1.447-1.178-3.27-.346-4.286-1.329-9.293l2.462-6.946s-.408 7.735 1.869 9.769c2.273 2.034 9.318 3.927 10.424 5.627.534.815.884 1.633.988 2.29Z" fill="#EBF3FF"/><path d="M71.887 155.633s5.034-1.123 5.846-.676c.811.447 2.797 2.078 3.046 2.646.248.568-1.809-.431-2.477-.611-.434-.116-1.574.28-2.139.469-2.376.793-3.832.385-3.832.385l-.444-2.213Z" fill="#FFB27D"/><path d="M68.517 127.355s-6.759.418-9.098 3.687c-3.294 4.605-9.828 24.227-6.084 26.844 4.218 2.947 19.193.771 19.193.771s.499-2.334-.194-3.465c-.693-1.129-11.962-2.954-12.482-3.475-.52-.522 6.502-10.165 6.502-11.729-.002-1.56 2.163-12.633 2.163-12.633Z" fill="#fff"/><path d="M77.98 156.363s1.054 1.364 1.402 1.527c.345.162.57.122.57.122l-.712-1.282-1.26-.367Zm-.246-1.404 3.067 1.493s-.131.213-.508.196c-.378-.017-1.33-.367-1.33-.367l-1.229-1.322Z" fill="#FFB27D"/><path d="M79.379 159.977h24.258l7.298-18.187H86.714l-7.335 18.187Z" fill="#F99746"/><path d="M103.92 159.269H71.887v.708h31.749l.284-.708Z" fill="#ED7D2B"/><path d="M97.512 150.884c.183-.638-.186-1.156-.824-1.156-.638 0-1.303.518-1.487 1.156-.183.639.186 1.157.825 1.157.637 0 1.304-.518 1.486-1.157Z" fill="#fff"/><path d="M206.076 217.855h.071c.415 0 .75-.363.741-.804l-1.122-51.627-3.307-.41 2.819 52.04c.025.45.375.801.798.801Zm-134.065 0h-.07c-.416 0-.75-.363-.742-.804l1.122-51.627 3.308-.41-2.82 52.04c-.025.45-.375.801-.798.801Z" fill="#78ACEA"/><path d="M210.059 166.373H68.583a2.101 2.101 0 0 1-2.099-2.103v-2.025c0-1.161.94-2.103 2.1-2.103h141.475c1.159 0 2.099.942 2.099 2.103v2.025a2.1 2.1 0 0 1-2.099 2.103Z" fill="#78ACEA"/><path d="M295.393 217.798s.319-2.49 1.057-3.97c.739-1.48 5.44-.538 5.44-.538s.939.807 1.142 4.576l-7.639-.068Zm-16.017-.032c1.105-.676.475-5.717.475-5.717s-5.146-4.126-5.855-.966c-.708 3.16-4.889 4.578-7.27 4.965-1.643.267-2.151 1.178-2.31 1.718h14.96Z" fill="#233862"/><path d="M290.038 181.104c-.21 1.157-.342 2.106-.378 2.785-.478 9.354-7.856 30.74-9.176 31.24-2.042.771-5.258-.87-6.94-1.406-.697-.223-1.168-.928-1.012-1.643 3.653-16.834 4.997-41.073 5.485-55.423.246-7.229 1.484-12.222 1.484-12.222s17.994-4.811 18.101 1.275c.095 5.385-5.959 26.508-7.564 35.394Z" fill="#213F7A"/><path d="m290.04 181.104-12.02-24.448c.246-7.229 1.484-12.221 1.484-12.221s17.994-4.812 18.101 1.274c.094 5.387-5.96 26.51-7.565 35.395Z" fill="#233862"/><path d="m286.035 145.73 9.513 69.096s4.177 1.01 7.426.202c0 0 2.785-36.747 2.552-45.631-.231-8.884 1.999-23.772-.509-25.415-2.508-1.642-18.982 1.748-18.982 1.748Z" fill="#213F7A"/><path d="M306.87 144.58a1.323 1.323 0 0 1-.952 1.367c-1.327.387-2.856.654-5.807 1.267-2.772.577-6.5 1.087-11.081 1.115-7.285.046-10.044-2.47-10.044-2.47-.314.006.165-1.522.597-8.79.146-2.462.287-5.582.389-9.526.092-3.548.154-7.764.16-12.764.008-6.017 9.3-12.488 9.471-12.488l.002.003c0 .866 1.362 2.465 3.459 2.603 2.491.164 5.545-1.079 5.545-2.516 0-.014 4.502 7.216 6.101 14.922.808 3.879.481 3.774 2.16 27.277Z" fill="#B0D0FF"/><path d="M289.604 102.29s-8.639-.074-10.72 2.849c-2.079 2.923-6.637 18.645-4.259 23.876 2.38 5.231 6.83-2.164 9.301-5.369 2.471-3.203 5.678-21.356 5.678-21.356Z" fill="#B0D0FF"/><path d="m289.516 100.97.005.895s-.244 2.8 3.196 3.208c3.44.41 5.992-.523 5.898-2.683-.31-1.672-.597-3.39-.62-4.775a9.774 9.774 0 0 1 .122-1.676l-6.666-.133-1.963.321.028 4.843Z" fill="#FFB27D"/><path d="m289.488 96.127.027 4.843c.708.329 1.506.53 2.402.53 3.064 0 5.044-2.25 6.078-3.885a9.774 9.774 0 0 1 .122-1.676l-6.666-.133-1.963.321Z" fill="#E2915A"/><path d="M298.628 94.866c-.773 4.171-6.144 4.033-8.463 3.772-.653-.073-1.063-.156-1.063-.156-.737-.197-1.147-1.36-1.338-2.882-.38-3.013.1-7.436.608-8.568.763-1.703 2.203-3.544 7.612-2.215 5.406 1.329 3.635 4.705 2.644 10.049Z" fill="#FFB27D"/><path d="M280.769 114.008s-3.341 7.396-3.243 9.612c0 0 1.654-.057 3.243.418 2.613.781 0-10.03 0-10.03Z" fill="#98BAF4"/><path d="M286.71 83.06s2.38-.184 5.188-1.408c2.278-.993 5.153.1 6.087.594a1.406 1.406 0 0 0-.227-.563s.418.297.482.714c.043.033.061.055.05.062 0 0 .476-.086.781.051 0 0-.213-.03-.29.107a.16.16 0 0 1-.034.039c3.554 1.721 3.883 7.351 2.739 8.653-1.376 1.567-3.453 5.114-3.453 5.114s-.175-.851.077-2.23c.25-1.38-.938-1.38-2.44-2.007-1.502-.626-.25-2.382-1.563-3.447-1.314-1.066-6.13-.44-6.068-1.255-1.792-.652-1.329-4.24-1.329-4.424Z" fill="#233862"/><path d="M299.715 127.862c-1.41 5.676-16.665 8.61-20.133 9.207.147-2.462.287-5.582.389-9.526l19.744.319Z" fill="#98BAF4"/><path d="M296.366 129.707c.145 0 3.392-.486 3.973-.777.58-.29 3.24-4.078 1.498-5.049-1.741-.972-6.415 2.912-6.415 2.912l.944 2.914Z" fill="#FFB27D"/><path d="M276.625 130.833s12.554.682 20.979-1.126c0 0 .213-2.439-2.435-3.523 0 0-13.13-2.789-16.286-2.012-3.153.778-2.258 6.661-2.258 6.661Z" fill="#B0D0FF"/><path d="M305.457 120.959c-2.605 3.149-6.011 5.718-9.766 6.322l-.001-.002c-.031-.048-1.138-1.729-.93-4.202.096-1.145.473-2.458 1.368-3.858.274-.43.52-.932.737-1.491 2.051-5.243 1.746-15.347 1.746-15.347s8.707.914 11.42 4.798c1.662 2.378-.457 8.803-4.574 13.78Z" fill="#B0D0FF"/><path d="M290.163 98.636c-.653-.072-1.063-.156-1.063-.156-.736-.196-1.147-1.36-1.338-2.881 1.381.34 2.014 1.41 2.276 1.865.119.204.144.663.125 1.172Z" fill="#E2915A"/><path d="M286.657 100.996s-3.008-4.972-.668-5.189c2.338-.216 3.277 1.37 3.615 1.952.338.582-.088 3.211-.088 3.211l-2.859.026Z" fill="#FFB27D"/><path d="M298.117 122.909a6.462 6.462 0 0 1-.512 1.726c-.735 1.635-1.915 2.644-1.915 2.644l-.002-.002c-7.81-3.533-9.39-15.665-9.654-22.331-.107-2.678 0-4.476 0-4.476 3.523-1.169 4.514.863 4.514.863s4.159 9.914 6.318 16.393c.824 2.481 1.356 4.458 1.251 5.183Z" fill="#B0D0FF"/><path d="M305.455 120.959c-2.605 3.149-6.011 5.718-9.766 6.321l-.001-.001c-7.811-3.533-9.391-15.665-9.655-22.331 0 0 3.696 13.433 8.726 18.129.909.849 1.862 1.413 2.844 1.559 0 0 6.343-1.798 7.673-3.488.095-.121.154-.181.179-.189Z" fill="#98BAF4"/><path d="M163.212 160.144h-24.258l-7.298-18.187h24.221l7.335 18.187Z" fill="#2B478B"/><path d="M138.67 159.435h32.031v.71h-31.747l-.284-.71Z" fill="#2B478B"/><path d="M145.078 151.049c-.183-.638.186-1.156.825-1.156.637 0 1.302.518 1.486 1.156.183.639-.187 1.157-.824 1.157-.639.002-1.304-.516-1.487-1.157Z" fill="#fff"/></svg>