<svg width="347" height="231" fill="none" xmlns="http://www.w3.org/2000/svg"><path d="M49.797 21.334C96.703.41 144.375 18.908 176.707 59.199c32.332 40.29 100.186-27.81 136.173 12.416 24.559 27.45 13.311 98.03-20.365 128.598-45.771 41.55-184.968 20.468-215.079 13.396-34.689-8.146-60.05-32.862-70.353-62.861C-17.748 78.465 29.07 30.58 49.797 21.334Z" fill="#F9CD3D"/><path d="M186.248 50.414a45.653 45.653 0 0 0 .208-7.935l-8.612-2.77a37.525 37.525 0 0 0-3.049-10.261l5.711-6.988a46.066 46.066 0 0 0-4.524-6.538l-8.614 2.795a38.335 38.335 0 0 0-8.527-6.518l.49-8.998a46.281 46.281 0 0 0-7.519-2.65l-5.319 7.298a38.634 38.634 0 0 0-10.752-.28L130.818 0a46.264 46.264 0 0 0-7.651 2.248l.011 9.012a38.212 38.212 0 0 0-8.862 6.062l-8.45-3.243A46.304 46.304 0 0 0 101 20.37l5.333 7.28a37.5 37.5 0 0 0-3.595 10.085l-8.746 2.314a46.223 46.223 0 0 0-.293 5.182c0 .924.03 1.842.085 2.752l8.612 2.77a37.56 37.56 0 0 0 3.049 10.262l-5.71 6.987a46.057 46.057 0 0 0 4.523 6.538l8.614-2.794a38.248 38.248 0 0 0 8.527 6.517l-.49 8.999a46.283 46.283 0 0 0 7.519 2.65l5.319-7.299a38.639 38.639 0 0 0 10.752.28l4.925 7.568a46.257 46.257 0 0 0 7.65-2.248l-.011-9.012a38.212 38.212 0 0 0 8.862-6.061l8.451 3.242a46.37 46.37 0 0 0 4.865-6.291l-5.332-7.28a37.502 37.502 0 0 0 3.596-10.085l8.743-2.313Zm-46.129 12.922c-10.055 0-18.208-8.106-18.208-18.104 0-9.999 8.152-18.105 18.208-18.105s18.209 8.105 18.209 18.105c0 9.998-8.152 18.104-18.209 18.104Z" fill="#9EC8FF"/><path d="M164.953 65.88a.673.673 0 0 1-.434-.157.675.675 0 0 1-.089-.953 30.51 30.51 0 0 0 7.097-19.538c0-3.413-.561-6.765-1.669-9.962a.677.677 0 0 1 .422-.86.683.683 0 0 1 .866.419 31.725 31.725 0 0 1 1.743 10.403c0 7.443-2.632 14.69-7.411 20.404a.688.688 0 0 1-.525.244Zm-2.636-42.73a.68.68 0 0 1-.467-.185 30.615 30.615 0 0 0-10.586-6.487.676.676 0 1 1 .464-1.272 31.967 31.967 0 0 1 11.056 6.772.674.674 0 0 1 .028.957.676.676 0 0 1-.495.214Zm-29.258-7.547a.675.675 0 0 1-.166-1.333 32.42 32.42 0 0 1 7.883-.97c.376 0 .68.304.68.677a.678.678 0 0 1-.68.677 31.05 31.05 0 0 0-7.55.928.72.72 0 0 1-.167.02Z" fill="#fff"/><path d="M106.893 126.856c.132-1.179.203-2.376.203-3.59 0-.64-.022-1.276-.058-1.906l-5.966-1.92a25.956 25.956 0 0 0-2.112-7.106l3.955-4.84a32.041 32.041 0 0 0-3.133-4.528l-5.966 1.935a26.496 26.496 0 0 0-5.905-4.513l.339-6.232a32.059 32.059 0 0 0-5.208-1.835l-3.684 5.054a26.662 26.662 0 0 0-7.448-.193L68.5 91.94a32.04 32.04 0 0 0-5.3 1.557l.009 6.241a26.494 26.494 0 0 0-6.138 4.198l-5.853-2.245a32.2 32.2 0 0 0-3.371 4.358l3.694 5.041a26.02 26.02 0 0 0-2.491 6.985l-6.058 1.602a32.228 32.228 0 0 0-.203 3.589c0 .641.022 1.277.059 1.907l5.965 1.919a25.98 25.98 0 0 0 2.112 7.107l-3.955 4.839a32.017 32.017 0 0 0 3.133 4.529l5.966-1.936a26.5 26.5 0 0 0 5.905 4.514l-.338 6.232a31.983 31.983 0 0 0 5.207 1.835l3.684-5.055a26.652 26.652 0 0 0 7.448.194l3.41 5.241a32.01 32.01 0 0 0 5.3-1.556l-.009-6.242a26.444 26.444 0 0 0 6.139-4.198l5.852 2.246a32.25 32.25 0 0 0 3.371-4.358l-3.693-5.041a26.011 26.011 0 0 0 2.49-6.985l6.058-1.602Zm-31.95 8.949c-6.965 0-12.612-5.613-12.612-12.54 0-6.926 5.646-12.54 12.612-12.54 6.964 0 12.611 5.614 12.611 12.54 0 6.927-5.645 12.54-12.611 12.54Z" fill="#9EC8FF"/><path d="M92.144 137.776a.678.678 0 0 1-.523-1.11 20.924 20.924 0 0 0 4.868-13.401c0-2.341-.386-4.641-1.145-6.833a.682.682 0 0 1 1.288-.441 22.169 22.169 0 0 1 1.218 7.273c0 5.205-1.84 10.27-5.182 14.265a.679.679 0 0 1-.524.247Zm-1.826-29.598a.683.683 0 0 1-.467-.184 20.99 20.99 0 0 0-7.261-4.449.675.675 0 0 1-.409-.867.682.682 0 0 1 .873-.406 22.355 22.355 0 0 1 7.73 4.735.674.674 0 0 1 .028.957.665.665 0 0 1-.494.214Zm-20.268-5.227a.676.676 0 0 1-.166-1.333 22.701 22.701 0 0 1 5.513-.678c.376 0 .68.303.68.677a.679.679 0 0 1-.68.676c-1.753 0-3.495.214-5.179.636a.567.567 0 0 1-.167.022Z" fill="#fff"/><path d="M214.048 84.893c0-.35-.011-.697-.029-1.042l4.47-3.57a23.478 23.478 0 0 0-1.624-5.104l-5.771-.434a19.158 19.158 0 0 0-4.995-5.272l-.019-5.718a23.907 23.907 0 0 0-5.117-1.962l-3.945 4.221a19.353 19.353 0 0 0-7.092.554l-4.523-3.564a23.98 23.98 0 0 0-4.784 2.758l.856 5.67a19.053 19.053 0 0 0-4.029 5.846l-5.626 1.297a23.727 23.727 0 0 0-.832 5.393l4.956 2.849a18.786 18.786 0 0 0 2.119 6.963l-2.481 5.167a24.08 24.08 0 0 0 3.646 3.945l5.314-2.07a19.054 19.054 0 0 0 7.006 2.764l2.505 5.128a24.192 24.192 0 0 0 5.294-.382l1.689-5.431a19.103 19.103 0 0 0 6.595-3.805l5.584 1.247a23.857 23.857 0 0 0 2.975-4.37l-3.236-4.727a18.905 18.905 0 0 0 1.094-6.351Zm-19.309 8.368c-4.443 0-8.046-3.581-8.046-8 0-4.417 3.602-8 8.046-8 4.442 0 8.045 3.581 8.045 8 0 4.417-3.601 8-8.045 8Z" fill="#9EC8FF"/><path d="M313.999 216.218c-23.612-1.39-103.939.964-128.369 1.881-24.43.917-52.787-1.21-67.518-4.34-14.73-3.129-99.876.267-96.012 8.681 3.864 8.415 37.936 3.765 76.576 7.147 38.639 3.382 125.539-.422 145.14 0 19.602.422 37.576-.846 62.837-2.536 25.261-1.691 21.034-10.028 7.346-10.833Z" fill="#CCE2FF"/><path d="M228.384 151.937H124.677a1.125 1.125 0 0 1-1.128-1.122v-1.682c0-.62.505-1.122 1.128-1.122h103.707c.623 0 1.128.502 1.128 1.122v1.682c0 .62-.505 1.122-1.128 1.122Z" fill="#2E5B9A"/><path d="M255.088 95.39c1.404 4.926-2.027 10.002-5.808 11.069-3.781 1.066-6.479-2.281-7.883-7.207-1.405-4.926.52-9.783 4.301-10.85 3.781-1.066 7.984 2.063 9.39 6.987Zm-21.198 95.453s9.69 14.964 10.998 15.615c1.308.651 4.579.813 3.353 3.253-1.226 2.44-1.717 12.037-2.862 12.524-1.145.489-10.959 1.627-9.488 0 1.473-1.627 2.378-.813 3.121-3.74.743-2.928 1.787-8.459.396-9.597s-9.896-11.386-9.896-11.386l4.378-6.669Zm-48.767 6.426s-11.778 19.301-13.959 21.037c-2.181 1.735-9.379 4.338-3.489 4.772 5.889.433 8.724-1.951 12.432-3.037 3.707-1.085 8.288-1.735 6.543-4.554-1.744-2.819-1.019-8.974 2.742-12.878 3.762-3.905-4.269-5.34-4.269-5.34Z" fill="#F09959"/><path d="M245.231 152.509s-29.156-.758-40.716 8.675c-6.762 10.193-23.119 40.269-24.39 43.583.872.868 5.78 2.433 7.961 2.216 6.434-7.629 14.939-14.224 18.321-20.209 4.168-7.374 5.452-11.061 12.214-11.712 6.762-.651 22.03-2.819 26.61-2.819 4.58 0 0-19.734 0-19.734Z" fill="#6791C9"/><path d="M270.656 223.129h-1.529l-10.959-45.467h3.362l9.126 45.467Zm-45.785.001h1.529l12.576-47.075h-3.362l-10.743 47.075Z" fill="#2E5B9A"/><path d="m261.839 150.523-16.952 2.91s-22.526.206-32.823 2.113c-9.368 1.735-10.748 12.319 0 26.892 6.106 8.279 11.268 14.883 21.826 22.329 2.685-1.961 3.713-2.702 4.455-7.419-.764-1.042-2.743-7.561-3.357-8.837-5.838-12.137-13.633-16.552-13.741-17.745 1.31-2.114 34.664 11.021 41.296 3.294 6.333-7.378-.704-23.537-.704-23.537Z" fill="#75A1DE"/><path d="M262.543 112.364c-4.464-.622-9.012.221-13.263 3.282-3.716 3.767-7.922 9.979-7.663 20.224.326 13.012-2.025 13.847.428 17.425 10.234 4.202 27.737 22.256 23.615 2.901-2.985-14.016 6.545-24.462-1.142-40.008-.626-1.264-1.409-2.492-1.975-3.824Z" fill="#F37168"/><path d="M241.613 140.766c-.198 6.783-1.162 8.782-.426 10.908 4.172.423 11.803 2.084 13.71 4.738 2.182 3.035 4.362 3.47 3.344 1.229-1.018-2.241-3.707-5.422.437-16.338 4.145-10.916 6.107-18.291 2.036-25.88l-19.101 25.343Z" fill="#D54A41"/><path d="M262.542 112.365c-2.749-6.472-3.424-13.742-3.424-13.742l-7.197 2.114s4.089 9.108.163 12.362a37.315 37.315 0 0 0-2.807 2.548c4.255-3.061 8.801-3.906 13.265-3.282Z" fill="#F09959"/><path d="M259.336 100.346c-.426-.378-.959-.849-1.52-1.34l-5.87 1.724a.51.51 0 0 1-.012.031c.141.322 1.637 3.792 1.833 7.13 1.749-1.056 3.665-2.776 5.855-5.782a63.38 63.38 0 0 1-.286-1.763Z" fill="#E38540"/><path d="M257.485 114.398c-7.412 2.578-6.59 10.344-13.413 21.796-3.531 5.926-6.811 5.838-6.811 5.838s-8.28.067-18.296-1.151c-6.272-.762-6.671 1.093-2.309 2.644 8.798 3.128 17.927 6.493 25.287 5.68 7.361-.813 19.951-19.488 20.6-24.349.899-6.723-1.324-11.756-5.058-10.458Z" fill="#F09959"/><path d="M253.666 179.558c-.461 0-.932-.006-1.417-.018-6.041-.149-10.153-.98-13.458-1.647-3.858-.779-5.983-1.208-8.457-.034a1.911 1.911 0 0 1-2.542-.893 1.89 1.89 0 0 1 .899-2.527c3.624-1.722 6.659-1.109 10.858-.26 3.158.639 7.089 1.432 12.794 1.573 6.386.158 10.28-.784 12.254-2.96 1.758-1.939 2.273-5.197 1.619-10.251-.223-1.73-.447-3.17-.645-4.439-.556-3.583-.925-5.948-.469-9.606.423-3.397 1.554-7.923 4.174-16.697a1.908 1.908 0 0 1 2.37-1.277 1.893 1.893 0 0 1 1.284 2.356c-4.882 16.35-4.634 17.943-3.593 24.644.202 1.293.429 2.757.659 4.535.806 6.235-.01 10.452-2.568 13.274-2.637 2.903-6.913 4.227-13.762 4.227Z" fill="#2E5B9A"/><path d="M185.924 213.537c-7.815 3.801-12.02 5.978-14.526 5.771a21.51 21.51 0 0 1-1.493-.173c-2.788 1.637-7.236 3.573-2.231 3.942 5.889.433 8.724-1.951 12.432-3.037 3.707-1.085 8.289-1.735 6.544-4.554-.334-.54-.576-1.203-.726-1.949Zm59.817-6.763c-.191 6.153-1.041 12.25-4.826 13.401a6.388 6.388 0 0 1-2.727.243c-.594.732-1.321.74-2.296 1.816-1.472 1.627 8.342.488 9.488 0 1.146-.489 1.636-10.084 2.863-12.524 1.007-2.004-1.021-2.473-2.502-2.936Z" fill="#D54A41"/><path d="M215.638 148.547h-24.827a1.905 1.905 0 0 1-1.728-1.096l-10.034-21.471a1.89 1.89 0 0 1 .925-2.517 1.912 1.912 0 0 1 2.532.92l9.521 20.375h23.611c1.052 0 1.906.849 1.906 1.895a1.9 1.9 0 0 1-1.906 1.894Z" fill="#75A1DE"/><path d="M220.831 141.096c-5.016-.071-9.991-3.045-12.464-2.612-2.472.435-10.543 6.001-9.525 6.218 1.018.216 7.417-3.08 7.634-3.131.218-.05 1.6 2.284 5.017 3.142 3.418.856.025-2.547 10.616.634 6.889 2.068-1.278-4.251-1.278-4.251Z" fill="#F09959"/><path d="m261.806 106.459.738 5.906s-6.492.384-9.722 2.191c-3.23 1.807-7.998 7.029-7.998 7.029l3.896-6.668.56-4.265 12.526-4.193Z" fill="#F2E5DE"/><path d="M259.043 113.689c-4.822-.899-7.052 3.398-10.178 10.41-3.126 7.013-8.463 15.529-9.525 16.627-1.061 1.097-17.885 0-17.885 0s-.509 4.844 0 5.421c.509.578 3.417.507 3.417.507s1.164.923 2.254 1.655c1.09.731 10.324 2.104 14.614 1.888 4.29-.217 8.215-.578 8.796-1.229.582-.651 12.288-18.579 13.015-25.014.727-6.434-2.047-9.807-4.508-10.265Z" fill="#F2E5DE"/><path d="M244.825 84.192c-9.119.434-7.689 14.075-7.689 14.075s2.368.727 7.331-.087c-.381-1.464-.218-5.205-.218-5.205s.577 3.037 1.309 4.88c1.05.478 2.237.054 4.254-.43 1.036 4.335 3.963 6.166 5.968 6.792 2.214.693 4.56 1.519 7.177.217 2.617-1.302 1.178-14.603-.213-17.278-2.086-4.016-5.553-7.609-11.551-5.712-3.009.953-6.368 2.748-6.368 2.748Z" fill="#303C60"/><path d="m260.684 100.392 3.728 5.415s-4.133 10.265 7.885 14.917c9.412 3.642 8.303 10.061 4.051 16.515-4.253 6.454 2.545 12.091 2.545 12.091s1.037-7.15 10.181-8.499c12.468-1.841 15.999-18.486 6.685-26.809-7.706-6.887-10.051-1.184-15.268-7.365-5.217-6.181-15.064-2.006-15.064-2.006l-3.61-5.233-1.133.974Z" fill="#303C60"/><path d="M300.05 130.789a.33.33 0 0 1-.291-.488c3.136-5.698.577-12.6-.709-14.469-.137-.197-.266-.399-.403-.611-1.265-1.963-2.838-4.404-11.233-5.908-2.023-.361-3.659-1.556-5.393-2.822-3.579-2.613-7.638-5.575-16.453-1.54a.33.33 0 1 1-.278-.598c9.171-4.197 13.397-1.114 17.123 1.608 1.67 1.218 3.247 2.37 5.118 2.705 8.681 1.554 10.34 4.131 11.674 6.2.134.208.261.405.392.595 1.347 1.959 4.028 9.191.744 15.159a.331.331 0 0 1-.291.169Zm-41.358-24.847c-.596 0-1.241-.052-1.937-.156-3.19-.475-7.471-2.278-7.806-12.402a.33.33 0 0 1 .662-.022c.139 4.173.97 7.261 2.474 9.177 1.142 1.456 2.657 2.281 4.768 2.595 2.952.44 4.909-.103 5.816-1.612a.333.333 0 0 1 .454-.114.33.33 0 0 1 .115.452c-.83 1.385-2.356 2.082-4.546 2.082Z" fill="#303C60"/><path d="M134.664 223.13h2.45l9.531-72.446h-5.389l-6.592 72.446Zm83.142 0h-2.45l-9.532-72.446h5.391l6.591 72.446Z" fill="#2E5B9A"/><path d="M313.888 161.979c4.239 3.849 2.396 7.697-.737 14.844-3.134 7.147-3.686 33.537-3.686 33.537l2.58-.366s-.368-27.123 3.134-34.454c3.502-7.331 4.976-10.996 8.109-8.613 3.133 2.383-9.4-4.948-9.4-4.948Z" fill="#74B570"/><path d="M311.561 156.996c.514-2.281 3.573-4.749 7.66-6.843-.608 3.365-2.557 8.865-.54 9.992 2.72 1.521.265-6.158 1.314-10.379 3.84-1.863 8.457-3.387 12.71-4.145a.366.366 0 0 1-.018.046c-2.395 6.048-5.528 8.43-4.238 9.346.97.689 4.132-6.297 8.306-9.878 3.134-.166 5.785.256 7.353 1.491 2.424 1.909 4.05 3.602 1.613 9.412-1.393.989-3.197 1.698-5.293 1.907-5.529.549-8.11.733-4.24 2.565 1.896.898 5.073-.051 7.648-.627a96.245 96.245 0 0 1-3.112 5.237 19.434 19.434 0 0 1-2.59 3.278c-1.781.34-3.336.344-4.158-.007-2.58-1.099-9.215-4.581-10.873-3.115-1.624 1.434 12.287 2.344 11.324 5.99-6.743 3.862-14.459 2.024-15.823-1.523-1.83-4.761-8.593-5.882-7.043-12.747Z" fill="#9CD499"/><path d="M325.5 183.053c-7.373-5.497-14.929-.367-18.799 5.497-3.871 5.864-1.105 19.06-1.105 19.06s1.474 0 1.474-.55c0-.549-4.055-15.577 5.528-22.359 5.996-4.241 10.321-2.199 10.874-.182.553 2.016-2.395 5.681-2.395 5.681l4.423-7.147Z" fill="#74B570"/><path d="M308.543 171.753c7.373 0 9.768 11.362 7.74 17.96-2.028 6.598-4.792 18.877-4.792 18.877l-1.843-1.833s7.004-17.227 5.345-24.923c-1.659-7.697-5.714-8.98-6.451-8.98-.737-.002.001-1.101.001-1.101Z" fill="#9CD499"/><path d="M314.729 189.764c.518-.684 1.159-1.248 1.94-1.622-.102.546-.23 1.072-.382 1.57-.924 3.006-2.001 7.191-2.899 10.857l-.402-2.309a9.919 9.919 0 0 1-.107-.853c.721-2.441 1.403-5.1 1.85-7.643Z" fill="#74B570"/><path d="M316.744 189.819c14.006-5.864 6.627-13.911 18.976-8.598.869.375 1.93 1.318 2.991 2.62-1.1.31-2.432.533-3.913.313-3.686-.55-2.395 2.382 3.686 3.115 1.146.138 2.077.329 2.85.598 2.898 5.534 4.203 12.815-1.929 15.346-1.208.499-2.701.784-4.363.891-1.892-1.496.461-10.149-2.456-8.954-2.801 1.146.878 7.418.375 8.998-2.765-.05-5.826-.499-8.75-1.219-1.157-.646-2.042-1.51-2.314-2.647-.922-3.849 5.161-6.231 5.345-9.531.17-3.032-2.23 6.672-8.585 8.1-5.746-2.669-8.461-6.292-1.913-9.032Zm-9.981-10.37c1.474-3.115-2.396-3.849-2.212-1.465.163 2.111.181 7.243-1.997 8.639-3.755-.404-8.864-1.909-12.727-4.202a1.552 1.552 0 0 1 .162-.955c1.659-3.3 12.349-6.048 9.031-7.147-2.642-.876-7.272 4.293-11.003 6.896-2.24-1.69-3.742-3.705-3.742-5.954 0-3.045 3.72-6.491 8.532-8.138 2.165.217 4.177 1.394 7.318 3.164 4.641 2.615 3.567-1.613-.821-4.122 3.788.195 7.565 1.804 10.351 5.649 0 0-.264 1.643 1.486 4.186 4.772 6.936-.735 10.983-7.318 10.721.374-1.83 1.92-5.119 2.94-7.272Z" fill="#9CD499"/><path d="M325.056 182.743c3.604 2.769 7.608 6.008 12.523 8.207 4.915 2.199 3.932 9.367 3.932 9.367s.738-6.191-3.359-8.309c-4.095-2.118-6.8-4.643-9.913-5.132-3.112-.488-4.833-.977-4.833-.977s.983-1.955.41-2.687c-.573-.733 1.24-.469 1.24-.469Zm17.766-32.521c-13.188 3.503-22.855 11.892-24.657 13.929-1.802 2.037-1.802 2.607-1.802 2.607l1.393 2.606.654-.326s-1.064-2.199 1.721-5.051c4.803-4.916 10.649-8.796 14.662-10.507 4.015-1.709 8.029-3.258 8.029-3.258Z" fill="#74B570"/><path d="M306.416 222.812h5.039c3.584 0 6.488-2.888 6.488-6.451v-11.512H299.93v11.512c-.002 3.563 2.903 6.451 6.486 6.451Z" fill="#75A1DE"/><path d="M317.943 206.908H299.93v1.261h18.013v-1.261Zm0 2.299H299.93v.741h18.013v-.741Z" fill="#fff"/></svg>