<svg width="346" height="270" fill="none" xmlns="http://www.w3.org/2000/svg"><path d="M27.85 268.179s-40.692-52.595-23.7-114.414C19.399 98.28 88.358 62.37 124.998 89.851c17.727 13.294 32.047-40.139 90.874-59.697 43.504-14.466 107.832 17.975 91.494 117.315-12.421 75.528 49.195 37.871 35.739 121.309l-315.254-.599Z" fill="#F9CD3D"/><path d="M231.474 79.576s-9.933-10.783-1.268-18.197c0 0 6.374-4.208 11.703-4.088 0 0-7.06 12.967-4.575 14.136 2.485 1.17 6.829-15.018 6.829-15.018s14.787-2.004 19.649.12c0 0-12.299 10.899-9.602 11.42 2.695.52 16.017-10.226 16.017-10.226s13.902 1.84 13.481 10.324c-.42 8.485-5.082 11.277-7.182 11.13-2.1-.146-14.512-4.373-14.715-2.643-.202 1.73 7.374 7.076 12.543 7.143 0 0-9.334 11.146-15.923 8.28-6.589-2.867-7.325-7.779-11.429-9.476-4.103-1.698-7.547-1.563-5.811.261 1.737 1.824 9.107 3.382 11.568 7.39 2.46 4.01 4.634 6.695-2.099 5.936-6.734-.758-17.803-5.266-18.492-10.879l-.694-5.613Z" fill="#599DAD"/><path d="M276.927 68.532s-37.572-.036-45.454 11.044c0 0-1.626 5.577-7.077 10.805l-.789 2.438s6.244-7.125 8.555-7.63c0 .002-4.138-13.202 44.765-16.657Z" fill="#599DAD"/><path d="M224.397 90.383s-7.83 6.281-7.989 16.983l1.467.076s2.159-11.14 6.647-15.634c4.485-4.494-.125-1.425-.125-1.425Z" fill="#599DAD"/><path d="M209.025 66.726s-22.323-5.054-17.71-22.318c0 0 4.495-11.095 11.469-15.682 0 0 2.356 22.99 6.592 22.286 4.236-.704-4.467-25.427-4.467-25.427s17.283-15.742 25.422-17.33c0 0-6.217 24.987-2.285 23.257 3.932-1.73 11.604-27.43 11.604-27.43s19.535-10.002 26.491 1.306c6.954 11.307 3.414 19.052.579 20.733-2.836 1.68-22.563 7.28-21.295 9.69 1.268 2.409 15.751 2.552 22.47-1.957 0 0-2.181 22.67-13.203 24.839-11.021 2.17-16.31-3.502-23.097-2.037-6.788 1.465-11.105 4.704-7.258 5.508 3.849.804 14.72-3.747 21.432-.772 6.712 2.976 11.884 4.5 2.537 9.516-9.347 5.016-27.59 9.059-33.437 2.438l-5.844-6.62Z" fill="#86D1CD"/><path d="M257.832 12.043s-48.441 33.39-48.809 54.683c0 0 2.833 8.634.427 20.22l1.136 3.844s1.751-14.737 4.283-17.444c.002 0-16.994-13.331 42.963-61.303Z" fill="#6BB7BF"/><path d="M209.452 86.946s-4.54 15.06 4.709 28.991l1.957-1.207s-7.06-16.276-5.248-26.06c1.81-9.782-1.418-1.724-1.418-1.724Z" fill="#6BB7BF"/><path d="M85.02 195.292s22.323-5.054 17.709-22.318c0 0-4.494-11.095-11.468-15.682 0 0-2.357 22.991-6.593 22.285-4.236-.705 4.467-25.427 4.467-25.427s-17.282-15.743-25.421-17.331c0 0 6.216 24.988 2.284 23.258-3.932-1.73-11.604-27.43-11.604-27.43s-19.535-10.002-26.49 1.305c-6.954 11.308-3.415 19.052-.58 20.733 2.837 1.681 22.563 7.281 21.295 9.69-1.268 2.409-15.75 2.554-22.47-1.957 0 0 2.181 22.67 13.203 24.839 11.022 2.17 16.31-3.501 23.096-2.036 6.788 1.465 11.105 4.703 7.258 5.507-3.849.804-14.72-3.747-21.432-.771-6.712 2.975-11.885 4.5-2.538 9.516 9.347 5.015 27.59 9.058 33.438 2.438l5.845-6.619Z" fill="#86D1CD"/><path d="M36.21 140.608s48.443 33.39 48.81 54.683c0 0-2.833 8.634-.427 20.221l-1.136 3.843s-1.75-14.737-4.283-17.443c-.002-.002 16.994-13.334-42.963-61.304Z" fill="#6BB7BF"/><path d="M84.592 215.51s4.54 15.06-4.71 28.991l-1.956-1.207s7.06-16.275 5.248-26.059c-1.81-9.781 1.418-1.725 1.418-1.725Z" fill="#6BB7BF"/><path d="M233.023 40.095H70.561v228.992h162.462V40.095Z" fill="#739AF0"/><path d="M227.315 46.438H76.269v218.41h151.046V46.438Z" fill="#DDEBFD"/><path d="M215.135 73.236H91.825v7.077h123.31v-7.078Zm0 43.203H91.825v3.247h123.31v-3.247Zm0 7.64H91.825v3.248h123.31v-3.248Zm0 7.641H91.825v3.247h123.31v-3.247Zm0 7.639H91.825v3.247h123.31v-3.247Zm0 7.64H91.825v3.248h123.31v-3.248Zm0 7.641H91.825v3.247h123.31v-3.247Zm-87.201 44.372c0 5.274-4.259 9.551-9.515 9.551-5.255 0-9.515-4.275-9.515-9.551 0-5.275 4.26-9.55 9.515-9.55 5.254 0 9.515 4.275 9.515 9.55Zm39.834 9.181a.476.476 0 0 1-.468-.557c.089-.525 2.254-12.88 9.081-17.086.487-.3.792-.144.93-.024.598.516.143 1.826-1.912 6.775-.819 1.971-1.791 4.31-2.19 5.731.727-.957 1.816-2.596 2.68-3.898 2.7-4.068 3.227-4.732 3.753-4.732.195 0 .371.091.481.25.288.414.071 1.104-.676 3.132-.286.777-.724 1.968-.85 2.607.387-.351.956-1.097 1.3-1.545.935-1.222 1.411-1.806 1.968-1.717.115.018.401.101.539.481.056.156.083.334.11.522.074.491.157 1.044.743 1.376 1.185.672 4.601.632 14.142-3.36a.476.476 0 0 1 .622.258.48.48 0 0 1-.257.625c-8.055 3.371-12.955 4.453-14.975 3.311-.984-.556-1.13-1.489-1.215-2.052-.272.287-.648.779-.925 1.14-1.032 1.351-1.711 2.162-2.403 2.104a.652.652 0 0 1-.505-.306c-.331-.523-.007-1.553.81-3.773.131-.355.281-.764.413-1.143-.66.906-1.557 2.258-2.285 3.353-3.024 4.556-3.572 5.219-4.181 5.052-.094-.026-.4-.144-.425-.587-.062-1.065.93-3.54 2.447-7.194.772-1.857 1.781-4.289 2.031-5.359-6.209 4.186-8.292 16.099-8.314 16.22a.476.476 0 0 1-.469.396Z" fill="#A8C3F7"/><path d="M187.378 36.384h-19.157a10.35 10.35 0 0 0 .665-3.661c0-5.715-4.615-10.346-10.307-10.346-5.691 0-10.307 4.633-10.307 10.346 0 1.288.237 2.523.666 3.661h-19.157a2.797 2.797 0 0 0-2.791 2.801v7.768a2.797 2.797 0 0 0 2.791 2.8h57.597a2.796 2.796 0 0 0 2.79-2.8v-7.768a2.796 2.796 0 0 0-2.79-2.8Zm-28.799.158a3.813 3.813 0 0 1-3.805-3.82 3.812 3.812 0 0 1 3.805-3.819 3.813 3.813 0 0 1 3.806 3.82 3.812 3.812 0 0 1-3.806 3.819Z" fill="#F99746"/><path d="M129.781 49.754h57.597a2.797 2.797 0 0 0 2.791-2.801v-7.768l-60.388 10.569Z" fill="#ED7D2B"/><path d="M177.659 209.406c-8.66 1.492-17.062 1.817-23.456 1.312-6.458-.508-10.231-2.509-10.622-4.792-.354-2.07 2.039-4.441 6.916-6.857-4.675 2.317-6.941 4.925-6.619 6.806.356 2.087 4.125 3.565 10.338 4.055 6.37.501 14.635-.041 23.271-1.528 8.636-1.489 16.608-3.742 22.448-6.347 5.696-2.541 8.756-5.195 8.4-7.283-.378-2.211-4.444-4.338-10.61-5.553-7.012-1.381-15.284-.916-23.434.487-15.3 2.636-21.292 5.513-26.373 8.701 5.102-3.203 10.886-6.831 26.241-9.476 8.182-1.409 16.569-1.422 23.613-.033 6.296 1.24 10.458 3.473 10.861 5.824.391 2.283-2.655 4.995-8.575 7.635-5.861 2.614-13.74 5.556-22.399 7.049Z" fill="#C65447"/><path d="M278.51 180.928s-.501 4.898-1.053 5.823c-.549.926-2.895 3.887-3.894 4.468-.998.581.61-3.899.407-4.773-.204-.871-.823 1.592-1.262 1.649-.44.058-.327-2.159-.342-2.966-.016-.806 2.142-2.8 2.903-4.517.76-1.717 3.241.316 3.241.316Zm-59.946-45.169-1.122-2.124s.557-3.785-4.167-6.177c0 0-1.727-.707-2.7.708-.897 1.301 1.711 1.067 1.572 3.293-.14 2.227.913 3.534 2.38 4.258l1.212 1.409 2.825-1.367Z" fill="#FFB27D"/><path d="M263.21 130.683s-4.056 19.985-26.382 26.514c-6.968 2.039-22.801-20.99-22.801-20.99s.557-2.122 4.044-1.636c0 0 15.415 10.244 17.356 11.357 1.721.987 13.047-12.693 18.209-14.9 5.163-2.206 9.574-.345 9.574-.345Z" fill="url(#a)"/><path d="m203.801 126.753-.633 4.138 20.731 3.195.633-4.137-20.731-3.196Z" fill="#C65447"/><path d="m198.668 128.078 4.503 2.81.633-4.135-5.136 1.325Zm28.068 3.615-.2 1.307a1.47 1.47 0 0 1-1.675 1.232l-.959-.147.633-4.137 1.044.162a1.386 1.386 0 0 1 1.157 1.583Z" fill="#FFB27D"/><path d="M289.864 256.318s2.769 2.536 2.23 4.338c-.541 1.803-3.041 3.005-3.377 5.207-.338 2.204-1.689 3.405-2.905 3.405h-5.796s-.895-1.55 1.266-2.016c2.161-.467 2.977-3.057 2.841-5.459-.136-2.404.203-5.608.203-5.608l4.594-1.067.944 1.2Zm-33.979 6.563s.497 5.772-.718 6.373l-15.562-.032s0-1.803 2.5-2.204c2.499-.401 6.891-1.87 7.632-5.141.744-3.27 6.148 1.004 6.148 1.004Z" fill="#233862"/><path d="M242.746 181.326s.821 10.12 1.785 22.285c1.311 16.525 2.889 36.824 3.044 40.669.27 6.676 1.351 17.358 1.351 17.358s2.566 2.537 7.701 1.468c0 0 4.576-15.247 5.883-31.379.02-.265.04-.531.062-.797 1.215-16.424 3.107-51.005 3.107-51.005l-22.933 1.401Z" fill="#2B478B"/><path d="M242.746 181.326s.821 10.12 1.785 22.285l17.979 28.116c.02-.265.04-.531.062-.797 1.215-16.424 3.107-51.005 3.107-51.005l-22.933 1.401Z" fill="#233862"/><path d="M246.496 182.527s14.793 36.652 24.521 53.875c9.727 17.224 12.767 22.031 12.767 22.031s5.572-2.204 6.079-3.705c0 0-3.721-33.251-10.233-41.358-3.681-4.58-8.005-18.326-8.208-23.133-.202-4.807-1.316-14.319-1.316-14.319l-23.61 6.609Z" fill="#2B478B"/><path d="M265.96 126.045s-10.009 4.847-15.78 3.048c0 0 1.419-1.799 3.906-3.137a49.85 49.85 0 0 1-.445-3.026c-.244-1.976-.244-3.094-.244-3.094l3.862-3.048 3.662-2.917c-.288 8.204 5.039 12.174 5.039 12.174Z" fill="#FFB27D"/><path d="M271.235 177.795c.021.614-1.288 1.316-1.865 1.58-4.283 1.886-8.278 3.202-12.805 3.641-5.348.548-11.674-.659-13.848-.614a.898.898 0 0 1-.599-.241c-.155-.111-.266-6.58-.155-14.719 0-.328 0-.659.021-.987v-.109c.046-3.18.156-6.515.311-9.848.311-7.327.888-14.39 1.865-18.293 1.176-4.606 3.84-7.655 6.258-9.87l1.997-1.755c1.996.395 4.105.285 6.214-.747 2.308-1.118 4.793-2.325 5.192-2.018 3.019 2.214 5.061 7.194 6.148 13.555.622 3.663.933 7.764.909 12.064 0 1.58-.045 3.203-.133 4.804-.532 8.686 0 16.231.311 20.596.09 1.273.155 2.26.179 2.961Z" fill="url(#b)"/><path d="M271.056 177.395c-35.051-.071-6.464-38.174-6.464-38.174l5.679-1.852c.449 3.914.675 8.296.658 12.889 0 1.688-.032 3.422-.095 5.132-.387 9.282-.004 17.342.222 22.005Z" fill="url(#c)"/><path d="M260.989 117.007s-2.53 4.627-7.346 5.921c-.245-1.975-.245-3.093-.245-3.093l3.862-3.048 3.729.22Z" fill="#ED985F"/><path d="M251.637 119.702s9.549 1.568 10.444-4.324c.898-5.893 2.733-9.658-3.326-10.908-6.058-1.251-7.588.822-8.372 2.715-.783 1.894-1.206 11.958 1.254 12.517Z" fill="#FFB27D"/><path d="M265.552 103.766c.087-.1.286-.18.731-.205 0 0-.356-.223-.83-.234-.094-.621-.422-1.721-1.487-1.988 0 0 .572.307.648.966-1.234-1.271-3.876-2.197-11.194-1.618-9.643.764-6.466 6.962-5.218 7.701 1.248.739 4.392-1.287 6.717-1.102 2.326.185 2.769 3.56 3.558 4.023.789.463.479-.356 1.546-.841 1.067-.485 1.17 1.291.861 2.445-.309 1.155 1.16 2.678 1.16 2.678l1.483-1.603c1.483-1.603 2.879-8.39 2.206-9.837-.061-.125-.119-.254-.181-.385Z" fill="#2C3A64"/><path d="M263.818 123.765s6.04 2.872 8.938 7.287c4.492 6.847 9.701 31.803 9.797 34.114.096 2.311-3.802 18.625-3.802 18.625s-3.953-.262-4.973-2.264c0 0 .79-16.763.289-17.841-.501-1.078-16.48-22.486-14.684-27.055 1.799-4.566 4.435-12.866 4.435-12.866Z" fill="url(#d)"/><path d="M217.423 133.535s.329-1.301-.571-1.888c-.901-.586-1.729-2.178-2.109-1.962-.787.447.43 1.837.208 3.569-.078.608 1.329 2.198 2.472.281Z" fill="#FFB27D"/><defs><linearGradient id="a" x1="218.236" y1="156.599" x2="238.186" y2="117.259" gradientUnits="userSpaceOnUse"><stop stop-color="#6076FF"/><stop offset="1" stop-color="#B7BFF2"/></linearGradient><linearGradient id="b" x1="244.427" y1="181.584" x2="289.368" y2="157.236" gradientUnits="userSpaceOnUse"><stop stop-color="#6076FF"/><stop offset="1" stop-color="#B7BFF2"/></linearGradient><linearGradient id="c" x1="255.099" y1="176.334" x2="283.254" y2="162.861" gradientUnits="userSpaceOnUse"><stop stop-color="#6076FF"/><stop offset="1" stop-color="#B7BFF2"/></linearGradient><linearGradient id="d" x1="261.237" y1="182.199" x2="300.355" y2="165.524" gradientUnits="userSpaceOnUse"><stop stop-color="#6076FF"/><stop offset="1" stop-color="#B7BFF2"/></linearGradient></defs></svg>